rawline-400.ufo
<glyph name="exclam" format="2">
  <advance width="516"/>
  <unicode hex="0021"/>
  <outline>
    <contour>
      <point x="188" y="467" type="line"/>
      <point x="188" y="1468" type="line"/>
      <point x="328" y="1468" type="line"/>
      <point x="328" y="467" type="line"/>
    </contour>
    <contour>
      <point x="188" y="0" type="line"/>
      <point x="188" y="229" type="line"/>
      <point x="328" y="229" type="line"/>
      <point x="328" y="0" type="line"/>
    </contour>
  </outline>
</glyph>
<glyph name="numbersign" format="2">
  <advance width="1392"/>
  <unicode hex="0023"/>
  <outline>
    <contour>
      <point x="1315" y="936" type="line"/>
      <point x="1051" y="936" type="line"/>
      <point x="954" y="535" type="line"/>
      <point x="1229" y="535" type="line"/>
      <point x="1229" y="424" type="line"/>
      <point x="928" y="424" type="line"/>
      <point x="825" y="0" type="line"/>
      <point x="707" y="0" type="line"/>
      <point x="811" y="424" type="line"/>
      <point x="424" y="424" type="line"/>
      <point x="322" y="0" type="line"/>
      <point x="203" y="0" type="line"/>
      <point x="307" y="424" type="line"/>
      <point x="76" y="424" type="line"/>
      <point x="76" y="535" type="line"/>
      <point x="334" y="535" type="line"/>
      <point x="430" y="936" type="line"/>
      <point x="164" y="936" type="line"/>
      <point x="164" y="1040" type="line"/>
      <point x="457" y="1040" type="line"/>
      <point x="557" y="1454" type="line"/>
      <point x="676" y="1454" type="line"/>
      <point x="573" y="1040" type="line"/>
      <point x="961" y="1040" type="line"/>
      <point x="1061" y="1454" type="line"/>
      <point x="1180" y="1454" type="line"/>
      <point x="1077" y="1040" type="line"/>
      <point x="1315" y="1040" type="line"/>
    </contour>
    <contour>
      <point x="838" y="535" type="line"/>
      <point x="934" y="936" type="line"/>
      <point x="547" y="936" type="line"/>
      <point x="451" y="535" type="line"/>
    </contour>
  </outline>
</glyph>
<glyph name="dollar" format="2">
  <advance width="1267"/>
  <unicode hex="0024"/>
  <anchor x="655" y="1481" name="Anchor-1"/>
  <anchor x="657" y="0" name="Anchor-0"/>
  <outline>
    <contour>
      <point x="1186" y="381" type="qcurve" smooth="yes"/>
      <point x="1186" y="254"/>
      <point x="1057" y="77"/>
      <point x="835" y="-9"/>
      <point x="686" y="-12" type="qcurve"/>
      <point x="686" y="-211" type="line"/>
      <point x="592" y="-211" type="line"/>
      <point x="592" y="-10" type="line"/>
      <point x="296" y="11"/>
      <point x="78" y="199" type="qcurve"/>
      <point x="150" y="315" type="line"/>
      <point x="224" y="237"/>
      <point x="460" y="129"/>
      <point x="600" y="117" type="qcurve"/>
      <point x="600" y="668" type="line"/>
      <point x="596" y="668" type="line"/>
      <point x="497" y="691"/>
      <point x="363" y="733"/>
      <point x="241" y="794"/>
      <point x="171" y="870"/>
      <point x="131" y="977"/>
      <point x="131" y="1047" type="qcurve" smooth="yes"/>
      <point x="131" y="1233"/>
      <point x="382" y="1448"/>
      <point x="592" y="1462" type="qcurve"/>
      <point x="592" y="1669" type="line"/>
      <point x="686" y="1669" type="line"/>
      <point x="686" y="1464" type="line"/>
      <point x="937" y="1453"/>
      <point x="1114" y="1296" type="qcurve"/>
      <point x="1044" y="1182" type="line"/>
      <point x="984" y="1249"/>
      <point x="795" y="1331"/>
      <point x="678" y="1337" type="qcurve"/>
      <point x="678" y="788" type="line"/>
      <point x="682" y="788" type="line"/>
      <point x="766" y="770"/>
      <point x="889" y="735"/>
      <point x="1010" y="687"/>
      <point x="1091" y="627"/>
      <point x="1156" y="548"/>
      <point x="1186" y="445"/>
    </contour>
    <contour>
      <point x="279" y="1067" type="qcurve" smooth="yes"/>
      <point x="279" y="957"/>
      <point x="424" y="849"/>
      <point x="600" y="807" type="qcurve"/>
      <point x="600" y="1335" type="line"/>
      <point x="437" y="1326"/>
      <point x="279" y="1187"/>
    </contour>
    <contour>
      <point x="678" y="115" type="line"/>
      <point x="848" y="117"/>
      <point x="1034" y="244"/>
      <point x="1034" y="367" type="qcurve" smooth="yes"/>
      <point x="1034" y="481"/>
      <point x="868" y="602"/>
      <point x="678" y="649" type="qcurve"/>
    </contour>
  </outline>
</glyph>
<glyph name="percent" format="2">
  <advance width="1462"/>
  <unicode hex="0025"/>
  <outline>
    <contour>
      <point x="82" y="1180" type="qcurve" smooth="yes"/>
      <point x="82" y="1303"/>
      <point x="261" y="1475"/>
      <point x="389" y="1475" type="qcurve" smooth="yes"/>
      <point x="516" y="1475"/>
      <point x="694" y="1303"/>
      <point x="694" y="1180" type="qcurve" smooth="yes"/>
      <point x="694" y="1058"/>
      <point x="516" y="887"/>
      <point x="262" y="887"/>
      <point x="82" y="1058"/>
    </contour>
    <contour>
      <point x="133" y="55" type="line"/>
      <point x="705" y="752" type="line"/>
      <point x="1262" y="1462" type="line"/>
      <point x="1333" y="1401" type="line"/>
      <point x="762" y="705" type="line"/>
      <point x="203" y="-8" type="line"/>
    </contour>
    <contour>
      <point x="590" y="1180" type="qcurve" smooth="yes"/>
      <point x="590" y="1268"/>
      <point x="470" y="1393"/>
      <point x="389" y="1393" type="qcurve" smooth="yes"/>
      <point x="305" y="1393"/>
      <point x="186" y="1266"/>
      <point x="186" y="1180" type="qcurve" smooth="yes"/>
      <point x="186" y="1092"/>
      <point x="306" y="967"/>
      <point x="472" y="967"/>
      <point x="590" y="1094"/>
    </contour>
    <contour>
      <point x="770" y="274" type="qcurve" smooth="yes"/>
      <point x="770" y="395"/>
      <point x="949" y="567"/>
      <point x="1075" y="567" type="qcurve" smooth="yes"/>
      <point x="1202" y="567"/>
      <point x="1382" y="396"/>
      <point x="1382" y="274" type="qcurve" smooth="yes"/>
      <point x="1382" y="151"/>
      <point x="1203" y="-20"/>
      <point x="1075" y="-20" type="qcurve" smooth="yes"/>
      <point x="949" y="-20"/>
      <point x="770" y="151"/>
    </contour>
    <contour>
      <point x="1276" y="361"/>
      <point x="1155" y="487"/>
      <point x="1075" y="487" type="qcurve" smooth="yes"/>
      <point x="992" y="487"/>
      <point x="874" y="360"/>
      <point x="874" y="274" type="qcurve" smooth="yes"/>
      <point x="874" y="185"/>
      <point x="993" y="61"/>
      <point x="1075" y="61" type="qcurve" smooth="yes"/>
      <point x="1159" y="61"/>
      <point x="1276" y="187"/>
    </contour>
  </outline>
</glyph>
<glyph name="ampersand" format="2">
  <advance width="1366"/>
  <unicode hex="0026"/>
  <outline>
    <contour>
      <point x="1354" y="0" type="line"/>
      <point x="1169" y="0" type="line"/>
      <point x="1001" y="176" type="line"/>
      <point x="915" y="82"/>
      <point x="690" y="-20"/>
      <point x="561" y="-20" type="qcurve" smooth="yes"/>
      <point x="433" y="-20"/>
      <point x="222" y="78"/>
      <point x="96" y="260"/>
      <point x="96" y="375" type="qcurve" smooth="yes"/>
      <point x="96" y="446"/>
      <point x="143" y="572"/>
      <point x="235" y="679"/>
      <point x="334" y="761"/>
      <point x="403" y="807" type="qcurve"/>
      <point x="292" y="927"/>
      <point x="205" y="1077"/>
      <point x="205" y="1153" type="qcurve" smooth="yes"/>
      <point x="205" y="1288"/>
      <point x="414" y="1473"/>
      <point x="569" y="1473" type="qcurve" smooth="yes"/>
      <point x="714" y="1473"/>
      <point x="909" y="1312"/>
      <point x="909" y="1186" type="qcurve" smooth="yes"/>
      <point x="909" y="1137"/>
      <point x="874" y="1045"/>
      <point x="823" y="974"/>
      <point x="733" y="893"/>
      <point x="654" y="835"/>
      <point x="594" y="795" type="qcurve"/>
      <point x="999" y="371" type="line"/>
      <point x="1087" y="534"/>
      <point x="1087" y="729" type="qcurve"/>
      <point x="1206" y="729" type="line"/>
      <point x="1206" y="480"/>
      <point x="1083" y="283" type="qcurve"/>
    </contour>
    <contour>
      <point x="569" y="1364" type="qcurve" smooth="yes"/>
      <point x="469" y="1364"/>
      <point x="334" y="1243"/>
      <point x="334" y="1157" type="qcurve" smooth="yes"/>
      <point x="334" y="1106"/>
      <point x="406" y="992"/>
      <point x="512" y="879" type="qcurve"/>
      <point x="653" y="972"/>
      <point x="780" y="1102"/>
      <point x="780" y="1262"/>
      <point x="661" y="1364"/>
    </contour>
    <contour>
      <point x="575" y="92" type="qcurve" smooth="yes"/>
      <point x="676" y="92"/>
      <point x="855" y="180"/>
      <point x="924" y="260" type="qcurve"/>
      <point x="483" y="723" type="line"/>
      <point x="361" y="638"/>
      <point x="231" y="473"/>
      <point x="231" y="371" type="qcurve" smooth="yes"/>
      <point x="231" y="284"/>
      <point x="334" y="154"/>
      <point x="487" y="92"/>
    </contour>
  </outline>
</glyph>
<glyph name="quotesingle" format="2">
  <advance width="403"/>
  <unicode hex="0027"/>
  <outline>
    <contour>
      <point x="141" y="1067" type="line"/>
      <point x="141" y="1466" type="line"/>
      <point x="262" y="1466" type="line"/>
      <point x="262" y="1067" type="line"/>
    </contour>
  </outline>
</glyph>
<glyph name="parenleft" format="2">
  <advance width="550"/>
  <unicode hex="0028"/>
  <outline>
    <contour>
      <point x="377" y="1513" type="qcurve"/>
      <point x="483" y="1462" type="line"/>
      <point x="385" y="1316"/>
      <point x="221" y="882"/>
      <point x="221" y="702" type="qcurve" smooth="yes"/>
      <point x="221" y="544"/>
      <point x="358" y="167"/>
      <point x="481" y="-20" type="qcurve"/>
      <point x="377" y="-76" type="line"/>
      <point x="90" y="351"/>
      <point x="90" y="709" type="qcurve" smooth="yes"/>
      <point x="90" y="901"/>
      <point x="238" y="1283"/>
    </contour>
  </outline>
</glyph>
<glyph name="parenright" format="2">
  <advance width="548"/>
  <unicode hex="0029"/>
  <outline>
    <contour>
      <point x="172" y="-76" type="qcurve"/>
      <point x="70" y="-20" type="line"/>
      <point x="192" y="168"/>
      <point x="330" y="545"/>
      <point x="330" y="702" type="qcurve" smooth="yes"/>
      <point x="330" y="882"/>
      <point x="165" y="1317"/>
      <point x="66" y="1462" type="qcurve"/>
      <point x="174" y="1513" type="line"/>
      <point x="312" y="1281"/>
      <point x="459" y="901"/>
      <point x="459" y="709" type="qcurve" smooth="yes"/>
      <point x="459" y="346"/>
    </contour>
  </outline>
</glyph>
<glyph name="asterisk" format="2">
  <advance width="657"/>
  <unicode hex="002A"/>
  <outline>
    <contour>
      <point x="178" y="1118" type="line"/>
      <point x="266" y="1245" type="line"/>
      <point x="127" y="1290" type="line"/>
      <point x="150" y="1364" type="line"/>
      <point x="291" y="1311" type="line"/>
      <point x="287" y="1460" type="line"/>
      <point x="371" y="1460" type="line"/>
      <point x="367" y="1311" type="line"/>
      <point x="508" y="1364" type="line"/>
      <point x="530" y="1290" type="line"/>
      <point x="391" y="1245" type="line"/>
      <point x="481" y="1118" type="line"/>
      <point x="416" y="1073" type="line"/>
      <point x="330" y="1206" type="line"/>
      <point x="242" y="1073" type="line"/>
    </contour>
  </outline>
</glyph>
<glyph name="plus" format="2">
  <advance width="849"/>
  <unicode hex="002B"/>
  <outline>
    <contour>
      <point x="743" y="784" type="line"/>
      <point x="743" y="670" type="line"/>
      <point x="489" y="670" type="line"/>
      <point x="489" y="393" type="line"/>
      <point x="360" y="393" type="line"/>
      <point x="360" y="670" type="line"/>
      <point x="106" y="670" type="line"/>
      <point x="106" y="784" type="line"/>
      <point x="360" y="784" type="line"/>
      <point x="360" y="1061" type="line"/>
      <point x="489" y="1061" type="line"/>
      <point x="489" y="784" type="line"/>
    </contour>
  </outline>
</glyph>
<glyph name="comma" format="2">
  <advance width="460"/>
  <unicode hex="002C"/>
  <outline>
    <contour>
      <point x="176" y="-166" type="line"/>
      <point x="211" y="6" type="line"/>
      <point x="164" y="6" type="line"/>
      <point x="164" y="201" type="line"/>
      <point x="299" y="201" type="line"/>
      <point x="299" y="6" type="line"/>
      <point x="248" y="-166" type="line"/>
    </contour>
  </outline>
</glyph>
<glyph name="hyphen" format="2">
  <advance width="864"/>
  <unicode hex="002D"/>
  <outline>
    <contour>
      <point x="133" y="494" type="line"/>
      <point x="133" y="623" type="line"/>
      <point x="731" y="623" type="line"/>
      <point x="731" y="494" type="line"/>
    </contour>
  </outline>
</glyph>
<glyph name="period" format="2">
  <advance width="387"/>
  <unicode hex="002E"/>
  <outline>
    <contour>
      <point x="133" y="0" type="line"/>
      <point x="133" y="201" type="line"/>
      <point x="254" y="201" type="line"/>
      <point x="254" y="0" type="line"/>
    </contour>
  </outline>
</glyph>
<glyph name="slash" format="2">
  <advance width="1236"/>
  <unicode hex="002F"/>
  <outline>
    <contour>
      <point x="1180" y="1454" type="line"/>
      <point x="213" y="0" type="line"/>
      <point x="55" y="0" type="line"/>
      <point x="1022" y="1454" type="line"/>
    </contour>
  </outline>
</glyph>
<glyph name="zero" format="2">
  <advance width="1400"/>
  <unicode hex="0030"/>
  <outline>
    <contour>
      <point x="98" y="717" type="qcurve" smooth="yes"/>
      <point x="98" y="849"/>
      <point x="183" y="1111"/>
      <point x="335" y="1322"/>
      <point x="566" y="1454"/>
      <point x="700" y="1454" type="qcurve" smooth="yes"/>
      <point x="796" y="1454"/>
      <point x="968" y="1389"/>
      <point x="1097" y="1277"/>
      <point x="1200" y="1132"/>
      <point x="1266" y="966"/>
      <point x="1300" y="797"/>
      <point x="1300" y="717" type="qcurve" smooth="yes"/>
      <point x="1300" y="611"/>
      <point x="1247" y="399"/>
      <point x="1143" y="212"/>
      <point x="1001" y="67"/>
      <point x="808" y="-19"/>
      <point x="700" y="-20" type="qcurve" smooth="yes"/>
      <point x="586" y="-17"/>
      <point x="387" y="75"/>
      <point x="247" y="224"/>
      <point x="146" y="414"/>
      <point x="98" y="617"/>
    </contour>
    <contour>
      <point x="700" y="109" type="qcurve" smooth="yes"/>
      <point x="789" y="109"/>
      <point x="941" y="186"/>
      <point x="1046" y="311"/>
      <point x="1122" y="472"/>
      <point x="1157" y="638"/>
      <point x="1157" y="717" type="qcurve" smooth="yes"/>
      <point x="1157" y="803"/>
      <point x="1118" y="976"/>
      <point x="1040" y="1132"/>
      <point x="932" y="1253"/>
      <point x="784" y="1325"/>
      <point x="700" y="1325" type="qcurve" smooth="yes"/>
      <point x="611" y="1325"/>
      <point x="458" y="1248"/>
      <point x="353" y="1122"/>
      <point x="279" y="961"/>
      <point x="244" y="796"/>
      <point x="244" y="717" type="qcurve" smooth="yes"/>
      <point x="247" y="607"/>
      <point x="308" y="396"/>
      <point x="418" y="218"/>
      <point x="593" y="109"/>
    </contour>
  </outline>
</glyph>
<glyph name="one" format="2">
  <advance width="851"/>
  <unicode hex="0031"/>
  <outline>
    <contour>
      <point x="811" y="127" type="line"/>
      <point x="811" y="0" type="line"/>
      <point x="133" y="0" type="line"/>
      <point x="133" y="127" type="line"/>
      <point x="410" y="127" type="line"/>
      <point x="410" y="1317" type="line"/>
      <point x="372" y="1264"/>
      <point x="163" y="1141"/>
      <point x="86" y="1141" type="qcurve"/>
      <point x="86" y="1272" type="line"/>
      <point x="126" y="1272"/>
      <point x="222" y="1312"/>
      <point x="300" y="1369"/>
      <point x="370" y="1429"/>
      <point x="408" y="1469"/>
      <point x="410" y="1473" type="qcurve"/>
      <point x="551" y="1473" type="line"/>
      <point x="551" y="127" type="line"/>
    </contour>
  </outline>
</glyph>
<glyph name="eight" format="2">
  <advance width="1214"/>
  <unicode hex="0038"/>
  <outline>
    <contour>
      <point x="602" y="-16" type="qcurve" smooth="yes"/>
      <point x="386" y="-16"/>
      <point x="102" y="233"/>
      <point x="102" y="412" type="qcurve" smooth="yes"/>
      <point x="102" y="542"/>
      <point x="275" y="737"/>
      <point x="393" y="778" type="qcurve"/>
      <point x="289" y="821"/>
      <point x="154" y="981"/>
      <point x="154" y="1083" type="qcurve" smooth="yes"/>
      <point x="154" y="1153"/>
      <point x="207" y="1274"/>
      <point x="296" y="1361"/>
      <point x="413" y="1424"/>
      <point x="542" y="1454"/>
      <point x="608" y="1454" type="qcurve" smooth="yes"/>
      <point x="691" y="1454"/>
      <point x="851" y="1404"/>
      <point x="982" y="1314"/>
      <point x="1063" y="1171"/>
      <point x="1063" y="1085" type="qcurve" smooth="yes"/>
      <point x="1063" y="983"/>
      <point x="924" y="821"/>
      <point x="819" y="778" type="qcurve"/>
      <point x="946" y="734"/>
      <point x="1112" y="535"/>
      <point x="1112" y="403" type="qcurve" smooth="yes"/>
      <point x="1112" y="280"/>
      <point x="971" y="86"/>
      <point x="740" y="-16"/>
    </contour>
    <contour>
      <point x="606" y="829" type="qcurve" smooth="yes"/>
      <point x="681" y="829"/>
      <point x="823" y="886"/>
      <point x="922" y="1005"/>
      <point x="922" y="1081" type="qcurve" smooth="yes"/>
      <point x="922" y="1193"/>
      <point x="734" y="1327"/>
      <point x="604" y="1327" type="qcurve" smooth="yes"/>
      <point x="478" y="1327"/>
      <point x="293" y="1189"/>
      <point x="293" y="1077" type="qcurve" smooth="yes"/>
      <point x="293" y="1001"/>
      <point x="391" y="884"/>
      <point x="532" y="829"/>
    </contour>
    <contour>
      <point x="604" y="719" type="qcurve" smooth="yes"/>
      <point x="514" y="719"/>
      <point x="351" y="645"/>
      <point x="246" y="501"/>
      <point x="246" y="412" type="qcurve" smooth="yes"/>
      <point x="246" y="321"/>
      <point x="358" y="179"/>
      <point x="522" y="109"/>
      <point x="610" y="109" type="qcurve" smooth="yes"/>
      <point x="699" y="109"/>
      <point x="863" y="183"/>
      <point x="971" y="326"/>
      <point x="971" y="414" type="qcurve" smooth="yes"/>
      <point x="971" y="507"/>
      <point x="858" y="650"/>
      <point x="693" y="719"/>
    </contour>
  </outline>
</glyph>
<glyph name="colon" format="2">
  <advance width="385"/>
  <unicode hex="003A"/>
  <outline>
    <contour>
      <point x="133" y="860" type="line"/>
      <point x="133" y="1061" type="line"/>
      <point x="252" y="1061" type="line"/>
      <point x="252" y="860" type="line"/>
    </contour>
    <contour>
      <point x="133" y="0" type="line"/>
      <point x="133" y="201" type="line"/>
      <point x="252" y="201" type="line"/>
      <point x="252" y="0" type="line"/>
    </contour>
  </outline>
</glyph>
<glyph name="semicolon" format="2">
  <advance width="419"/>
  <unicode hex="003B"/>
  <outline>
    <contour>
      <point x="143" y="860" type="line"/>
      <point x="143" y="1061" type="line"/>
      <point x="262" y="1061" type="line"/>
      <point x="262" y="860" type="line"/>
    </contour>
    <contour>
      <point x="156" y="-166" type="line"/>
      <point x="190" y="6" type="line"/>
      <point x="143" y="6" type="line"/>
      <point x="143" y="201" type="line"/>
      <point x="279" y="201" type="line"/>
      <point x="279" y="6" type="line"/>
      <point x="227" y="-166" type="line"/>
    </contour>
  </outline>
</glyph>
<glyph name="less" format="2">
  <advance width="1040"/>
  <unicode hex="003C"/>
  <outline>
    <contour>
      <point x="68" y="565" type="line"/>
      <point x="926" y="1081" type="line"/>
      <point x="926" y="932" type="line"/>
      <point x="270" y="530" type="line"/>
      <point x="926" y="131" type="line"/>
      <point x="926" y="-23" type="line"/>
      <point x="68" y="489" type="line"/>
    </contour>
  </outline>
</glyph>
<glyph name="equal" format="2">
  <advance width="897"/>
  <unicode hex="003D"/>
  <outline>
    <contour>
      <point x="139" y="633" type="line"/>
      <point x="139" y="733" type="line"/>
      <point x="758" y="733" type="line"/>
      <point x="758" y="633" type="line"/>
    </contour>
    <contour>
      <point x="139" y="397" type="line"/>
      <point x="139" y="498" type="line"/>
      <point x="758" y="498" type="line"/>
      <point x="758" y="397" type="line"/>
    </contour>
  </outline>
</glyph>
<glyph name="greater" format="2">
  <advance width="1040"/>
  <unicode hex="003E"/>
  <outline>
    <contour>
      <point x="971" y="489" type="line"/>
      <point x="113" y="-23" type="line"/>
      <point x="113" y="131" type="line"/>
      <point x="768" y="530" type="line"/>
      <point x="113" y="932" type="line"/>
      <point x="113" y="1081" type="line"/>
      <point x="971" y="565" type="line"/>
    </contour>
  </outline>
</glyph>
<glyph name="question" format="2">
  <advance width="974"/>
  <unicode hex="003F"/>
  <outline>
    <contour>
      <point x="315" y="414" type="line"/>
      <point x="315" y="546"/>
      <point x="398" y="707"/>
      <point x="489" y="762" type="qcurve" smooth="yes"/>
      <point x="505" y="772"/>
      <point x="589" y="818"/>
      <point x="636" y="846"/>
      <point x="706" y="903"/>
      <point x="745" y="958"/>
      <point x="774" y="1042"/>
      <point x="774" y="1090" type="qcurve" smooth="yes"/>
      <point x="774" y="1216"/>
      <point x="610" y="1356"/>
      <point x="496" y="1356" type="qcurve" smooth="yes"/>
      <point x="391" y="1356"/>
      <point x="212" y="1238"/>
      <point x="166" y="1147" type="qcurve"/>
      <point x="70" y="1208" type="line"/>
      <point x="126" y="1331"/>
      <point x="361" y="1473"/>
      <point x="498" y="1473" type="qcurve" smooth="yes"/>
      <point x="575" y="1473"/>
      <point x="716" y="1424"/>
      <point x="829" y="1330"/>
      <point x="897" y="1176"/>
      <point x="897" y="1081" type="qcurve" smooth="yes"/>
      <point x="897" y="1036"/>
      <point x="879" y="956"/>
      <point x="856" y="899"/>
      <point x="806" y="841"/>
      <point x="772" y="808"/>
      <point x="698" y="760"/>
      <point x="664" y="740"/>
      <point x="621" y="717" type="qcurve" smooth="yes"/>
      <point x="584" y="697"/>
      <point x="543" y="671"/>
      <point x="486" y="618"/>
      <point x="456" y="562"/>
      <point x="434" y="471"/>
      <point x="434" y="414" type="qcurve"/>
    </contour>
    <contour>
      <point x="317" y="0" type="line"/>
      <point x="317" y="219" type="line"/>
      <point x="438" y="219" type="line"/>
      <point x="438" y="0" type="line"/>
    </contour>
  </outline>
</glyph>
<glyph name="at" format="2">
  <advance width="1714"/>
  <unicode hex="0040"/>
  <outline>
    <contour>
      <point x="1599" y="455" type="qcurve" smooth="yes"/>
      <point x="1599" y="424"/>
      <point x="1595" y="358"/>
      <point x="1580" y="257"/>
      <point x="1556" y="169"/>
      <point x="1510" y="76"/>
      <point x="1450" y="10"/>
      <point x="1357" y="-33"/>
      <point x="1300" y="-33" type="qcurve" smooth="yes"/>
      <point x="1251" y="-33"/>
      <point x="1184" y="-3"/>
      <point x="1148" y="55"/>
      <point x="1132" y="114"/>
      <point x="1128" y="156" type="qcurve"/>
      <point x="1067" y="92"/>
      <point x="884" y="10"/>
      <point x="782" y="10" type="qcurve" smooth="yes"/>
      <point x="640" y="10"/>
      <point x="475" y="163"/>
      <point x="475" y="285" type="qcurve" smooth="yes"/>
      <point x="475" y="345"/>
      <point x="520" y="442"/>
      <point x="593" y="502"/>
      <point x="693" y="543"/>
      <point x="797" y="559"/>
      <point x="854" y="559" type="qcurve" smooth="yes"/>
      <point x="982" y="559"/>
      <point x="1114" y="512" type="qcurve"/>
      <point x="1114" y="589"/>
      <point x="1090" y="704"/>
      <point x="1035" y="795"/>
      <point x="933" y="842"/>
      <point x="860" y="842" type="qcurve" smooth="yes"/>
      <point x="705" y="842"/>
      <point x="573" y="745" type="qcurve"/>
      <point x="537" y="825" type="line"/>
      <point x="696" y="932"/>
      <point x="872" y="932" type="qcurve" smooth="yes"/>
      <point x="935" y="932"/>
      <point x="1036" y="905"/>
      <point x="1105" y="862"/>
      <point x="1156" y="795"/>
      <point x="1184" y="726"/>
      <point x="1201" y="636"/>
      <point x="1206" y="560"/>
      <point x="1206" y="512" type="qcurve" smooth="yes"/>
      <point x="1206" y="248" type="line" smooth="yes"/>
      <point x="1206" y="197"/>
      <point x="1213" y="131"/>
      <point x="1235" y="71"/>
      <point x="1279" y="43"/>
      <point x="1313" y="43" type="qcurve" smooth="yes"/>
      <point x="1362" y="43"/>
      <point x="1439" y="101"/>
      <point x="1485" y="190"/>
      <point x="1515" y="306"/>
      <point x="1526" y="410"/>
      <point x="1526" y="459" type="qcurve" smooth="yes"/>
      <point x="1526" y="654"/>
      <point x="1350" y="978"/>
      <point x="1040" y="1165"/>
      <point x="852" y="1165" type="qcurve" smooth="yes"/>
      <point x="667" y="1165"/>
      <point x="355" y="988"/>
      <point x="170" y="668"/>
      <point x="170" y="471" type="qcurve" smooth="yes"/>
      <point x="170" y="279"/>
      <point x="344" y="-42"/>
      <point x="653" y="-229"/>
      <point x="842" y="-229" type="qcurve" smooth="yes"/>
      <point x="998" y="-229"/>
      <point x="1155" y="-152" type="qcurve"/>
      <point x="1182" y="-217" type="line"/>
      <point x="1017" y="-299"/>
      <point x="840" y="-299" type="qcurve" smooth="yes"/>
      <point x="689" y="-299"/>
      <point x="415" y="-182"/>
      <point x="214" y="20"/>
      <point x="96" y="308"/>
      <point x="96" y="471" type="qcurve" smooth="yes"/>
      <point x="96" y="640"/>
      <point x="222" y="930"/>
      <point x="432" y="1125"/>
      <point x="706" y="1235"/>
      <point x="854" y="1235" type="qcurve" smooth="yes"/>
      <point x="1004" y="1235"/>
      <point x="1276" y="1121"/>
      <point x="1479" y="919"/>
      <point x="1599" y="625"/>
    </contour>
    <contour>
      <point x="1112" y="352" type="qcurve" smooth="yes"/>
      <point x="1112" y="434" type="line"/>
      <point x="1103" y="435"/>
      <point x="1021" y="459"/>
      <point x="908" y="479"/>
      <point x="850" y="479" type="qcurve" smooth="yes"/>
      <point x="793" y="479"/>
      <point x="697" y="460"/>
      <point x="616" y="418"/>
      <point x="569" y="341"/>
      <point x="569" y="289" type="qcurve" smooth="yes"/>
      <point x="569" y="205"/>
      <point x="692" y="98"/>
      <point x="788" y="98" type="qcurve" smooth="yes"/>
      <point x="887" y="98"/>
      <point x="979" y="143" type="qcurve" smooth="yes"/>
      <point x="1057" y="179"/>
      <point x="1112" y="284"/>
    </contour>
  </outline>
</glyph>
<glyph name="D" format="2">
  <advance width="1464"/>
  <unicode hex="0044"/>
  <anchor x="0" y="0" name="Anchor-11"/>
  <anchor x="731" y="727" name="Anchor-10"/>
  <anchor x="705" y="1450" name="Anchor-9"/>
  <anchor x="0" y="0" name="Anchor-8"/>
  <anchor x="733" y="0" name="Anchor-7"/>
  <outline>
    <contour>
      <point x="182" y="0" type="line"/>
      <point x="182" y="1454" type="line"/>
      <point x="676" y="1454" type="line" smooth="yes"/>
      <point x="812" y="1454"/>
      <point x="1040" y="1380"/>
      <point x="1203" y="1248"/>
      <point x="1317" y="1067"/>
      <point x="1372" y="850"/>
      <point x="1372" y="729" type="qcurve" smooth="yes"/>
      <point x="1372" y="398"/>
      <point x="993" y="0"/>
      <point x="676" y="0" type="qcurve" smooth="yes"/>
    </contour>
    <contour>
      <point x="676" y="1327" type="qcurve" smooth="yes"/>
      <point x="326" y="1327" type="line"/>
      <point x="326" y="127" type="line"/>
      <point x="676" y="127" type="line" smooth="yes"/>
      <point x="851" y="127"/>
      <point x="1105" y="287"/>
      <point x="1229" y="556"/>
      <point x="1229" y="729" type="qcurve" smooth="yes"/>
      <point x="1229" y="996"/>
      <point x="936" y="1327"/>
    </contour>
  </outline>
</glyph>
<glyph name="F" format="2">
  <advance width="1206"/>
  <unicode hex="0046"/>
  <outline>
    <contour>
      <point x="182" y="0" type="line"/>
      <point x="182" y="1454" type="line"/>
      <point x="1137" y="1454" type="line"/>
      <point x="1137" y="1327" type="line"/>
      <point x="326" y="1327" type="line"/>
      <point x="326" y="793" type="line"/>
      <point x="1010" y="793" type="line"/>
      <point x="1010" y="674" type="line"/>
      <point x="326" y="674" type="line"/>
      <point x="326" y="0" type="line"/>
    </contour>
  </outline>
</glyph>
<glyph name="H" format="2">
  <advance width="1511"/>
  <unicode hex="0048"/>
  <anchor x="0" y="0" name="Anchor-11"/>
  <anchor x="758" y="727" name="Anchor-10"/>
  <anchor x="760" y="1450" name="Anchor-9"/>
  <anchor x="0" y="0" name="Anchor-8"/>
  <anchor x="758" y="0" name="Anchor-7"/>
  <outline>
    <contour>
      <point x="1329" y="1454" type="line"/>
      <point x="1329" y="0" type="line"/>
      <point x="1188" y="0" type="line"/>
      <point x="1188" y="680" type="line"/>
      <point x="326" y="680" type="line"/>
      <point x="326" y="0" type="line"/>
      <point x="182" y="0" type="line"/>
      <point x="182" y="1454" type="line"/>
      <point x="326" y="1454" type="line"/>
      <point x="326" y="807" type="line"/>
      <point x="1188" y="807" type="line"/>
      <point x="1188" y="1454" type="line"/>
    </contour>
  </outline>
</glyph>
<glyph name="K" format="2">
  <advance width="1316"/>
  <unicode hex="004B"/>
  <anchor x="0" y="0" name="Anchor-11"/>
  <anchor x="0" y="0" name="Anchor-10"/>
  <anchor x="0" y="0" name="Anchor-9"/>
  <anchor x="0" y="0" name="Anchor-8"/>
  <anchor x="678" y="0" name="Anchor-7"/>
  <outline>
    <contour>
      <point x="182" y="0" type="line"/>
      <point x="182" y="1452" type="line"/>
      <point x="326" y="1452" type="line"/>
      <point x="326" y="608" type="line"/>
      <point x="1126" y="1454" type="line"/>
      <point x="1284" y="1454" type="line"/>
      <point x="690" y="815" type="line"/>
      <point x="1315" y="0" type="line"/>
      <point x="1153" y="0" type="line"/>
      <point x="598" y="729" type="line"/>
      <point x="326" y="446" type="line"/>
      <point x="326" y="0" type="line"/>
    </contour>
  </outline>
</glyph>
<glyph name="M" format="2">
  <advance width="1796"/>
  <unicode hex="004D"/>
  <anchor x="0" y="0" name="Anchor-11"/>
  <anchor x="0" y="0" name="Anchor-10"/>
  <anchor x="897" y="1454" name="Anchor-9"/>
  <anchor x="0" y="0" name="Anchor-8"/>
  <anchor x="897" y="0" name="Anchor-7"/>
  <outline>
    <contour>
      <point x="1470" y="0" type="line"/>
      <point x="1470" y="1184" type="line"/>
      <point x="944" y="264" type="line"/>
      <point x="854" y="264" type="line"/>
      <point x="326" y="1184" type="line"/>
      <point x="326" y="0" type="line"/>
      <point x="182" y="0" type="line"/>
      <point x="182" y="1454" type="line"/>
      <point x="330" y="1454" type="line"/>
      <point x="897" y="459" type="line"/>
      <point x="1468" y="1454" type="line"/>
      <point x="1614" y="1454" type="line"/>
      <point x="1614" y="0" type="line"/>
    </contour>
  </outline>
</glyph>
<glyph name="N" format="2">
  <advance width="1581"/>
  <unicode hex="004E"/>
  <anchor x="0" y="0" name="Anchor-11"/>
  <anchor x="0" y="0" name="Anchor-10"/>
  <anchor x="797" y="1450" name="Anchor-9"/>
  <anchor x="0" y="0" name="Anchor-8"/>
  <anchor x="797" y="0" name="Anchor-7"/>
  <outline>
    <contour>
      <point x="326" y="1190" type="line"/>
      <point x="326" y="0" type="line"/>
      <point x="182" y="0" type="line"/>
      <point x="182" y="1454" type="line"/>
      <point x="301" y="1454" type="line"/>
      <point x="1255" y="242" type="line"/>
      <point x="1255" y="1452" type="line"/>
      <point x="1399" y="1452" type="line"/>
      <point x="1399" y="0" type="line"/>
      <point x="1266" y="0" type="line"/>
    </contour>
  </outline>
</glyph>
<glyph name="P" format="2">
  <advance width="1273"/>
  <unicode hex="0050"/>
  <outline>
    <contour>
      <point x="182" y="0" type="line"/>
      <point x="182" y="1454" type="line"/>
      <point x="784" y="1454" type="line" smooth="yes"/>
      <point x="904" y="1454"/>
      <point x="1107" y="1319"/>
      <point x="1217" y="1110"/>
      <point x="1217" y="997" type="qcurve" smooth="yes"/>
      <point x="1217" y="877"/>
      <point x="1113" y="668"/>
      <point x="918" y="537"/>
      <point x="797" y="537" type="qcurve" smooth="yes"/>
      <point x="326" y="537" type="line"/>
      <point x="326" y="0" type="line"/>
    </contour>
    <contour>
      <point x="326" y="664" type="line"/>
      <point x="791" y="664" type="line" smooth="yes"/>
      <point x="916" y="664"/>
      <point x="1073" y="860"/>
      <point x="1073" y="997" type="qcurve" smooth="yes"/>
      <point x="1073" y="1133"/>
      <point x="898" y="1327"/>
      <point x="778" y="1327" type="qcurve" smooth="yes"/>
      <point x="326" y="1327" type="line"/>
    </contour>
  </outline>
</glyph>
<glyph name="T" format="2">
  <advance width="1249"/>
  <unicode hex="0054"/>
  <anchor x="0" y="0" name="Anchor-11"/>
  <anchor x="0" y="0" name="Anchor-10"/>
  <anchor x="629" y="1450" name="Anchor-9"/>
  <anchor x="0" y="0" name="Anchor-8"/>
  <anchor x="629" y="0" name="Anchor-7"/>
  <outline>
    <contour>
      <point x="1214" y="1327" type="line"/>
      <point x="696" y="1327" type="line"/>
      <point x="696" y="0" type="line"/>
      <point x="553" y="0" type="line"/>
      <point x="553" y="1327" type="line"/>
      <point x="35" y="1327" type="line"/>
      <point x="35" y="1454" type="line"/>
      <point x="1214" y="1454" type="line"/>
    </contour>
  </outline>
</glyph>
<glyph name="V" format="2">
  <advance width="1390"/>
  <unicode hex="0056"/>
  <outline>
    <contour>
      <point x="176" y="1454" type="line"/>
      <point x="696" y="178" type="line"/>
      <point x="1214" y="1454" type="line"/>
      <point x="1364" y="1454" type="line"/>
      <point x="762" y="0" type="line"/>
      <point x="631" y="0" type="line"/>
      <point x="27" y="1454" type="line"/>
    </contour>
  </outline>
</glyph>
<glyph name="Y" format="2">
  <advance width="1333"/>
  <unicode hex="0059"/>
  <anchor x="0" y="0" name="Anchor-11"/>
  <anchor x="0" y="0" name="Anchor-10"/>
  <anchor x="666" y="1450" name="Anchor-9"/>
  <anchor x="0" y="0" name="Anchor-8"/>
  <anchor x="668" y="0" name="Anchor-7"/>
  <outline>
    <contour>
      <point x="190" y="1454" type="line"/>
      <point x="666" y="672" type="line"/>
      <point x="1145" y="1454" type="line"/>
      <point x="1300" y="1454" type="line"/>
      <point x="737" y="541" type="line"/>
      <point x="737" y="0" type="line"/>
      <point x="594" y="0" type="line"/>
      <point x="594" y="545" type="line"/>
      <point x="33" y="1454" type="line"/>
    </contour>
  </outline>
</glyph>
<glyph name="bracketleft" format="2">
  <advance width="528"/>
  <unicode hex="005B"/>
  <outline>
    <contour>
      <point x="180" y="-82" type="line"/>
      <point x="180" y="1516" type="line"/>
      <point x="424" y="1516" type="line"/>
      <point x="424" y="1399" type="line"/>
      <point x="311" y="1399" type="line"/>
      <point x="311" y="35" type="line"/>
      <point x="424" y="35" type="line"/>
      <point x="424" y="-82" type="line"/>
    </contour>
  </outline>
</glyph>
<glyph name="backslash" format="2">
  <advance width="1163"/>
  <unicode hex="005C"/>
  <outline>
    <contour>
      <point x="215" y="1454" type="line"/>
      <point x="1106" y="0" type="line"/>
      <point x="950" y="0" type="line"/>
      <point x="57" y="1454" type="line"/>
    </contour>
  </outline>
</glyph>
<glyph name="bracketright" format="2">
  <advance width="528"/>
  <unicode hex="005D"/>
  <outline>
    <contour>
      <point x="102" y="-82" type="line"/>
      <point x="102" y="35" type="line"/>
      <point x="217" y="35" type="line"/>
      <point x="217" y="1399" type="line"/>
      <point x="102" y="1399" type="line"/>
      <point x="102" y="1516" type="line"/>
      <point x="348" y="1516" type="line"/>
      <point x="348" y="-82" type="line"/>
    </contour>
  </outline>
</glyph>
<glyph name="asciicircum" format="2">
  <advance width="1103"/>
  <unicode hex="005E"/>
  <outline>
    <contour>
      <point x="88" y="621" type="line"/>
      <point x="494" y="1454" type="line"/>
      <point x="612" y="1454" type="line"/>
      <point x="1016" y="621" type="line"/>
      <point x="893" y="621" type="line"/>
      <point x="553" y="1323" type="line"/>
      <point x="207" y="621" type="line"/>
    </contour>
  </outline>
</glyph>
<glyph name="underscore" format="2">
  <advance width="1046"/>
  <unicode hex="005F"/>
  <outline>
    <contour>
      <point x="133" y="-127" type="line"/>
      <point x="133" y="0" type="line"/>
      <point x="913" y="0" type="line"/>
      <point x="913" y="-127" type="line"/>
    </contour>
  </outline>
</glyph>
<glyph name="grave" format="2">
  <advance width="454"/>
  <unicode hex="0060"/>
  <outline>
    <contour>
      <point x="100" y="1495" type="line"/>
      <point x="246" y="1495" type="line"/>
      <point x="369" y="1305" type="line"/>
      <point x="279" y="1270" type="line"/>
    </contour>
  </outline>
</glyph>
<glyph name="b" format="2">
  <advance width="1263"/>
  <unicode hex="0062"/>
  <outline>
    <contour>
      <point x="279" y="207" type="qcurve"/>
      <point x="279" y="0" type="line"/>
      <point x="154" y="0" type="line"/>
      <point x="154" y="1495" type="line"/>
      <point x="293" y="1495" type="line"/>
      <point x="293" y="844" type="line"/>
      <point x="451" y="1085"/>
      <point x="698" y="1085" type="qcurve" smooth="yes"/>
      <point x="806" y="1085"/>
      <point x="992" y="990"/>
      <point x="1114" y="834"/>
      <point x="1182" y="635"/>
      <point x="1182" y="530" type="qcurve" smooth="yes"/>
      <point x="1182" y="382"/>
      <point x="1050" y="130"/>
      <point x="816" y="-20"/>
      <point x="676" y="-20" type="qcurve" smooth="yes"/>
      <point x="553" y="-20"/>
      <point x="340" y="105"/>
    </contour>
    <contour>
      <point x="1040" y="530" type="qcurve" smooth="yes"/>
      <point x="1040" y="642"/>
      <point x="945" y="839"/>
      <point x="768" y="963"/>
      <point x="659" y="963" type="qcurve" smooth="yes"/>
      <point x="540" y="963"/>
      <point x="348" y="812"/>
      <point x="293" y="696" type="qcurve"/>
      <point x="293" y="365" type="line"/>
      <point x="303" y="295"/>
      <point x="419" y="171"/>
      <point x="573" y="102"/>
      <point x="643" y="102" type="qcurve" smooth="yes"/>
      <point x="756" y="102"/>
      <point x="940" y="225"/>
      <point x="1040" y="420"/>
    </contour>
  </outline>
</glyph>
<glyph name="d" format="2">
  <advance width="1273"/>
  <unicode hex="0064"/>
  <anchor x="1204" y="1067" name="Anchor-11"/>
  <anchor x="637" y="535" name="Anchor-10"/>
  <anchor x="637" y="1067" name="Anchor-9"/>
  <anchor x="0" y="0" name="Anchor-8"/>
  <anchor x="637" y="0" name="Anchor-7"/>
  <outline>
    <contour>
      <point x="82" y="530" type="qcurve" smooth="yes"/>
      <point x="82" y="680"/>
      <point x="206" y="933"/>
      <point x="431" y="1085"/>
      <point x="569" y="1085" type="qcurve" smooth="yes"/>
      <point x="696" y="1085"/>
      <point x="909" y="950"/>
      <point x="973" y="844" type="qcurve"/>
      <point x="973" y="1495" type="line"/>
      <point x="1112" y="1495" type="line"/>
      <point x="1112" y="168" type="line" smooth="yes"/>
      <point x="1112" y="139"/>
      <point x="1135" y="113"/>
      <point x="1161" y="111" type="qcurve"/>
      <point x="1161" y="0" type="line"/>
      <point x="1117" y="-6"/>
      <point x="1098" y="-4" type="qcurve" smooth="yes"/>
      <point x="1054" y="-1"/>
      <point x="989" y="62"/>
      <point x="989" y="102" type="qcurve" smooth="yes"/>
      <point x="989" y="207" type="line"/>
      <point x="926" y="103"/>
      <point x="710" y="-20"/>
      <point x="592" y="-20" type="qcurve" smooth="yes"/>
      <point x="484" y="-20"/>
      <point x="291" y="71"/>
      <point x="159" y="223"/>
      <point x="82" y="423"/>
    </contour>
    <contour>
      <point x="973" y="367" type="qcurve"/>
      <point x="973" y="696" type="line"/>
      <point x="933" y="806"/>
      <point x="715" y="963"/>
      <point x="604" y="963" type="qcurve" smooth="yes"/>
      <point x="494" y="963"/>
      <point x="317" y="837"/>
      <point x="225" y="641"/>
      <point x="225" y="530" type="qcurve" smooth="yes"/>
      <point x="225" y="416"/>
      <point x="330" y="219"/>
      <point x="514" y="102"/>
      <point x="732" y="102"/>
      <point x="956" y="262"/>
    </contour>
  </outline>
</glyph>
<glyph name="f" format="2">
  <advance width="675"/>
  <unicode hex="0066"/>
  <outline>
    <contour>
      <point x="205" y="0" type="line"/>
      <point x="205" y="956" type="line"/>
      <point x="57" y="956" type="line"/>
      <point x="57" y="1067" type="line"/>
      <point x="205" y="1067" type="line"/>
      <point x="205" y="1096" type="line" smooth="yes"/>
      <point x="205" y="1291"/>
      <point x="373" y="1516"/>
      <point x="518" y="1516" type="qcurve" smooth="yes"/>
      <point x="648" y="1516"/>
      <point x="743" y="1448" type="qcurve"/>
      <point x="700" y="1348" type="line"/>
      <point x="640" y="1395"/>
      <point x="545" y="1395" type="qcurve" smooth="yes"/>
      <point x="448" y="1395"/>
      <point x="344" y="1242"/>
      <point x="344" y="1100" type="qcurve" smooth="yes"/>
      <point x="344" y="1067" type="line"/>
      <point x="639" y="1067" type="line"/>
      <point x="639" y="956" type="line"/>
      <point x="344" y="956" type="line"/>
      <point x="344" y="0" type="line"/>
    </contour>
  </outline>
</glyph>
<glyph name="g" format="2">
  <advance width="1265"/>
  <unicode hex="0067"/>
  <anchor x="0" y="0" name="Anchor-11"/>
  <anchor x="0" y="0" name="Anchor-10"/>
  <anchor x="616" y="1067" name="Anchor-9"/>
  <anchor x="0" y="0" name="Anchor-8"/>
  <anchor x="0" y="0" name="Anchor-7"/>
  <outline>
    <contour>
      <point x="82" y="530" type="qcurve" smooth="yes"/>
      <point x="82" y="678"/>
      <point x="206" y="931"/>
      <point x="435" y="1085"/>
      <point x="578" y="1085" type="qcurve" smooth="yes"/>
      <point x="822" y="1085"/>
      <point x="987" y="844" type="qcurve"/>
      <point x="987" y="1067" type="line"/>
      <point x="1112" y="1067" type="line"/>
      <point x="1112" y="-4" type="line" smooth="yes"/>
      <point x="1112" y="-148"/>
      <point x="968" y="-357"/>
      <point x="735" y="-457"/>
      <point x="590" y="-457" type="qcurve" smooth="yes"/>
      <point x="414" y="-457"/>
      <point x="186" y="-333"/>
      <point x="111" y="-215" type="qcurve"/>
      <point x="197" y="-147" type="line"/>
      <point x="258" y="-245"/>
      <point x="466" y="-346"/>
      <point x="590" y="-346" type="qcurve" smooth="yes"/>
      <point x="669" y="-346"/>
      <point x="806" y="-303"/>
      <point x="912" y="-220"/>
      <point x="973" y="-87"/>
      <point x="973" y="-4" type="qcurve" smooth="yes"/>
      <point x="973" y="207" type="line"/>
      <point x="912" y="106"/>
      <point x="698" y="-14"/>
      <point x="582" y="-14" type="qcurve" smooth="yes"/>
      <point x="440" y="-14"/>
      <point x="208" y="141"/>
      <point x="82" y="389"/>
    </contour>
    <contour>
      <point x="973" y="367" type="qcurve"/>
      <point x="973" y="696" type="line"/>
      <point x="929" y="812"/>
      <point x="719" y="963"/>
      <point x="604" y="963" type="qcurve" smooth="yes"/>
      <point x="490" y="963"/>
      <point x="312" y="832"/>
      <point x="223" y="636"/>
      <point x="223" y="528" type="qcurve" smooth="yes"/>
      <point x="223" y="415"/>
      <point x="329" y="219"/>
      <point x="513" y="102"/>
      <point x="621" y="102" type="qcurve" smooth="yes"/>
      <point x="743" y="102"/>
      <point x="954" y="266"/>
    </contour>
  </outline>
</glyph>
<glyph name="i" format="2">
  <advance width="446"/>
  <unicode hex="0069"/>
  <anchor x="0" y="0" name="Anchor-11"/>
  <anchor x="0" y="0" name="Anchor-10"/>
  <anchor x="0" y="0" name="Anchor-9"/>
  <anchor x="293" y="0" name="Anchor-8"/>
  <anchor x="223" y="0" name="Anchor-7"/>
  <outline>
    <contour>
      <point x="154" y="1290" type="line"/>
      <point x="154" y="1495" type="line"/>
      <point x="293" y="1495" type="line"/>
      <point x="293" y="1290" type="line"/>
    </contour>
    <contour>
      <point x="154" y="0" type="line"/>
      <point x="154" y="1067" type="line"/>
      <point x="293" y="1067" type="line"/>
      <point x="293" y="0" type="line"/>
    </contour>
  </outline>
</glyph>
<glyph name="j" format="2">
  <advance width="460"/>
  <unicode hex="006A"/>
  <outline>
    <contour>
      <point x="168" y="1290" type="line"/>
      <point x="168" y="1495" type="line"/>
      <point x="307" y="1495" type="line"/>
      <point x="307" y="1290" type="line"/>
    </contour>
    <contour>
      <point x="-240" y="-291" type="qcurve"/>
      <point x="-172" y="-197" type="line"/>
      <point x="-118" y="-246"/>
      <point x="-23" y="-246" type="qcurve" smooth="yes"/>
      <point x="51" y="-246"/>
      <point x="168" y="-135"/>
      <point x="168" y="-55" type="qcurve" smooth="yes"/>
      <point x="168" y="1067" type="line"/>
      <point x="307" y="1067" type="line"/>
      <point x="307" y="-47" type="line" smooth="yes"/>
      <point x="307" y="-184"/>
      <point x="118" y="-371"/>
      <point x="-6" y="-371" type="qcurve" smooth="yes"/>
      <point x="-154" y="-371"/>
    </contour>
  </outline>
</glyph>
<glyph name="p" format="2">
  <advance width="1263"/>
  <unicode hex="0070"/>
  <outline>
    <contour>
      <point x="293" y="221" type="qcurve"/>
      <point x="293" y="-436" type="line"/>
      <point x="154" y="-436" type="line"/>
      <point x="154" y="1067" type="line"/>
      <point x="279" y="1067" type="line"/>
      <point x="279" y="860" type="line"/>
      <point x="345" y="962"/>
      <point x="557" y="1085"/>
      <point x="676" y="1085" type="qcurve" smooth="yes"/>
      <point x="818" y="1085"/>
      <point x="1053" y="927"/>
      <point x="1182" y="674"/>
      <point x="1182" y="532" type="qcurve" smooth="yes"/>
      <point x="1182" y="382"/>
      <point x="1061" y="130"/>
      <point x="838" y="-20"/>
      <point x="698" y="-20" type="qcurve" smooth="yes"/>
      <point x="570" y="-20"/>
      <point x="359" y="113"/>
    </contour>
    <contour>
      <point x="1040" y="532" type="qcurve" smooth="yes"/>
      <point x="1040" y="706"/>
      <point x="808" y="963"/>
      <point x="643" y="963" type="qcurve" smooth="yes"/>
      <point x="573" y="963"/>
      <point x="419" y="892"/>
      <point x="303" y="766"/>
      <point x="293" y="698" type="qcurve"/>
      <point x="293" y="371" type="line"/>
      <point x="341" y="254"/>
      <point x="543" y="102"/>
      <point x="659" y="102" type="qcurve" smooth="yes"/>
      <point x="770" y="102"/>
      <point x="948" y="227"/>
      <point x="1040" y="422"/>
    </contour>
  </outline>
</glyph>
<glyph name="v" format="2">
  <advance width="1091"/>
  <unicode hex="0076"/>
  <outline>
    <contour>
      <point x="471" y="0" type="line"/>
      <point x="39" y="1067" type="line"/>
      <point x="184" y="1067" type="line"/>
      <point x="549" y="139" type="line"/>
      <point x="915" y="1067" type="line"/>
      <point x="1053" y="1067" type="line"/>
      <point x="621" y="0" type="line"/>
    </contour>
  </outline>
</glyph>
<glyph name="w" format="2">
  <advance width="1665"/>
  <unicode hex="0077"/>
  <anchor x="0" y="0" name="Anchor-11"/>
  <anchor x="0" y="0" name="Anchor-10"/>
  <anchor x="831" y="1067" name="Anchor-9"/>
  <anchor x="0" y="0" name="Anchor-8"/>
  <anchor x="0" y="0" name="Anchor-7"/>
  <outline>
    <contour>
      <point x="1497" y="1067" type="line"/>
      <point x="1634" y="1067" type="line"/>
      <point x="1176" y="0" type="line"/>
      <point x="1055" y="0" type="line"/>
      <point x="831" y="530" type="line"/>
      <point x="610" y="0" type="line"/>
      <point x="489" y="0" type="line"/>
      <point x="31" y="1067" type="line"/>
      <point x="166" y="1067" type="line"/>
      <point x="555" y="143" type="line"/>
      <point x="752" y="625" type="line"/>
      <point x="571" y="1065" type="line"/>
      <point x="696" y="1065" type="line"/>
      <point x="831" y="719" type="line"/>
      <point x="969" y="1065" type="line"/>
      <point x="1092" y="1065" type="line"/>
      <point x="913" y="625" type="line"/>
      <point x="1110" y="143" type="line"/>
    </contour>
  </outline>
</glyph>
<glyph name="x" format="2">
  <advance width="1032"/>
  <unicode hex="0078"/>
  <outline>
    <contour>
      <point x="186" y="1067" type="line"/>
      <point x="500" y="649" type="line"/>
      <point x="516" y="618" type="line"/>
      <point x="532" y="649" type="line"/>
      <point x="844" y="1067" type="line"/>
      <point x="1001" y="1067" type="line"/>
      <point x="596" y="530" type="line"/>
      <point x="1001" y="0" type="line"/>
      <point x="844" y="0" type="line"/>
      <point x="532" y="416" type="line"/>
      <point x="516" y="444" type="line"/>
      <point x="500" y="416" type="line"/>
      <point x="188" y="0" type="line"/>
      <point x="31" y="0" type="line"/>
      <point x="434" y="530" type="line"/>
      <point x="31" y="1067" type="line"/>
    </contour>
  </outline>
</glyph>
<glyph name="y" format="2">
  <advance width="1110"/>
  <unicode hex="0079"/>
  <anchor x="0" y="0" name="Anchor-11"/>
  <anchor x="0" y="0" name="Anchor-10"/>
  <anchor x="569" y="1067" name="Anchor-9"/>
  <anchor x="0" y="0" name="Anchor-8"/>
  <anchor x="766" y="0" name="Anchor-7"/>
  <outline>
    <contour>
      <point x="215" y="-328" type="line"/>
      <point x="292" y="-332"/>
      <point x="309" y="-328" type="qcurve" smooth="yes"/>
      <point x="346" y="-324"/>
      <point x="411" y="-209"/>
      <point x="496" y="0" type="qcurve"/>
      <point x="31" y="1067" type="line"/>
      <point x="178" y="1067" type="line"/>
      <point x="569" y="143" type="line"/>
      <point x="930" y="1067" type="line"/>
      <point x="1069" y="1067" type="line"/>
      <point x="516" y="-309" type="line" smooth="yes"/>
      <point x="460" y="-454"/>
      <point x="299" y="-457" type="qcurve" smooth="yes"/>
      <point x="258" y="-460"/>
      <point x="215" y="-453" type="qcurve"/>
    </contour>
  </outline>
</glyph>
<glyph name="z" format="2">
  <advance width="1007"/>
  <unicode hex="007A"/>
  <anchor x="0" y="0" name="Anchor-11"/>
  <anchor x="0" y="0" name="Anchor-10"/>
  <anchor x="522" y="1067" name="Anchor-9"/>
  <anchor x="0" y="0" name="Anchor-8"/>
  <anchor x="504" y="0" name="Anchor-7"/>
  <outline>
    <contour>
      <point x="63" y="94" type="line"/>
      <point x="778" y="963" type="line"/>
      <point x="80" y="963" type="line"/>
      <point x="80" y="1067" type="line"/>
      <point x="936" y="1067" type="line"/>
      <point x="936" y="973" type="line"/>
      <point x="225" y="104" type="line"/>
      <point x="934" y="104" type="line"/>
      <point x="934" y="0" type="line"/>
      <point x="63" y="0" type="line"/>
    </contour>
  </outline>
</glyph>
<glyph name="braceleft" format="2">
  <advance width="530"/>
  <unicode hex="007B"/>
  <outline>
    <contour>
      <point x="315" y="1399" type="line"/>
      <point x="315" y="864" type="line" smooth="yes"/>
      <point x="315" y="787"/>
      <point x="260" y="737" type="qcurve"/>
      <point x="289" y="712"/>
      <point x="315" y="640"/>
      <point x="315" y="610" type="qcurve" smooth="yes"/>
      <point x="315" y="53" type="line"/>
      <point x="428" y="53" type="line"/>
      <point x="428" y="-63" type="line"/>
      <point x="236" y="-63" type="line" smooth="yes"/>
      <point x="216" y="-63"/>
      <point x="188" y="-34"/>
      <point x="188" y="-2" type="qcurve" smooth="yes"/>
      <point x="188" y="573" type="line" smooth="yes"/>
      <point x="188" y="615"/>
      <point x="145" y="682"/>
      <point x="109" y="686" type="qcurve"/>
      <point x="109" y="793" type="line"/>
      <point x="147" y="793"/>
      <point x="188" y="866"/>
      <point x="188" y="901" type="qcurve" smooth="yes"/>
      <point x="188" y="1454" type="line" smooth="yes"/>
      <point x="188" y="1487"/>
      <point x="220" y="1516"/>
      <point x="236" y="1516" type="qcurve" smooth="yes"/>
      <point x="428" y="1516" type="line"/>
      <point x="428" y="1399" type="line"/>
    </contour>
  </outline>
</glyph>
<glyph name="braceright" format="2">
  <advance width="530"/>
  <unicode hex="007D"/>
  <outline>
    <contour>
      <point x="102" y="1399" type="line"/>
      <point x="102" y="1516" type="line"/>
      <point x="295" y="1516" type="line" smooth="yes"/>
      <point x="310" y="1516"/>
      <point x="342" y="1487"/>
      <point x="342" y="1454" type="qcurve" smooth="yes"/>
      <point x="342" y="901" type="line" smooth="yes"/>
      <point x="342" y="866"/>
      <point x="382" y="793"/>
      <point x="420" y="793" type="qcurve"/>
      <point x="420" y="686" type="line"/>
      <point x="384" y="682"/>
      <point x="342" y="616"/>
      <point x="342" y="573" type="qcurve" smooth="yes"/>
      <point x="342" y="-2" type="line" smooth="yes"/>
      <point x="342" y="-34"/>
      <point x="313" y="-63"/>
      <point x="295" y="-63" type="qcurve" smooth="yes"/>
      <point x="102" y="-63" type="line"/>
      <point x="102" y="53" type="line"/>
      <point x="215" y="53" type="line"/>
      <point x="215" y="610" type="line" smooth="yes"/>
      <point x="215" y="691"/>
      <point x="268" y="737" type="qcurve"/>
      <point x="215" y="785"/>
      <point x="215" y="864" type="qcurve" smooth="yes"/>
      <point x="215" y="1399" type="line"/>
    </contour>
  </outline>
</glyph>
<glyph name="asciitilde" format="2">
  <advance width="1046"/>
  <unicode hex="007E"/>
  <outline>
    <contour>
      <point x="356" y="705" type="qcurve" smooth="yes"/>
      <point x="398" y="705"/>
      <point x="490" y="668"/>
      <point x="558" y="623"/>
      <point x="646" y="586"/>
      <point x="684" y="586" type="qcurve" smooth="yes"/>
      <point x="713" y="586"/>
      <point x="763" y="606"/>
      <point x="794" y="635"/>
      <point x="816" y="666"/>
      <point x="825" y="688"/>
      <point x="825" y="692" type="qcurve"/>
      <point x="913" y="692" type="line"/>
      <point x="913" y="686"/>
      <point x="900" y="647"/>
      <point x="864" y="587"/>
      <point x="815" y="533"/>
      <point x="731" y="494"/>
      <point x="682" y="494" type="qcurve" smooth="yes"/>
      <point x="637" y="494"/>
      <point x="539" y="531"/>
      <point x="469" y="575"/>
      <point x="386" y="612"/>
      <point x="354" y="612" type="qcurve" smooth="yes"/>
      <point x="327" y="612"/>
      <point x="280" y="588"/>
      <point x="252" y="555"/>
      <point x="231" y="519"/>
      <point x="223" y="496"/>
      <point x="223" y="494" type="qcurve"/>
      <point x="135" y="494" type="line"/>
      <point x="135" y="504"/>
      <point x="149" y="549"/>
      <point x="184" y="611"/>
      <point x="232" y="666"/>
      <point x="310" y="705"/>
    </contour>
  </outline>
</glyph>
<glyph name="exclamdown" format="2">
  <advance width="514"/>
  <unicode hex="00A1"/>
  <outline>
    <contour>
      <point x="326" y="1464" type="line"/>
      <point x="326" y="1235" type="line"/>
      <point x="186" y="1235" type="line"/>
      <point x="186" y="1464" type="line"/>
    </contour>
    <contour>
      <point x="326" y="997" type="line"/>
      <point x="326" y="-4" type="line"/>
      <point x="186" y="-4" type="line"/>
      <point x="186" y="997" type="line"/>
    </contour>
  </outline>
</glyph>
<glyph name="cent" format="2">
  <advance width="1148"/>
  <unicode hex="00A2"/>
  <outline>
    <contour>
      <point x="565" y="-246" type="line"/>
      <point x="565" y="-18" type="line"/>
      <point x="430" y="-7"/>
      <point x="208" y="157"/>
      <point x="88" y="398"/>
      <point x="88" y="528" type="qcurve" smooth="yes"/>
      <point x="88" y="631"/>
      <point x="156" y="823"/>
      <point x="277" y="974"/>
      <point x="458" y="1073"/>
      <point x="565" y="1083" type="qcurve"/>
      <point x="565" y="1321" type="line"/>
      <point x="641" y="1321" type="line"/>
      <point x="641" y="1083" type="line"/>
      <point x="935" y="1074"/>
      <point x="1057" y="831" type="qcurve"/>
      <point x="924" y="788" type="line"/>
      <point x="833" y="948"/>
      <point x="641" y="958" type="qcurve"/>
      <point x="641" y="104" type="line"/>
      <point x="696" y="107"/>
      <point x="817" y="152"/>
      <point x="918" y="236"/>
      <point x="932" y="285" type="qcurve"/>
      <point x="1069" y="244" type="line"/>
      <point x="1038" y="161"/>
      <point x="886" y="36"/>
      <point x="719" y="-20"/>
      <point x="641" y="-20" type="qcurve"/>
      <point x="641" y="-246" type="line"/>
    </contour>
    <contour>
      <point x="565" y="111" type="qcurve"/>
      <point x="565" y="954" type="line"/>
      <point x="463" y="944"/>
      <point x="307" y="814"/>
      <point x="231" y="630"/>
      <point x="231" y="528" type="qcurve" smooth="yes"/>
      <point x="231" y="375"/>
      <point x="421" y="134"/>
    </contour>
  </outline>
</glyph>
<glyph name="sterling" format="2">
  <advance width="1021"/>
  <unicode hex="00A3"/>
  <outline>
    <contour>
      <point x="899" y="129" type="qcurve"/>
      <point x="934" y="23" type="line"/>
      <point x="826" y="-31"/>
      <point x="711" y="-31" type="qcurve" smooth="yes"/>
      <point x="650" y="-31"/>
      <point x="433" y="18"/>
      <point x="369" y="18" type="qcurve" smooth="yes"/>
      <point x="266" y="18"/>
      <point x="147" y="-16" type="qcurve"/>
      <point x="111" y="86" type="line"/>
      <point x="251" y="225"/>
      <point x="365" y="420"/>
      <point x="365" y="520" type="qcurve" smooth="yes"/>
      <point x="365" y="579"/>
      <point x="344" y="651" type="qcurve"/>
      <point x="106" y="651" type="line"/>
      <point x="106" y="762" type="line"/>
      <point x="299" y="762" type="line"/>
      <point x="285" y="791"/>
      <point x="223" y="903"/>
      <point x="190" y="969"/>
      <point x="160" y="1068"/>
      <point x="160" y="1114" type="qcurve" smooth="yes"/>
      <point x="160" y="1260"/>
      <point x="376" y="1464"/>
      <point x="530" y="1464" type="qcurve" smooth="yes"/>
      <point x="640" y="1464"/>
      <point x="840" y="1349"/>
      <point x="901" y="1249" type="qcurve"/>
      <point x="819" y="1163" type="line"/>
      <point x="769" y="1248"/>
      <point x="611" y="1348"/>
      <point x="526" y="1348" type="qcurve" smooth="yes"/>
      <point x="426" y="1348"/>
      <point x="289" y="1207"/>
      <point x="289" y="1106" type="qcurve" smooth="yes"/>
      <point x="289" y="1053"/>
      <point x="330" y="946"/>
      <point x="413" y="799"/>
      <point x="430" y="762" type="qcurve"/>
      <point x="795" y="762" type="line"/>
      <point x="795" y="651" type="line"/>
      <point x="471" y="651" type="line"/>
      <point x="487" y="589"/>
      <point x="487" y="528" type="qcurve" smooth="yes"/>
      <point x="487" y="425"/>
      <point x="392" y="236"/>
      <point x="276" y="111" type="qcurve"/>
      <point x="350" y="129"/>
      <point x="426" y="129" type="qcurve" smooth="yes"/>
      <point x="486" y="129"/>
      <point x="670" y="92"/>
      <point x="717" y="92" type="qcurve" smooth="yes"/>
      <point x="789" y="92"/>
    </contour>
  </outline>
</glyph>
<glyph name="currency" format="2">
  <advance width="1099"/>
  <unicode hex="00A4"/>
  <outline>
    <contour>
      <point x="319" y="983" type="line"/>
      <point x="412" y="1063"/>
      <point x="549" y="1063" type="qcurve" smooth="yes"/>
      <point x="677" y="1063"/>
      <point x="780" y="983" type="qcurve"/>
      <point x="924" y="1128" type="line"/>
      <point x="993" y="1061" type="line"/>
      <point x="846" y="913" type="line"/>
      <point x="918" y="815"/>
      <point x="918" y="688" type="qcurve" smooth="yes"/>
      <point x="918" y="562"/>
      <point x="844" y="463" type="qcurve"/>
      <point x="993" y="315" type="line"/>
      <point x="932" y="256" type="line"/>
      <point x="780" y="397" type="line"/>
      <point x="684" y="317"/>
      <point x="549" y="317" type="qcurve" smooth="yes"/>
      <point x="418" y="317"/>
      <point x="315" y="397" type="qcurve"/>
      <point x="170" y="256" type="line"/>
      <point x="109" y="315" type="line"/>
      <point x="254" y="461" type="line"/>
      <point x="180" y="565"/>
      <point x="180" y="688" type="qcurve" smooth="yes"/>
      <point x="180" y="818"/>
      <point x="252" y="915" type="qcurve"/>
      <point x="109" y="1061" type="line"/>
      <point x="176" y="1128" type="line"/>
    </contour>
    <contour>
      <point x="653" y="416"/>
      <point x="801" y="576"/>
      <point x="801" y="690" type="qcurve" smooth="yes"/>
      <point x="801" y="805"/>
      <point x="654" y="963"/>
      <point x="444" y="963"/>
      <point x="297" y="802"/>
      <point x="297" y="686" type="qcurve" smooth="yes"/>
      <point x="297" y="574"/>
      <point x="445" y="416"/>
    </contour>
  </outline>
</glyph>
<glyph name="yen" format="2">
  <advance width="1384"/>
  <unicode hex="00A5"/>
  <outline>
    <contour>
      <point x="885" y="750" type="line"/>
      <point x="1057" y="750" type="line"/>
      <point x="1057" y="651" type="line"/>
      <point x="829" y="651" type="line"/>
      <point x="762" y="541" type="line"/>
      <point x="762" y="485" type="line"/>
      <point x="1059" y="485" type="line"/>
      <point x="1059" y="387" type="line"/>
      <point x="762" y="387" type="line"/>
      <point x="762" y="0" type="line"/>
      <point x="618" y="0" type="line"/>
      <point x="618" y="387" type="line"/>
      <point x="326" y="387" type="line"/>
      <point x="326" y="485" type="line"/>
      <point x="618" y="485" type="line"/>
      <point x="618" y="545" type="line"/>
      <point x="555" y="651" type="line"/>
      <point x="326" y="651" type="line"/>
      <point x="326" y="750" type="line"/>
      <point x="502" y="750" type="line"/>
      <point x="59" y="1454" type="line"/>
      <point x="215" y="1454" type="line"/>
      <point x="690" y="672" type="line"/>
      <point x="1169" y="1454" type="line"/>
      <point x="1327" y="1454" type="line"/>
    </contour>
  </outline>
</glyph>
<glyph name="brokenbar" format="2">
  <advance width="479"/>
  <unicode hex="00A6"/>
  <outline>
    <contour>
      <point x="301" y="1587" type="line"/>
      <point x="301" y="754" type="line"/>
      <point x="178" y="754" type="line"/>
      <point x="178" y="1587" type="line"/>
    </contour>
    <contour>
      <point x="301" y="567" type="line"/>
      <point x="301" y="-266" type="line"/>
      <point x="178" y="-266" type="line"/>
      <point x="178" y="567" type="line"/>
    </contour>
  </outline>
</glyph>
<glyph name="section" format="2">
  <advance width="1036"/>
  <unicode hex="00A7"/>
  <outline>
    <contour>
      <point x="948" y="184" type="qcurve" smooth="yes"/>
      <point x="948" y="112"/>
      <point x="897" y="-11"/>
      <point x="813" y="-94"/>
      <point x="705" y="-153"/>
      <point x="591" y="-180"/>
      <point x="535" y="-180" type="qcurve" smooth="yes"/>
      <point x="309" y="-180"/>
      <point x="127" y="6" type="qcurve"/>
      <point x="219" y="92" type="line"/>
      <point x="364" y="-47"/>
      <point x="530" y="-47" type="qcurve" smooth="yes"/>
      <point x="637" y="-47"/>
      <point x="805" y="78"/>
      <point x="805" y="180" type="qcurve" smooth="yes"/>
      <point x="805" y="225"/>
      <point x="773" y="292"/>
      <point x="726" y="331"/>
      <point x="653" y="356"/>
      <point x="589" y="365"/>
      <point x="547" y="367" type="qcurve" smooth="yes"/>
      <point x="365" y="376"/>
      <point x="147" y="544"/>
      <point x="147" y="698" type="qcurve" smooth="yes"/>
      <point x="147" y="805"/>
      <point x="201" y="874" type="qcurve"/>
      <point x="156" y="907"/>
      <point x="96" y="1034"/>
      <point x="96" y="1114" type="qcurve" smooth="yes"/>
      <point x="96" y="1214"/>
      <point x="213" y="1377"/>
      <point x="396" y="1464"/>
      <point x="496" y="1464" type="qcurve" smooth="yes"/>
      <point x="636" y="1464"/>
      <point x="813" y="1358"/>
      <point x="874" y="1270" type="qcurve"/>
      <point x="764" y="1219" type="line"/>
      <point x="731" y="1281"/>
      <point x="588" y="1337"/>
      <point x="504" y="1337" type="qcurve" smooth="yes"/>
      <point x="397" y="1337"/>
      <point x="236" y="1214"/>
      <point x="236" y="1114" type="qcurve" smooth="yes"/>
      <point x="236" y="908"/>
      <point x="506" y="905" type="qcurve" smooth="yes"/>
      <point x="567" y="905"/>
      <point x="681" y="884"/>
      <point x="788" y="836"/>
      <point x="867" y="765"/>
      <point x="915" y="656"/>
      <point x="915" y="588" type="qcurve" smooth="yes"/>
      <point x="915" y="531"/>
      <point x="881" y="429"/>
      <point x="854" y="399" type="qcurve"/>
      <point x="948" y="341"/>
    </contour>
    <contour>
      <point x="723" y="440" type="qcurve"/>
      <point x="750" y="461"/>
      <point x="782" y="542"/>
      <point x="782" y="586" type="qcurve" smooth="yes"/>
      <point x="782" y="642"/>
      <point x="732" y="725"/>
      <point x="648" y="770"/>
      <point x="558" y="791"/>
      <point x="510" y="791" type="qcurve" smooth="yes"/>
      <point x="404" y="791"/>
      <point x="334" y="819" type="qcurve"/>
      <point x="311" y="797"/>
      <point x="283" y="722"/>
      <point x="283" y="682" type="qcurve" smooth="yes"/>
      <point x="283" y="610"/>
      <point x="346" y="519"/>
      <point x="453" y="483"/>
      <point x="562" y="468"/>
      <point x="689" y="453"/>
    </contour>
  </outline>
</glyph>
<glyph name="dieresis" format="2">
  <advance width="673"/>
  <unicode hex="00A8"/>
  <anchor x="338" y="1475" name="Anchor-13"/>
  <outline>
    <contour>
      <point x="125" y="1296" type="line"/>
      <point x="125" y="1489" type="line"/>
      <point x="244" y="1489" type="line"/>
      <point x="244" y="1296" type="line"/>
    </contour>
    <contour>
      <point x="430" y="1296" type="line"/>
      <point x="430" y="1489" type="line"/>
      <point x="549" y="1489" type="line"/>
      <point x="549" y="1296" type="line"/>
    </contour>
  </outline>
</glyph>
<glyph name="copyright" format="2">
  <advance width="1703"/>
  <unicode hex="00A9"/>
  <outline>
    <contour>
      <point x="98" y="727" type="qcurve" smooth="yes"/>
      <point x="98" y="883"/>
      <point x="212" y="1157"/>
      <point x="411" y="1352"/>
      <point x="690" y="1464"/>
      <point x="850" y="1464" type="qcurve" smooth="yes"/>
      <point x="1064" y="1464"/>
      <point x="1410" y="1273"/>
      <point x="1606" y="935"/>
      <point x="1606" y="727" type="qcurve" smooth="yes"/>
      <point x="1606" y="570"/>
      <point x="1491" y="295"/>
      <point x="1291" y="99"/>
      <point x="1010" y="-14"/>
      <point x="690" y="-14"/>
      <point x="411" y="99"/>
      <point x="212" y="295"/>
      <point x="98" y="570"/>
    </contour>
    <contour>
      <point x="1526" y="723" type="qcurve" smooth="yes"/>
      <point x="1526" y="864"/>
      <point x="1423" y="1111"/>
      <point x="1244" y="1287"/>
      <point x="993" y="1389"/>
      <point x="850" y="1389" type="qcurve" smooth="yes"/>
      <point x="661" y="1389"/>
      <point x="353" y="1216"/>
      <point x="178" y="912"/>
      <point x="178" y="725" type="qcurve" smooth="yes"/>
      <point x="178" y="539"/>
      <point x="352" y="235"/>
      <point x="660" y="61"/>
      <point x="850" y="61" type="qcurve" smooth="yes"/>
      <point x="1038" y="61"/>
      <point x="1346" y="227"/>
      <point x="1526" y="531"/>
    </contour>
    <contour>
      <point x="387" y="727" type="qcurve" smooth="yes"/>
      <point x="387" y="797"/>
      <point x="423" y="933"/>
      <point x="498" y="1056"/>
      <point x="606" y="1150"/>
      <point x="762" y="1206"/>
      <point x="854" y="1206" type="qcurve" smooth="yes"/>
      <point x="990" y="1206"/>
      <point x="1201" y="1087"/>
      <point x="1247" y="979" type="qcurve"/>
      <point x="1112" y="936" type="line"/>
      <point x="1075" y="1017"/>
      <point x="930" y="1083"/>
      <point x="854" y="1083" type="qcurve" smooth="yes"/>
      <point x="776" y="1083"/>
      <point x="649" y="1021"/>
      <point x="571" y="918"/>
      <point x="530" y="793"/>
      <point x="530" y="727" type="qcurve" smooth="yes"/>
      <point x="530" y="646"/>
      <point x="591" y="509"/>
      <point x="687" y="422"/>
      <point x="802" y="373"/>
      <point x="858" y="373" type="qcurve" smooth="yes"/>
      <point x="938" y="373"/>
      <point x="1093" y="459"/>
      <point x="1126" y="528" type="qcurve"/>
      <point x="1262" y="489" type="line"/>
      <point x="1247" y="450"/>
      <point x="1177" y="369"/>
      <point x="1078" y="297"/>
      <point x="940" y="252"/>
      <point x="866" y="252" type="qcurve" smooth="yes"/>
      <point x="740" y="252"/>
      <point x="523" y="367"/>
      <point x="387" y="587"/>
    </contour>
  </outline>
</glyph>
<glyph name="ordfeminine" format="2">
  <advance width="888"/>
  <unicode hex="00AA"/>
  <anchor x="0" y="0" name="Anchor-11"/>
  <anchor x="0" y="0" name="Anchor-10"/>
  <anchor x="526" y="1063" name="Anchor-9"/>
  <anchor x="0" y="0" name="Anchor-8"/>
  <anchor x="922" y="23" name="Anchor-7"/>
  <outline>
    <contour>
      <point x="98" y="934" type="qcurve" smooth="yes"/>
      <point x="98" y="1032"/>
      <point x="269" y="1157"/>
      <point x="403" y="1157" type="qcurve" smooth="yes"/>
      <point x="529" y="1157"/>
      <point x="610" y="1120" type="qcurve"/>
      <point x="610" y="1178" type="line" smooth="yes"/>
      <point x="610" y="1266"/>
      <point x="508" y="1368"/>
      <point x="416" y="1368" type="qcurve" smooth="yes"/>
      <point x="307" y="1368"/>
      <point x="182" y="1284" type="qcurve"/>
      <point x="141" y="1360" type="line"/>
      <point x="284" y="1454"/>
      <point x="426" y="1454" type="qcurve" smooth="yes"/>
      <point x="570" y="1454"/>
      <point x="733" y="1302"/>
      <point x="733" y="1165" type="qcurve" smooth="yes"/>
      <point x="733" y="872" type="line" smooth="yes"/>
      <point x="733" y="850"/>
      <point x="751" y="828"/>
      <point x="772" y="827" type="qcurve"/>
      <point x="772" y="721" type="line"/>
      <point x="722" y="717"/>
      <point x="715" y="717" type="qcurve" smooth="yes"/>
      <point x="679" y="718"/>
      <point x="634" y="760"/>
      <point x="631" y="791" type="qcurve" smooth="yes"/>
      <point x="629" y="842" type="line"/>
      <point x="578" y="778"/>
      <point x="427" y="709"/>
      <point x="340" y="709" type="qcurve" smooth="yes"/>
      <point x="238" y="709"/>
      <point x="98" y="839"/>
    </contour>
    <contour>
      <point x="586" y="889" type="qcurve"/>
      <point x="610" y="913"/>
      <point x="610" y="942" type="qcurve" smooth="yes"/>
      <point x="610" y="1049" type="line"/>
      <point x="540" y="1081"/>
      <point x="422" y="1081" type="qcurve" smooth="yes"/>
      <point x="328" y="1081"/>
      <point x="213" y="1005"/>
      <point x="213" y="942" type="qcurve" smooth="yes"/>
      <point x="213" y="882"/>
      <point x="305" y="801"/>
      <point x="373" y="801" type="qcurve" smooth="yes"/>
      <point x="439" y="801"/>
      <point x="555" y="849"/>
    </contour>
  </outline>
</glyph>
<glyph name="guillemotleft" format="2">
  <advance width="1173"/>
  <unicode hex="00AB"/>
  <outline>
    <contour>
      <point x="84" y="565" type="line"/>
      <point x="592" y="930" type="line"/>
      <point x="592" y="809" type="line"/>
      <point x="197" y="530" type="line"/>
      <point x="592" y="256" type="line"/>
      <point x="592" y="135" type="line"/>
      <point x="84" y="489" type="line"/>
    </contour>
    <contour>
      <point x="535" y="565" type="line"/>
      <point x="1044" y="930" type="line"/>
      <point x="1044" y="809" type="line"/>
      <point x="649" y="530" type="line"/>
      <point x="1044" y="256" type="line"/>
      <point x="1044" y="135" type="line"/>
      <point x="535" y="489" type="line"/>
    </contour>
  </outline>
</glyph>
<glyph name="logicalnot" format="2">
  <advance width="1191"/>
  <unicode hex="00AC"/>
  <outline>
    <contour>
      <point x="1049" y="745" type="line"/>
      <point x="1049" y="258" type="line"/>
      <point x="926" y="258" type="line"/>
      <point x="926" y="618" type="line"/>
      <point x="150" y="618" type="line"/>
      <point x="150" y="745" type="line"/>
    </contour>
  </outline>
</glyph>
<glyph name="sfthyphen" format="2">
  <advance width="1167"/>
  <unicode hex="00AD"/>
  <outline>
    <contour>
      <point x="133" y="494" type="line"/>
      <point x="133" y="623" type="line"/>
      <point x="1032" y="623" type="line"/>
      <point x="1032" y="494" type="line"/>
    </contour>
  </outline>
</glyph>
<glyph name="registered" format="2">
  <advance width="1703"/>
  <unicode hex="00AE"/>
  <outline>
    <contour>
      <point x="98" y="727" type="qcurve" smooth="yes"/>
      <point x="98" y="935"/>
      <point x="293" y="1273"/>
      <point x="638" y="1464"/>
      <point x="852" y="1464" type="qcurve" smooth="yes"/>
      <point x="1065" y="1464"/>
      <point x="1410" y="1273"/>
      <point x="1606" y="935"/>
      <point x="1606" y="727" type="qcurve" smooth="yes"/>
      <point x="1606" y="570"/>
      <point x="1491" y="295"/>
      <point x="1292" y="99"/>
      <point x="1012" y="-14"/>
      <point x="692" y="-14"/>
      <point x="411" y="99"/>
      <point x="212" y="295"/>
      <point x="98" y="570"/>
    </contour>
    <contour>
      <point x="1524" y="725" type="qcurve" smooth="yes"/>
      <point x="1524" y="911"/>
      <point x="1350" y="1215"/>
      <point x="1042" y="1389"/>
      <point x="662" y="1389"/>
      <point x="353" y="1215"/>
      <point x="180" y="912"/>
      <point x="180" y="727" type="qcurve" smooth="yes"/>
      <point x="180" y="587"/>
      <point x="282" y="339"/>
      <point x="459" y="162"/>
      <point x="709" y="59"/>
      <point x="852" y="59" type="qcurve" smooth="yes"/>
      <point x="992" y="59"/>
      <point x="1240" y="157"/>
      <point x="1420" y="330"/>
      <point x="1524" y="580"/>
    </contour>
    <contour>
      <point x="539" y="1188" type="line"/>
      <point x="930" y="1188" type="line" smooth="yes"/>
      <point x="1046" y="1188"/>
      <point x="1206" y="1007"/>
      <point x="1206" y="895" type="qcurve" smooth="yes"/>
      <point x="1206" y="794"/>
      <point x="1088" y="637"/>
      <point x="995" y="618" type="qcurve"/>
      <point x="1223" y="260" type="line"/>
      <point x="1104" y="260" type="line"/>
      <point x="887" y="604" type="line"/>
      <point x="647" y="604" type="line"/>
      <point x="647" y="260" type="line"/>
      <point x="539" y="260" type="line"/>
    </contour>
    <contour>
      <point x="930" y="698" type="line" smooth="yes"/>
      <point x="1011" y="698"/>
      <point x="1100" y="808"/>
      <point x="1100" y="895" type="qcurve" smooth="yes"/>
      <point x="1100" y="980"/>
      <point x="999" y="1090"/>
      <point x="922" y="1090" type="qcurve" smooth="yes"/>
      <point x="647" y="1090" type="line"/>
      <point x="647" y="698" type="line"/>
    </contour>
  </outline>
</glyph>
<glyph name="macron" format="2">
  <advance width="811"/>
  <unicode hex="00AF"/>
  <anchor x="406" y="1454" name="Anchor-13"/>
  <outline>
    <contour>
      <point x="111" y="1358" type="line"/>
      <point x="111" y="1454" type="line"/>
      <point x="702" y="1454" type="line"/>
      <point x="702" y="1358" type="line"/>
    </contour>
  </outline>
</glyph>
<glyph name="degree" format="2">
  <advance width="544"/>
  <unicode hex="00B0"/>
  <outline>
    <contour>
      <point x="272" y="1483" type="qcurve" smooth="yes"/>
      <point x="344" y="1483"/>
      <point x="442" y="1386"/>
      <point x="442" y="1315" type="qcurve" smooth="yes"/>
      <point x="442" y="1242"/>
      <point x="344" y="1143"/>
      <point x="272" y="1143" type="qcurve" smooth="yes"/>
      <point x="201" y="1143"/>
      <point x="102" y="1242"/>
      <point x="102" y="1315" type="qcurve" smooth="yes"/>
      <point x="102" y="1385"/>
      <point x="201" y="1483"/>
    </contour>
    <contour>
      <point x="182" y="1313" type="qcurve" smooth="yes"/>
      <point x="182" y="1276"/>
      <point x="209" y="1249" type="qcurve" smooth="yes"/>
      <point x="235" y="1223"/>
      <point x="272" y="1223" type="qcurve" smooth="yes"/>
      <point x="312" y="1223"/>
      <point x="338" y="1249" type="qcurve" smooth="yes"/>
      <point x="362" y="1276"/>
      <point x="362" y="1313" type="qcurve" smooth="yes"/>
      <point x="362" y="1349"/>
      <point x="314" y="1403"/>
      <point x="272" y="1403" type="qcurve" smooth="yes"/>
      <point x="233" y="1403"/>
      <point x="209" y="1376" type="qcurve" smooth="yes"/>
      <point x="182" y="1349"/>
    </contour>
  </outline>
</glyph>
<glyph name="plusminus" format="2">
  <advance width="956"/>
  <unicode hex="00B1"/>
  <outline>
    <contour>
      <point x="809" y="805" type="line"/>
      <point x="809" y="688" type="line"/>
      <point x="543" y="688" type="line"/>
      <point x="543" y="401" type="line"/>
      <point x="414" y="401" type="line"/>
      <point x="414" y="688" type="line"/>
      <point x="147" y="688" type="line"/>
      <point x="147" y="805" type="line"/>
      <point x="414" y="805" type="line"/>
      <point x="414" y="1092" type="line"/>
      <point x="543" y="1092" type="line"/>
      <point x="543" y="805" type="line"/>
    </contour>
    <contour>
      <point x="147" y="125" type="line"/>
      <point x="147" y="242" type="line"/>
      <point x="809" y="242" type="line"/>
      <point x="809" y="125" type="line"/>
    </contour>
  </outline>
</glyph>
<glyph name="twosuperior" format="2">
  <advance width="794"/>
  <unicode hex="00B2"/>
  <outline>
    <contour>
      <point x="74" y="834" type="line"/>
      <point x="74" y="987"/>
      <point x="196" y="1155"/>
      <point x="332" y="1208" type="qcurve" smooth="yes"/>
      <point x="349" y="1215"/>
      <point x="441" y="1248"/>
      <point x="483" y="1265"/>
      <point x="552" y="1302"/>
      <point x="585" y="1336"/>
      <point x="612" y="1388"/>
      <point x="612" y="1419" type="qcurve" smooth="yes"/>
      <point x="612" y="1485"/>
      <point x="503" y="1571"/>
      <point x="403" y="1571" type="qcurve" smooth="yes"/>
      <point x="246" y="1571"/>
      <point x="143" y="1458" type="qcurve"/>
      <point x="82" y="1522" type="line"/>
      <point x="92" y="1537"/>
      <point x="139" y="1577"/>
      <point x="220" y="1627"/>
      <point x="346" y="1661"/>
      <point x="416" y="1661" type="qcurve" smooth="yes"/>
      <point x="560" y="1661"/>
      <point x="715" y="1526"/>
      <point x="715" y="1417" type="qcurve" smooth="yes"/>
      <point x="715" y="1389"/>
      <point x="701" y="1339"/>
      <point x="683" y="1301"/>
      <point x="646" y="1264"/>
      <point x="619" y="1240"/>
      <point x="566" y="1212"/>
      <point x="538" y="1198"/>
      <point x="477" y="1177"/>
      <point x="456" y="1170"/>
      <point x="426" y="1161" type="qcurve" smooth="yes"/>
      <point x="215" y="1089"/>
      <point x="215" y="922" type="qcurve"/>
      <point x="705" y="922" type="line"/>
      <point x="705" y="834" type="line"/>
    </contour>
  </outline>
</glyph>
<glyph name="threesuperior" format="2">
  <advance width="798"/>
  <unicode hex="00B3"/>
  <outline>
    <contour>
      <point x="72" y="1004" type="qcurve"/>
      <point x="127" y="1063" type="line"/>
      <point x="134" y="1008"/>
      <point x="281" y="913"/>
      <point x="387" y="913" type="qcurve" smooth="yes"/>
      <point x="489" y="913"/>
      <point x="627" y="994"/>
      <point x="627" y="1059" type="qcurve" smooth="yes"/>
      <point x="627" y="1130"/>
      <point x="462" y="1210"/>
      <point x="322" y="1210" type="qcurve" smooth="yes"/>
      <point x="274" y="1210" type="line"/>
      <point x="274" y="1294" type="line"/>
      <point x="322" y="1294" type="line" smooth="yes"/>
      <point x="453" y="1294"/>
      <point x="598" y="1363"/>
      <point x="598" y="1430" type="qcurve" smooth="yes"/>
      <point x="598" y="1496"/>
      <point x="472" y="1577"/>
      <point x="381" y="1577" type="qcurve" smooth="yes"/>
      <point x="298" y="1577"/>
      <point x="173" y="1515"/>
      <point x="141" y="1462" type="qcurve"/>
      <point x="80" y="1532" type="line"/>
      <point x="116" y="1591"/>
      <point x="282" y="1661"/>
      <point x="381" y="1661" type="qcurve" smooth="yes"/>
      <point x="516" y="1661"/>
      <point x="696" y="1533"/>
      <point x="696" y="1436" type="qcurve" smooth="yes"/>
      <point x="696" y="1366"/>
      <point x="601" y="1274"/>
      <point x="510" y="1255" type="qcurve"/>
      <point x="604" y="1242"/>
      <point x="719" y="1126"/>
      <point x="719" y="1047" type="qcurve" smooth="yes"/>
      <point x="719" y="945"/>
      <point x="526" y="821"/>
      <point x="389" y="821" type="qcurve" smooth="yes"/>
      <point x="261" y="821"/>
      <point x="87" y="921"/>
    </contour>
  </outline>
</glyph>
<glyph name="acute" format="2">
  <advance width="454"/>
  <unicode hex="00B4"/>
  <anchor x="236" y="1495" name="Anchor-13"/>
  <outline>
    <contour>
      <point x="193" y="1270" type="line"/>
      <point x="100" y="1305" type="line"/>
      <point x="221" y="1495" type="line"/>
      <point x="369" y="1495" type="line"/>
    </contour>
  </outline>
</glyph>
<glyph name="mu" format="2">
  <advance width="1269"/>
  <unicode hex="00B5"/>
  <outline>
    <contour>
      <point x="168" y="1067" type="line"/>
      <point x="307" y="1067" type="line"/>
      <point x="307" y="465" type="line" smooth="yes"/>
      <point x="307" y="282"/>
      <point x="432" y="102"/>
      <point x="559" y="102" type="qcurve" smooth="yes"/>
      <point x="682" y="102"/>
      <point x="895" y="263"/>
      <point x="942" y="395" type="qcurve"/>
      <point x="942" y="1067" type="line"/>
      <point x="1081" y="1067" type="line"/>
      <point x="1081" y="180" type="line" smooth="yes"/>
      <point x="1081" y="123"/>
      <point x="1130" y="123" type="qcurve"/>
      <point x="1130" y="0" type="line"/>
      <point x="1097" y="-4"/>
      <point x="1063" y="-4" type="qcurve" smooth="yes"/>
      <point x="1018" y="-1"/>
      <point x="958" y="64"/>
      <point x="958" y="106" type="qcurve" smooth="yes"/>
      <point x="958" y="242" type="line"/>
      <point x="903" y="130"/>
      <point x="676" y="-20"/>
      <point x="551" y="-20" type="qcurve" smooth="yes"/>
      <point x="456" y="-20"/>
      <point x="328" y="74"/>
      <point x="299" y="154" type="qcurve"/>
      <point x="307" y="-434" type="line"/>
      <point x="168" y="-434" type="line"/>
    </contour>
  </outline>
</glyph>
<glyph name="paragraph" format="2">
  <advance width="1232"/>
  <unicode hex="00B6"/>
  <outline>
    <contour>
      <point x="647" y="1454" type="qcurve" smooth="yes"/>
      <point x="1141" y="1454" type="line"/>
      <point x="1141" y="1343" type="line"/>
      <point x="997" y="1343" type="line"/>
      <point x="997" y="-164" type="line"/>
      <point x="874" y="-164" type="line"/>
      <point x="874" y="473" type="line"/>
      <point x="723" y="473" type="line"/>
      <point x="723" y="-164" type="line"/>
      <point x="602" y="-164" type="line"/>
      <point x="602" y="473" type="line"/>
      <point x="356" y="476"/>
      <point x="70" y="737"/>
      <point x="70" y="961" type="qcurve" smooth="yes"/>
      <point x="70" y="1193"/>
      <point x="374" y="1454"/>
    </contour>
    <contour>
      <point x="602" y="584" type="qcurve"/>
      <point x="602" y="1343" type="line"/>
      <point x="405" y="1342"/>
      <point x="190" y="1140"/>
      <point x="190" y="965" type="qcurve" smooth="yes"/>
      <point x="190" y="873"/>
      <point x="255" y="728"/>
      <point x="370" y="638"/>
      <point x="516" y="589"/>
    </contour>
    <contour>
      <point x="874" y="1343" type="line"/>
      <point x="723" y="1343" type="line"/>
      <point x="723" y="584" type="line"/>
      <point x="874" y="584" type="line"/>
    </contour>
  </outline>
</glyph>
<glyph name="periodcentered" format="2">
  <advance width="387"/>
  <unicode hex="00B7"/>
  <outline>
    <contour>
      <point x="133" y="504" type="line"/>
      <point x="133" y="733" type="line"/>
      <point x="254" y="733" type="line"/>
      <point x="254" y="504" type="line"/>
    </contour>
  </outline>
</glyph>
<glyph name="cedilla" format="2">
  <advance width="579"/>
  <unicode hex="00B8"/>
  <outline>
    <contour>
      <point x="305" y="-369" type="qcurve" smooth="yes"/>
      <point x="185" y="-369"/>
      <point x="72" y="-311" type="qcurve"/>
      <point x="113" y="-231" type="line"/>
      <point x="208" y="-276"/>
      <point x="283" y="-276" type="qcurve" smooth="yes"/>
      <point x="424" y="-276"/>
      <point x="424" y="-172" type="qcurve" smooth="yes"/>
      <point x="424" y="-122"/>
      <point x="354" y="-42"/>
      <point x="281" y="0" type="qcurve"/>
      <point x="340" y="39" type="line"/>
      <point x="429" y="-16"/>
      <point x="518" y="-122"/>
      <point x="518" y="-195" type="qcurve" smooth="yes"/>
      <point x="518" y="-278"/>
      <point x="404" y="-369"/>
    </contour>
  </outline>
</glyph>
<glyph name="onesuperior" format="2">
  <advance width="557"/>
  <unicode hex="00B9"/>
  <outline>
    <contour>
      <point x="512" y="924" type="line"/>
      <point x="512" y="831" type="line"/>
      <point x="100" y="831" type="line"/>
      <point x="100" y="924" type="line"/>
      <point x="266" y="924" type="line"/>
      <point x="266" y="1556" type="line"/>
      <point x="241" y="1525"/>
      <point x="117" y="1456"/>
      <point x="70" y="1456" type="qcurve"/>
      <point x="70" y="1548" type="line"/>
      <point x="95" y="1548"/>
      <point x="153" y="1570"/>
      <point x="201" y="1602"/>
      <point x="242" y="1635"/>
      <point x="265" y="1659"/>
      <point x="266" y="1661" type="qcurve" smooth="yes"/>
      <point x="358" y="1661" type="line"/>
      <point x="358" y="924" type="line"/>
    </contour>
  </outline>
</glyph>
<glyph name="ordmasculine" format="2">
  <advance width="919"/>
  <unicode hex="00BA"/>
  <anchor x="0" y="0" name="Anchor-11"/>
  <anchor x="0" y="0" name="Anchor-10"/>
  <anchor x="592" y="1063" name="Anchor-9"/>
  <anchor x="0" y="0" name="Anchor-8"/>
  <anchor x="590" y="0" name="Anchor-7"/>
  <outline>
    <contour>
      <point x="90" y="1081" type="qcurve" smooth="yes"/>
      <point x="90" y="1236"/>
      <point x="299" y="1454"/>
      <point x="619" y="1454"/>
      <point x="829" y="1236"/>
      <point x="829" y="1081" type="qcurve" smooth="yes"/>
      <point x="829" y="928"/>
      <point x="620" y="709"/>
      <point x="298" y="709"/>
      <point x="90" y="928"/>
    </contour>
    <contour>
      <point x="564" y="809"/>
      <point x="711" y="968"/>
      <point x="711" y="1083" type="qcurve" smooth="yes"/>
      <point x="711" y="1197"/>
      <point x="564" y="1354"/>
      <point x="459" y="1354" type="qcurve" smooth="yes"/>
      <point x="356" y="1354"/>
      <point x="207" y="1194"/>
      <point x="207" y="1079" type="qcurve" smooth="yes"/>
      <point x="207" y="966"/>
      <point x="354" y="809"/>
    </contour>
  </outline>
</glyph>
<glyph name="guillemotright" format="2">
  <advance width="1173"/>
  <unicode hex="00BB"/>
  <outline>
    <contour>
      <point x="639" y="489" type="line"/>
      <point x="129" y="135" type="line"/>
      <point x="129" y="256" type="line"/>
      <point x="524" y="530" type="line"/>
      <point x="129" y="809" type="line"/>
      <point x="129" y="930" type="line"/>
      <point x="639" y="565" type="line"/>
    </contour>
    <contour>
      <point x="1090" y="489" type="line"/>
      <point x="582" y="135" type="line"/>
      <point x="582" y="256" type="line"/>
      <point x="977" y="530" type="line"/>
      <point x="582" y="809" type="line"/>
      <point x="582" y="930" type="line"/>
      <point x="1090" y="565" type="line"/>
    </contour>
  </outline>
</glyph>
<glyph name="onequarter" format="2">
  <advance width="1630"/>
  <unicode hex="00BC"/>
  <outline>
    <contour>
      <point x="512" y="760" type="line"/>
      <point x="512" y="668" type="line"/>
      <point x="100" y="668" type="line"/>
      <point x="100" y="760" type="line"/>
      <point x="266" y="760" type="line"/>
      <point x="266" y="1393" type="line"/>
      <point x="240" y="1362"/>
      <point x="117" y="1292"/>
      <point x="70" y="1292" type="qcurve"/>
      <point x="70" y="1384" type="line"/>
      <point x="95" y="1384"/>
      <point x="153" y="1406"/>
      <point x="201" y="1438"/>
      <point x="242" y="1471"/>
      <point x="265" y="1495"/>
      <point x="266" y="1497" type="qcurve" smooth="yes"/>
      <point x="358" y="1497" type="line"/>
      <point x="358" y="760" type="line"/>
    </contour>
    <contour>
      <point x="115" y="55" type="line"/>
      <point x="686" y="752" type="line"/>
      <point x="1243" y="1462" type="line"/>
      <point x="1315" y="1401" type="line"/>
      <point x="743" y="705" type="line"/>
      <point x="184" y="-8" type="line"/>
    </contour>
    <contour>
      <point x="1360" y="0" type="line"/>
      <point x="1360" y="211" type="line"/>
      <point x="893" y="211" type="line"/>
      <point x="893" y="297" type="line"/>
      <point x="1389" y="817" type="line"/>
      <point x="1452" y="817" type="line"/>
      <point x="1452" y="301" type="line"/>
      <point x="1569" y="301" type="line"/>
      <point x="1569" y="211" type="line"/>
      <point x="1452" y="211" type="line"/>
      <point x="1452" y="0" type="line"/>
    </contour>
    <contour>
      <point x="991" y="301" type="line"/>
      <point x="1362" y="301" type="line"/>
      <point x="1362" y="692" type="line"/>
    </contour>
  </outline>
</glyph>
<glyph name="onehalf" format="2">
  <advance width="1652"/>
  <unicode hex="00BD"/>
  <outline>
    <contour>
      <point x="512" y="760" type="line"/>
      <point x="512" y="668" type="line"/>
      <point x="100" y="668" type="line"/>
      <point x="100" y="760" type="line"/>
      <point x="266" y="760" type="line"/>
      <point x="266" y="1393" type="line"/>
      <point x="240" y="1362"/>
      <point x="117" y="1292"/>
      <point x="70" y="1292" type="qcurve"/>
      <point x="70" y="1384" type="line"/>
      <point x="95" y="1384"/>
      <point x="153" y="1406"/>
      <point x="201" y="1438"/>
      <point x="242" y="1471"/>
      <point x="265" y="1495"/>
      <point x="266" y="1497" type="qcurve" smooth="yes"/>
      <point x="358" y="1497" type="line"/>
      <point x="358" y="760" type="line"/>
    </contour>
    <contour>
      <point x="115" y="55" type="line"/>
      <point x="686" y="752" type="line"/>
      <point x="1243" y="1462" type="line"/>
      <point x="1315" y="1401" type="line"/>
      <point x="743" y="705" type="line"/>
      <point x="184" y="-8" type="line"/>
    </contour>
    <contour>
      <point x="944" y="0" type="line"/>
      <point x="944" y="154"/>
      <point x="1064" y="324"/>
      <point x="1196" y="377" type="qcurve" smooth="yes"/>
      <point x="1212" y="383"/>
      <point x="1284" y="409"/>
      <point x="1323" y="425"/>
      <point x="1383" y="452"/>
      <point x="1417" y="479"/>
      <point x="1452" y="515"/>
      <point x="1468" y="560"/>
      <point x="1468" y="586" type="qcurve" smooth="yes"/>
      <point x="1468" y="652"/>
      <point x="1363" y="739"/>
      <point x="1266" y="739" type="qcurve" smooth="yes"/>
      <point x="1116" y="739"/>
      <point x="1012" y="625" type="qcurve"/>
      <point x="952" y="690" type="line"/>
      <point x="965" y="706"/>
      <point x="1008" y="743"/>
      <point x="1088" y="794"/>
      <point x="1209" y="827"/>
      <point x="1278" y="827" type="qcurve" smooth="yes"/>
      <point x="1418" y="827"/>
      <point x="1569" y="692"/>
      <point x="1569" y="584" type="qcurve" smooth="yes"/>
      <point x="1569" y="550"/>
      <point x="1550" y="491"/>
      <point x="1522" y="448"/>
      <point x="1475" y="409"/>
      <point x="1435" y="384"/>
      <point x="1374" y="357"/>
      <point x="1335" y="343"/>
      <point x="1305" y="333" type="qcurve" smooth="yes"/>
      <point x="1295" y="330"/>
      <point x="1290" y="328" type="qcurve" smooth="yes"/>
      <point x="1081" y="256"/>
      <point x="1081" y="90" type="qcurve"/>
      <point x="1571" y="90" type="line"/>
      <point x="1571" y="0" type="line"/>
    </contour>
  </outline>
</glyph>
<glyph name="threequarters" format="2">
  <advance width="1871"/>
  <unicode hex="00BE"/>
  <outline>
    <contour>
      <point x="72" y="840" type="qcurve"/>
      <point x="127" y="899" type="line"/>
      <point x="134" y="844"/>
      <point x="281" y="750"/>
      <point x="387" y="750" type="qcurve" smooth="yes"/>
      <point x="489" y="750"/>
      <point x="627" y="830"/>
      <point x="627" y="895" type="qcurve" smooth="yes"/>
      <point x="627" y="966"/>
      <point x="462" y="1047"/>
      <point x="322" y="1047" type="qcurve" smooth="yes"/>
      <point x="274" y="1047" type="line"/>
      <point x="274" y="1130" type="line"/>
      <point x="322" y="1130" type="line" smooth="yes"/>
      <point x="453" y="1130"/>
      <point x="598" y="1199"/>
      <point x="598" y="1266" type="qcurve" smooth="yes"/>
      <point x="598" y="1332"/>
      <point x="472" y="1413"/>
      <point x="381" y="1413" type="qcurve" smooth="yes"/>
      <point x="298" y="1413"/>
      <point x="173" y="1351"/>
      <point x="141" y="1298" type="qcurve"/>
      <point x="80" y="1368" type="line"/>
      <point x="116" y="1427"/>
      <point x="282" y="1497"/>
      <point x="381" y="1497" type="qcurve" smooth="yes"/>
      <point x="516" y="1497"/>
      <point x="696" y="1369"/>
      <point x="696" y="1272" type="qcurve" smooth="yes"/>
      <point x="696" y="1130"/>
      <point x="510" y="1092" type="qcurve"/>
      <point x="604" y="1079"/>
      <point x="719" y="962"/>
      <point x="719" y="883" type="qcurve" smooth="yes"/>
      <point x="719" y="781"/>
      <point x="526" y="657"/>
      <point x="389" y="657" type="qcurve" smooth="yes"/>
      <point x="261" y="657"/>
      <point x="87" y="757"/>
    </contour>
    <contour>
      <point x="356" y="55" type="line"/>
      <point x="928" y="752" type="line"/>
      <point x="1485" y="1462" type="line"/>
      <point x="1556" y="1401" type="line"/>
      <point x="985" y="705" type="line"/>
      <point x="426" y="-8" type="line"/>
    </contour>
    <contour>
      <point x="1602" y="0" type="line"/>
      <point x="1602" y="211" type="line"/>
      <point x="1135" y="211" type="line"/>
      <point x="1135" y="297" type="line"/>
      <point x="1630" y="817" type="line"/>
      <point x="1694" y="817" type="line"/>
      <point x="1694" y="301" type="line"/>
      <point x="1810" y="301" type="line"/>
      <point x="1810" y="211" type="line"/>
      <point x="1694" y="211" type="line"/>
      <point x="1694" y="0" type="line"/>
    </contour>
    <contour>
      <point x="1233" y="301" type="line"/>
      <point x="1604" y="301" type="line"/>
      <point x="1604" y="692" type="line"/>
    </contour>
  </outline>
</glyph>
<glyph name="questiondown" format="2">
  <advance width="960"/>
  <unicode hex="00BF"/>
  <outline>
    <contour>
      <point x="649" y="1036" type="line"/>
      <point x="649" y="817" type="line"/>
      <point x="528" y="817" type="line"/>
      <point x="528" y="1036" type="line"/>
    </contour>
    <contour>
      <point x="651" y="623" type="line"/>
      <point x="651" y="491"/>
      <point x="568" y="329"/>
      <point x="477" y="274" type="qcurve" smooth="yes"/>
      <point x="461" y="264"/>
      <point x="378" y="218"/>
      <point x="330" y="190"/>
      <point x="260" y="133"/>
      <point x="222" y="79"/>
      <point x="193" y="-5"/>
      <point x="193" y="-53" type="qcurve" smooth="yes"/>
      <point x="193" y="-179"/>
      <point x="357" y="-319"/>
      <point x="471" y="-319" type="qcurve" smooth="yes"/>
      <point x="577" y="-319"/>
      <point x="755" y="-202"/>
      <point x="801" y="-111" type="qcurve"/>
      <point x="897" y="-172" type="line"/>
      <point x="841" y="-295"/>
      <point x="606" y="-436"/>
      <point x="469" y="-436" type="qcurve" smooth="yes"/>
      <point x="392" y="-436"/>
      <point x="251" y="-387"/>
      <point x="138" y="-293"/>
      <point x="70" y="-140"/>
      <point x="70" y="-45" type="qcurve" smooth="yes"/>
      <point x="70" y="0"/>
      <point x="88" y="80"/>
      <point x="111" y="137"/>
      <point x="161" y="195"/>
      <point x="195" y="228"/>
      <point x="269" y="276"/>
      <point x="303" y="296"/>
      <point x="346" y="319" type="qcurve" smooth="yes"/>
      <point x="382" y="339"/>
      <point x="424" y="366"/>
      <point x="480" y="418"/>
      <point x="510" y="475"/>
      <point x="532" y="566"/>
      <point x="532" y="623" type="qcurve"/>
    </contour>
  </outline>
</glyph>
<glyph name="Agrave" format="2">
  <advance width="1384"/>
  <unicode hex="00C0"/>
  <anchor x="0" y="0" name="Anchor-11"/>
  <anchor x="0" y="0" name="Anchor-10"/>
  <anchor x="637" y="1880" name="Anchor-9"/>
  <anchor x="1358" y="0" name="Anchor-8"/>
  <anchor x="713" y="0" name="Anchor-7"/>
  <outline>
    <contour>
      <point x="502" y="1880" type="line"/>
      <point x="647" y="1880" type="line"/>
      <point x="770" y="1690" type="line"/>
      <point x="680" y="1655" type="line"/>
    </contour>
    <contour>
      <point x="633" y="1454" type="line"/>
      <point x="754" y="1454" type="line"/>
      <point x="1358" y="0" type="line"/>
      <point x="1206" y="0" type="line"/>
      <point x="1018" y="455" type="line"/>
      <point x="365" y="455" type="line"/>
      <point x="178" y="0" type="line"/>
      <point x="25" y="0" type="line"/>
    </contour>
    <contour>
      <point x="985" y="567" type="line"/>
      <point x="692" y="1286" type="line"/>
      <point x="395" y="567" type="line"/>
    </contour>
  </outline>
</glyph>
<glyph name="Acircumflex" format="2">
  <advance width="1384"/>
  <unicode hex="00C2"/>
  <anchor x="0" y="0" name="Anchor-11"/>
  <anchor x="0" y="0" name="Anchor-10"/>
  <anchor x="692" y="1878" name="Anchor-9"/>
  <anchor x="1358" y="0" name="Anchor-8"/>
  <anchor x="713" y="0" name="Anchor-7"/>
  <outline>
    <contour>
      <point x="440" y="1704" type="line"/>
      <point x="641" y="1878" type="line"/>
      <point x="743" y="1878" type="line"/>
      <point x="946" y="1704" type="line"/>
      <point x="866" y="1661" type="line"/>
      <point x="692" y="1790" type="line"/>
      <point x="518" y="1661" type="line"/>
    </contour>
    <contour>
      <point x="633" y="1454" type="line"/>
      <point x="754" y="1454" type="line"/>
      <point x="1358" y="0" type="line"/>
      <point x="1206" y="0" type="line"/>
      <point x="1018" y="455" type="line"/>
      <point x="365" y="455" type="line"/>
      <point x="178" y="0" type="line"/>
      <point x="25" y="0" type="line"/>
    </contour>
    <contour>
      <point x="985" y="567" type="line"/>
      <point x="692" y="1286" type="line"/>
      <point x="395" y="567" type="line"/>
    </contour>
  </outline>
</glyph>
<glyph name="Atilde" format="2">
  <advance width="1384"/>
  <unicode hex="00C3"/>
  <anchor x="0" y="0" name="Anchor-11"/>
  <anchor x="0" y="0" name="Anchor-10"/>
  <anchor x="692" y="1878" name="Anchor-9"/>
  <anchor x="1358" y="0" name="Anchor-8"/>
  <anchor x="713" y="0" name="Anchor-7"/>
  <outline>
    <contour>
      <point x="555" y="1772" type="qcurve" smooth="yes"/>
      <point x="524" y="1772"/>
      <point x="479" y="1745"/>
      <point x="460" y="1706"/>
      <point x="453" y="1680"/>
      <point x="453" y="1673" type="qcurve"/>
      <point x="367" y="1673" type="line"/>
      <point x="367" y="1689"/>
      <point x="383" y="1743"/>
      <point x="420" y="1814"/>
      <point x="500" y="1864"/>
      <point x="553" y="1864" type="qcurve" smooth="yes"/>
      <point x="601" y="1864"/>
      <point x="690" y="1821"/>
      <point x="773" y="1778"/>
      <point x="815" y="1778" type="qcurve" smooth="yes"/>
      <point x="845" y="1778"/>
      <point x="891" y="1798"/>
      <point x="914" y="1824"/>
      <point x="928" y="1855"/>
      <point x="932" y="1873"/>
      <point x="932" y="1878" type="qcurve"/>
      <point x="1018" y="1878" type="line"/>
      <point x="1018" y="1867"/>
      <point x="1009" y="1829"/>
      <point x="981" y="1772"/>
      <point x="939" y="1724"/>
      <point x="864" y="1690"/>
      <point x="817" y="1690" type="qcurve" smooth="yes"/>
      <point x="765" y="1690"/>
      <point x="670" y="1731"/>
      <point x="590" y="1772"/>
    </contour>
    <contour>
      <point x="633" y="1454" type="line"/>
      <point x="754" y="1454" type="line"/>
      <point x="1358" y="0" type="line"/>
      <point x="1206" y="0" type="line"/>
      <point x="1018" y="455" type="line"/>
      <point x="365" y="455" type="line"/>
      <point x="178" y="0" type="line"/>
      <point x="25" y="0" type="line"/>
    </contour>
    <contour>
      <point x="985" y="567" type="line"/>
      <point x="692" y="1286" type="line"/>
      <point x="395" y="567" type="line"/>
    </contour>
  </outline>
</glyph>
<glyph name="Adieresis" format="2">
  <advance width="1384"/>
  <unicode hex="00C4"/>
  <anchor x="0" y="0" name="Anchor-11"/>
  <anchor x="0" y="0" name="Anchor-10"/>
  <anchor x="692" y="1860" name="Anchor-9"/>
  <anchor x="1358" y="0" name="Anchor-8"/>
  <anchor x="713" y="0" name="Anchor-7"/>
  <outline>
    <contour>
      <point x="479" y="1681" type="line"/>
      <point x="479" y="1874" type="line"/>
      <point x="598" y="1874" type="line"/>
      <point x="598" y="1681" type="line"/>
    </contour>
    <contour>
      <point x="784" y="1681" type="line"/>
      <point x="784" y="1874" type="line"/>
      <point x="903" y="1874" type="line"/>
      <point x="903" y="1681" type="line"/>
    </contour>
    <contour>
      <point x="633" y="1454" type="line"/>
      <point x="754" y="1454" type="line"/>
      <point x="1358" y="0" type="line"/>
      <point x="1206" y="0" type="line"/>
      <point x="1018" y="455" type="line"/>
      <point x="365" y="455" type="line"/>
      <point x="178" y="0" type="line"/>
      <point x="25" y="0" type="line"/>
    </contour>
    <contour>
      <point x="985" y="567" type="line"/>
      <point x="692" y="1286" type="line"/>
      <point x="395" y="567" type="line"/>
    </contour>
  </outline>
</glyph>
<glyph name="Aring" format="2">
  <advance width="1384"/>
  <unicode hex="00C5"/>
  <anchor x="0" y="0" name="Anchor-11"/>
  <anchor x="0" y="0" name="Anchor-10"/>
  <anchor x="690" y="1911" name="Anchor-9"/>
  <anchor x="1358" y="0" name="Anchor-8"/>
  <anchor x="713" y="0" name="Anchor-7"/>
  <outline>
    <contour>
      <point x="692" y="1927" type="qcurve" smooth="yes"/>
      <point x="771" y="1927"/>
      <point x="874" y="1830"/>
      <point x="874" y="1680"/>
      <point x="772" y="1585"/>
      <point x="692" y="1585" type="qcurve" smooth="yes"/>
      <point x="613" y="1585"/>
      <point x="510" y="1680"/>
      <point x="510" y="1830"/>
      <point x="614" y="1927"/>
    </contour>
    <contour>
      <point x="592" y="1755" type="qcurve" smooth="yes"/>
      <point x="592" y="1712"/>
      <point x="649" y="1655"/>
      <point x="692" y="1655" type="qcurve" smooth="yes"/>
      <point x="732" y="1655"/>
      <point x="795" y="1712"/>
      <point x="795" y="1755" type="qcurve" smooth="yes"/>
      <point x="795" y="1801"/>
      <point x="736" y="1855"/>
      <point x="692" y="1855" type="qcurve" smooth="yes"/>
      <point x="649" y="1855"/>
      <point x="592" y="1801"/>
    </contour>
    <contour>
      <point x="633" y="1454" type="line"/>
      <point x="754" y="1454" type="line"/>
      <point x="1358" y="0" type="line"/>
      <point x="1206" y="0" type="line"/>
      <point x="1018" y="455" type="line"/>
      <point x="365" y="455" type="line"/>
      <point x="178" y="0" type="line"/>
      <point x="25" y="0" type="line"/>
    </contour>
    <contour>
      <point x="985" y="567" type="line"/>
      <point x="692" y="1286" type="line"/>
      <point x="395" y="567" type="line"/>
    </contour>
  </outline>
</glyph>
<glyph name="Egrave" format="2">
  <advance width="1247"/>
  <unicode hex="00C8"/>
  <anchor x="0" y="0" name="Anchor-11"/>
  <anchor x="0" y="0" name="Anchor-10"/>
  <anchor x="635" y="1880" name="Anchor-9"/>
  <anchor x="1159" y="0" name="Anchor-8"/>
  <anchor x="690" y="0" name="Anchor-7"/>
  <outline>
    <contour>
      <point x="500" y="1880" type="line"/>
      <point x="645" y="1880" type="line"/>
      <point x="768" y="1690" type="line"/>
      <point x="678" y="1655" type="line"/>
    </contour>
    <contour>
      <point x="1159" y="127" type="line"/>
      <point x="1159" y="0" type="line"/>
      <point x="182" y="0" type="line"/>
      <point x="182" y="1454" type="line"/>
      <point x="1141" y="1454" type="line"/>
      <point x="1141" y="1327" type="line"/>
      <point x="326" y="1327" type="line"/>
      <point x="326" y="803" type="line"/>
      <point x="1036" y="803" type="line"/>
      <point x="1036" y="682" type="line"/>
      <point x="326" y="682" type="line"/>
      <point x="326" y="127" type="line"/>
    </contour>
  </outline>
</glyph>
<glyph name="Eacute" format="2">
  <advance width="1247"/>
  <unicode hex="00C9"/>
  <anchor x="0" y="0" name="Anchor-11"/>
  <anchor x="0" y="0" name="Anchor-10"/>
  <anchor x="780" y="1878" name="Anchor-9"/>
  <anchor x="1159" y="0" name="Anchor-8"/>
  <anchor x="690" y="0" name="Anchor-7"/>
  <outline>
    <contour>
      <point x="737" y="1653" type="line"/>
      <point x="645" y="1688" type="line"/>
      <point x="766" y="1878" type="line"/>
      <point x="913" y="1878" type="line"/>
    </contour>
    <contour>
      <point x="1159" y="127" type="line"/>
      <point x="1159" y="0" type="line"/>
      <point x="182" y="0" type="line"/>
      <point x="182" y="1454" type="line"/>
      <point x="1141" y="1454" type="line"/>
      <point x="1141" y="1327" type="line"/>
      <point x="326" y="1327" type="line"/>
      <point x="326" y="803" type="line"/>
      <point x="1036" y="803" type="line"/>
      <point x="1036" y="682" type="line"/>
      <point x="326" y="682" type="line"/>
      <point x="326" y="127" type="line"/>
    </contour>
  </outline>
</glyph>
<glyph name="Ecircumflex" format="2">
  <advance width="1247"/>
  <unicode hex="00CA"/>
  <anchor x="0" y="0" name="Anchor-11"/>
  <anchor x="0" y="0" name="Anchor-10"/>
  <anchor x="690" y="1878" name="Anchor-9"/>
  <anchor x="1159" y="0" name="Anchor-8"/>
  <anchor x="690" y="0" name="Anchor-7"/>
  <outline>
    <contour>
      <point x="438" y="1704" type="line"/>
      <point x="639" y="1878" type="line"/>
      <point x="741" y="1878" type="line"/>
      <point x="944" y="1704" type="line"/>
      <point x="864" y="1661" type="line"/>
      <point x="690" y="1790" type="line"/>
      <point x="516" y="1661" type="line"/>
    </contour>
    <contour>
      <point x="1159" y="127" type="line"/>
      <point x="1159" y="0" type="line"/>
      <point x="182" y="0" type="line"/>
      <point x="182" y="1454" type="line"/>
      <point x="1141" y="1454" type="line"/>
      <point x="1141" y="1327" type="line"/>
      <point x="326" y="1327" type="line"/>
      <point x="326" y="803" type="line"/>
      <point x="1036" y="803" type="line"/>
      <point x="1036" y="682" type="line"/>
      <point x="326" y="682" type="line"/>
      <point x="326" y="127" type="line"/>
    </contour>
  </outline>
</glyph>
<glyph name="Igrave" format="2">
  <advance width="507"/>
  <unicode hex="00CC"/>
  <anchor x="0" y="0" name="Anchor-11"/>
  <anchor x="0" y="0" name="Anchor-10"/>
  <anchor x="199" y="1880" name="Anchor-9"/>
  <anchor x="326" y="0" name="Anchor-8"/>
  <anchor x="254" y="0" name="Anchor-7"/>
  <outline>
    <contour>
      <point x="63" y="1880" type="line"/>
      <point x="209" y="1880" type="line"/>
      <point x="332" y="1690" type="line"/>
      <point x="242" y="1655" type="line"/>
    </contour>
    <contour>
      <point x="182" y="0" type="line"/>
      <point x="182" y="1454" type="line"/>
      <point x="326" y="1454" type="line"/>
      <point x="326" y="0" type="line"/>
    </contour>
  </outline>
</glyph>
<glyph name="Icircumflex" format="2">
  <advance width="507"/>
  <unicode hex="00CE"/>
  <anchor x="0" y="0" name="Anchor-11"/>
  <anchor x="0" y="0" name="Anchor-10"/>
  <anchor x="254" y="1878" name="Anchor-9"/>
  <anchor x="326" y="0" name="Anchor-8"/>
  <anchor x="254" y="0" name="Anchor-7"/>
  <outline>
    <contour>
      <point x="2" y="1704" type="line"/>
      <point x="203" y="1878" type="line"/>
      <point x="305" y="1878" type="line"/>
      <point x="508" y="1704" type="line"/>
      <point x="428" y="1661" type="line"/>
      <point x="254" y="1790" type="line"/>
      <point x="80" y="1661" type="line"/>
    </contour>
    <contour>
      <point x="182" y="0" type="line"/>
      <point x="182" y="1454" type="line"/>
      <point x="326" y="1454" type="line"/>
      <point x="326" y="0" type="line"/>
    </contour>
  </outline>
</glyph>
<glyph name="Idieresis" format="2">
  <advance width="507"/>
  <unicode hex="00CF"/>
  <anchor x="0" y="0" name="Anchor-11"/>
  <anchor x="0" y="0" name="Anchor-10"/>
  <anchor x="254" y="1860" name="Anchor-9"/>
  <anchor x="326" y="0" name="Anchor-8"/>
  <anchor x="254" y="0" name="Anchor-7"/>
  <outline>
    <contour>
      <point x="41" y="1681" type="line"/>
      <point x="41" y="1874" type="line"/>
      <point x="160" y="1874" type="line"/>
      <point x="160" y="1681" type="line"/>
    </contour>
    <contour>
      <point x="346" y="1681" type="line"/>
      <point x="346" y="1874" type="line"/>
      <point x="465" y="1874" type="line"/>
      <point x="465" y="1681" type="line"/>
    </contour>
    <contour>
      <point x="182" y="0" type="line"/>
      <point x="182" y="1454" type="line"/>
      <point x="326" y="1454" type="line"/>
      <point x="326" y="0" type="line"/>
    </contour>
  </outline>
</glyph>
<glyph name="Ntilde" format="2">
  <advance width="1581"/>
  <unicode hex="00D1"/>
  <anchor x="0" y="0" name="Anchor-11"/>
  <anchor x="0" y="0" name="Anchor-10"/>
  <anchor x="797" y="1878" name="Anchor-9"/>
  <anchor x="0" y="0" name="Anchor-8"/>
  <anchor x="797" y="0" name="Anchor-7"/>
  <outline>
    <contour>
      <point x="659" y="1772" type="qcurve" smooth="yes"/>
      <point x="628" y="1772"/>
      <point x="583" y="1745"/>
      <point x="564" y="1706"/>
      <point x="557" y="1680"/>
      <point x="557" y="1673" type="qcurve"/>
      <point x="471" y="1673" type="line"/>
      <point x="471" y="1689"/>
      <point x="487" y="1743"/>
      <point x="524" y="1814"/>
      <point x="604" y="1864"/>
      <point x="657" y="1864" type="qcurve" smooth="yes"/>
      <point x="705" y="1864"/>
      <point x="794" y="1821"/>
      <point x="878" y="1778"/>
      <point x="920" y="1778" type="qcurve" smooth="yes"/>
      <point x="950" y="1778"/>
      <point x="995" y="1798"/>
      <point x="1018" y="1824"/>
      <point x="1033" y="1855"/>
      <point x="1036" y="1873"/>
      <point x="1036" y="1878" type="qcurve"/>
      <point x="1122" y="1878" type="line"/>
      <point x="1122" y="1863"/>
      <point x="1105" y="1810"/>
      <point x="1065" y="1740"/>
      <point x="980" y="1690"/>
      <point x="922" y="1690" type="qcurve" smooth="yes"/>
      <point x="870" y="1690"/>
      <point x="775" y="1731"/>
      <point x="694" y="1772"/>
    </contour>
    <contour>
      <point x="326" y="1190" type="line"/>
      <point x="326" y="0" type="line"/>
      <point x="182" y="0" type="line"/>
      <point x="182" y="1454" type="line"/>
      <point x="301" y="1454" type="line"/>
      <point x="1255" y="242" type="line"/>
      <point x="1255" y="1452" type="line"/>
      <point x="1399" y="1452" type="line"/>
      <point x="1399" y="0" type="line"/>
      <point x="1266" y="0" type="line"/>
    </contour>
  </outline>
</glyph>
<glyph name="Odieresis" format="2">
  <advance width="1538"/>
  <unicode hex="00D6"/>
  <anchor x="1036" y="1337" name="Anchor-11"/>
  <anchor x="768" y="727" name="Anchor-10"/>
  <anchor x="770" y="1860" name="Anchor-9"/>
  <anchor x="911" y="10" name="Anchor-8"/>
  <anchor x="768" y="0" name="Anchor-7"/>
  <outline>
    <contour>
      <point x="557" y="1681" type="line"/>
      <point x="557" y="1874" type="line"/>
      <point x="676" y="1874" type="line"/>
      <point x="676" y="1681" type="line"/>
    </contour>
    <contour>
      <point x="862" y="1681" type="line"/>
      <point x="862" y="1874" type="line"/>
      <point x="981" y="1874" type="line"/>
      <point x="981" y="1681" type="line"/>
    </contour>
    <contour>
      <point x="86" y="727" type="qcurve" smooth="yes"/>
      <point x="86" y="871"/>
      <point x="192" y="1140"/>
      <point x="371" y="1342"/>
      <point x="628" y="1464"/>
      <point x="770" y="1464" type="qcurve" smooth="yes"/>
      <point x="888" y="1464"/>
      <point x="1104" y="1381"/>
      <point x="1267" y="1237"/>
      <point x="1388" y="1049"/>
      <point x="1450" y="834"/>
      <point x="1450" y="725" type="qcurve" smooth="yes"/>
      <point x="1450" y="581"/>
      <point x="1345" y="313"/>
      <point x="1166" y="111"/>
      <point x="910" y="-10"/>
      <point x="768" y="-10" type="qcurve" smooth="yes"/>
      <point x="620" y="-10"/>
      <point x="361" y="116"/>
      <point x="186" y="322"/>
      <point x="86" y="587"/>
    </contour>
    <contour>
      <point x="768" y="119" type="qcurve" smooth="yes"/>
      <point x="888" y="119"/>
      <point x="1094" y="225"/>
      <point x="1230" y="397"/>
      <point x="1307" y="614"/>
      <point x="1307" y="727" type="qcurve" smooth="yes"/>
      <point x="1307" y="885"/>
      <point x="1171" y="1161"/>
      <point x="921" y="1333"/>
      <point x="768" y="1333" type="qcurve" smooth="yes"/>
      <point x="648" y="1333"/>
      <point x="442" y="1228"/>
      <point x="306" y="1057"/>
      <point x="229" y="840"/>
      <point x="229" y="727" type="qcurve" smooth="yes"/>
      <point x="229" y="609"/>
      <point x="309" y="389"/>
      <point x="448" y="221"/>
      <point x="652" y="119"/>
    </contour>
  </outline>
</glyph>
<glyph name="multiply" format="2">
  <advance width="935"/>
  <unicode hex="00D7"/>
  <outline>
    <contour>
      <point x="807" y="309" type="line"/>
      <point x="717" y="221" type="line"/>
      <point x="467" y="469" type="line"/>
      <point x="219" y="221" type="line"/>
      <point x="131" y="311" type="line"/>
      <point x="379" y="557" type="line"/>
      <point x="133" y="805" type="line"/>
      <point x="223" y="893" type="line"/>
      <point x="467" y="647" type="line"/>
      <point x="715" y="895" type="line"/>
      <point x="803" y="805" type="line"/>
      <point x="557" y="557" type="line"/>
    </contour>
  </outline>
</glyph>
<glyph name="Oslash" format="2">
  <advance width="1538"/>
  <unicode hex="00D8"/>
  <anchor x="1036" y="1337" name="Anchor-11"/>
  <anchor x="768" y="727" name="Anchor-10"/>
  <anchor x="770" y="1450" name="Anchor-9"/>
  <anchor x="911" y="10" name="Anchor-8"/>
  <anchor x="768" y="0" name="Anchor-7"/>
  <outline>
    <contour>
      <point x="1217" y="1280" type="line"/>
      <point x="1327" y="1173"/>
      <point x="1450" y="879"/>
      <point x="1450" y="725" type="qcurve" smooth="yes"/>
      <point x="1450" y="581"/>
      <point x="1345" y="313"/>
      <point x="1166" y="111"/>
      <point x="910" y="-10"/>
      <point x="768" y="-10" type="qcurve" smooth="yes"/>
      <point x="580" y="-10"/>
      <point x="424" y="90" type="qcurve"/>
      <point x="365" y="0" type="line"/>
      <point x="207" y="0" type="line"/>
      <point x="319" y="170" type="line"/>
      <point x="209" y="276"/>
      <point x="86" y="570"/>
      <point x="86" y="727" type="qcurve" smooth="yes"/>
      <point x="86" y="871"/>
      <point x="192" y="1140"/>
      <point x="371" y="1342"/>
      <point x="628" y="1464"/>
      <point x="770" y="1464" type="qcurve" smooth="yes"/>
      <point x="957" y="1464"/>
      <point x="1112" y="1362" type="qcurve"/>
      <point x="1174" y="1454" type="line"/>
      <point x="1331" y="1454" type="line"/>
    </contour>
    <contour>
      <point x="229" y="727" type="qcurve" smooth="yes"/>
      <point x="229" y="602"/>
      <point x="316" y="372"/>
      <point x="395" y="285" type="qcurve"/>
      <point x="1038" y="1251" type="line"/>
      <point x="913" y="1333"/>
      <point x="768" y="1333" type="qcurve" smooth="yes"/>
      <point x="648" y="1333"/>
      <point x="442" y="1228"/>
      <point x="306" y="1057"/>
      <point x="229" y="840"/>
    </contour>
    <contour>
      <point x="768" y="119" type="qcurve" smooth="yes"/>
      <point x="888" y="119"/>
      <point x="1094" y="225"/>
      <point x="1230" y="397"/>
      <point x="1307" y="614"/>
      <point x="1307" y="727" type="qcurve" smooth="yes"/>
      <point x="1307" y="851"/>
      <point x="1220" y="1080"/>
      <point x="1141" y="1165" type="qcurve"/>
      <point x="498" y="199" type="line"/>
      <point x="625" y="119"/>
    </contour>
  </outline>
</glyph>
<glyph name="Ucircumflex" format="2">
  <advance width="1546"/>
  <unicode hex="00DB"/>
  <anchor x="1452" y="1339" name="Anchor-11"/>
  <anchor x="0" y="0" name="Anchor-10"/>
  <anchor x="774" y="1878" name="Anchor-9"/>
  <anchor x="901" y="2" name="Anchor-8"/>
  <anchor x="774" y="0" name="Anchor-7"/>
  <outline>
    <contour>
      <point x="522" y="1704" type="line"/>
      <point x="723" y="1878" type="line"/>
      <point x="825" y="1878" type="line"/>
      <point x="1028" y="1704" type="line"/>
      <point x="948" y="1661" type="line"/>
      <point x="774" y="1790" type="line"/>
      <point x="600" y="1661" type="line"/>
    </contour>
    <contour>
      <point x="774" y="-10" type="qcurve" smooth="yes"/>
      <point x="640" y="-10"/>
      <point x="428" y="72"/>
      <point x="290" y="208"/>
      <point x="200" y="399"/>
      <point x="162" y="605"/>
      <point x="162" y="721" type="qcurve" smooth="yes"/>
      <point x="162" y="1454" type="line"/>
      <point x="303" y="1454" type="line"/>
      <point x="303" y="721" type="line" smooth="yes"/>
      <point x="303" y="625"/>
      <point x="331" y="457"/>
      <point x="399" y="299"/>
      <point x="503" y="186"/>
      <point x="667" y="119"/>
      <point x="772" y="119" type="qcurve" smooth="yes"/>
      <point x="879" y="119"/>
      <point x="1046" y="188"/>
      <point x="1150" y="302"/>
      <point x="1217" y="461"/>
      <point x="1243" y="627"/>
      <point x="1243" y="721" type="qcurve" smooth="yes"/>
      <point x="1243" y="1454" type="line"/>
      <point x="1386" y="1454" type="line"/>
      <point x="1386" y="721" type="line" smooth="yes"/>
      <point x="1386" y="600"/>
      <point x="1345" y="389"/>
      <point x="1252" y="201"/>
      <point x="1113" y="68"/>
      <point x="904" y="-10"/>
    </contour>
  </outline>
</glyph>
<glyph name="Thorn" format="2">
  <advance width="1234"/>
  <unicode hex="00DE"/>
  <outline>
    <contour>
      <point x="1178" y="709" type="qcurve" smooth="yes"/>
      <point x="1178" y="589"/>
      <point x="1075" y="380"/>
      <point x="881" y="248"/>
      <point x="760" y="248" type="qcurve" smooth="yes"/>
      <point x="326" y="248" type="line"/>
      <point x="326" y="0" type="line"/>
      <point x="182" y="0" type="line"/>
      <point x="182" y="1454" type="line"/>
      <point x="326" y="1454" type="line"/>
      <point x="326" y="1165" type="line"/>
      <point x="745" y="1165" type="line" smooth="yes"/>
      <point x="866" y="1165"/>
      <point x="1069" y="1030"/>
      <point x="1178" y="822"/>
    </contour>
    <contour>
      <point x="1036" y="709" type="qcurve" smooth="yes"/>
      <point x="1036" y="841"/>
      <point x="861" y="1038"/>
      <point x="741" y="1038" type="qcurve" smooth="yes"/>
      <point x="326" y="1038" type="line"/>
      <point x="326" y="377" type="line"/>
      <point x="754" y="377" type="line" smooth="yes"/>
      <point x="838" y="377"/>
      <point x="969" y="473"/>
      <point x="1036" y="623"/>
    </contour>
  </outline>
</glyph>
<glyph name="germandbls" format="2">
  <advance width="1128"/>
  <unicode hex="00DF"/>
  <outline>
    <contour>
      <point x="487" y="117" type="line"/>
      <point x="684" y="120"/>
      <point x="907" y="278"/>
      <point x="907" y="432" type="qcurve" smooth="yes"/>
      <point x="907" y="576"/>
      <point x="718" y="754"/>
      <point x="565" y="754" type="qcurve" smooth="yes"/>
      <point x="526" y="754" type="line"/>
      <point x="526" y="881" type="line"/>
      <point x="563" y="881" type="line" smooth="yes"/>
      <point x="672" y="881"/>
      <point x="811" y="1011"/>
      <point x="811" y="1114" type="qcurve" smooth="yes"/>
      <point x="811" y="1219"/>
      <point x="666" y="1339"/>
      <point x="559" y="1339" type="qcurve" smooth="yes"/>
      <point x="429" y="1339"/>
      <point x="287" y="1167"/>
      <point x="287" y="1034" type="qcurve" smooth="yes"/>
      <point x="287" y="0" type="line"/>
      <point x="154" y="0" type="line"/>
      <point x="154" y="1055" type="line" smooth="yes"/>
      <point x="154" y="1236"/>
      <point x="382" y="1462"/>
      <point x="563" y="1462" type="qcurve" smooth="yes"/>
      <point x="727" y="1462"/>
      <point x="944" y="1279"/>
      <point x="944" y="1135" type="qcurve" smooth="yes"/>
      <point x="944" y="1027"/>
      <point x="819" y="847"/>
      <point x="729" y="825" type="qcurve"/>
      <point x="879" y="793"/>
      <point x="1051" y="575"/>
      <point x="1051" y="424" type="qcurve" smooth="yes"/>
      <point x="1051" y="221"/>
      <point x="747" y="-4"/>
      <point x="487" y="-12" type="qcurve"/>
    </contour>
  </outline>
</glyph>
<glyph name="ae" format="2">
  <advance width="1908"/>
  <unicode hex="00E6"/>
  <anchor x="0" y="0" name="Anchor-11"/>
  <anchor x="0" y="0" name="Anchor-10"/>
  <anchor x="934" y="1067" name="Anchor-9"/>
  <anchor x="0" y="0" name="Anchor-8"/>
  <anchor x="0" y="0" name="Anchor-7"/>
  <outline>
    <contour>
      <point x="68" y="311" type="qcurve" smooth="yes"/>
      <point x="68" y="452"/>
      <point x="316" y="633"/>
      <point x="512" y="633" type="qcurve" smooth="yes"/>
      <point x="655" y="633"/>
      <point x="786" y="592" type="qcurve"/>
      <point x="793" y="682"/>
      <point x="821" y="748" type="qcurve"/>
      <point x="801" y="858"/>
      <point x="647" y="981"/>
      <point x="526" y="981" type="qcurve" smooth="yes"/>
      <point x="368" y="981"/>
      <point x="184" y="854" type="qcurve"/>
      <point x="135" y="946" type="line"/>
      <point x="345" y="1085"/>
      <point x="539" y="1085" type="qcurve" smooth="yes"/>
      <point x="670" y="1085"/>
      <point x="859" y="974"/>
      <point x="907" y="872" type="qcurve"/>
      <point x="975" y="970"/>
      <point x="1189" y="1085"/>
      <point x="1315" y="1085" type="qcurve" smooth="yes"/>
      <point x="1467" y="1085"/>
      <point x="1712" y="935"/>
      <point x="1846" y="683"/>
      <point x="1847" y="532" type="qcurve"/>
      <point x="1845" y="483" type="line"/>
      <point x="918" y="483" type="line"/>
      <point x="931" y="312"/>
      <point x="1166" y="86"/>
      <point x="1327" y="86" type="qcurve" smooth="yes"/>
      <point x="1432" y="86"/>
      <point x="1617" y="194"/>
      <point x="1653" y="279" type="qcurve"/>
      <point x="1776" y="246" type="line"/>
      <point x="1724" y="128"/>
      <point x="1475" y="-20"/>
      <point x="1321" y="-20" type="qcurve" smooth="yes"/>
      <point x="1184" y="-20"/>
      <point x="953" y="107"/>
      <point x="881" y="215" type="qcurve"/>
      <point x="818" y="99"/>
      <point x="557" y="-20"/>
      <point x="420" y="-20" type="qcurve" smooth="yes"/>
      <point x="271" y="-20"/>
      <point x="68" y="171"/>
    </contour>
    <contour>
      <point x="1714" y="578" type="line"/>
      <point x="1700" y="753"/>
      <point x="1476" y="977"/>
      <point x="1150" y="977"/>
      <point x="927" y="751"/>
      <point x="918" y="578" type="qcurve"/>
    </contour>
    <contour>
      <point x="793" y="236" type="qcurve"/>
      <point x="826" y="274"/>
      <point x="829" y="307" type="qcurve"/>
      <point x="790" y="384"/>
      <point x="786" y="504" type="qcurve"/>
      <point x="665" y="545"/>
      <point x="530" y="545" type="qcurve" smooth="yes"/>
      <point x="382" y="545"/>
      <point x="199" y="422"/>
      <point x="199" y="322" type="qcurve" smooth="yes"/>
      <point x="199" y="223"/>
      <point x="347" y="86"/>
      <point x="453" y="86" type="qcurve" smooth="yes"/>
      <point x="561" y="86"/>
      <point x="745" y="168"/>
    </contour>
  </outline>
</glyph>
<glyph name="ccedilla" format="2">
  <advance width="1124"/>
  <unicode hex="00E7"/>
  <anchor x="0" y="0" name="Anchor-11"/>
  <anchor x="0" y="0" name="Anchor-10"/>
  <anchor x="610" y="1067" name="Anchor-9"/>
  <anchor x="0" y="0" name="Anchor-8"/>
  <anchor x="616" y="0" name="Anchor-7"/>
  <outline>
    <contour>
      <point x="1059" y="244" type="line"/>
      <point x="1021" y="146"/>
      <point x="829" y="6"/>
      <point x="705" y="-14" type="qcurve"/>
      <point x="805" y="-94"/>
      <point x="805" y="-195" type="qcurve" smooth="yes"/>
      <point x="805" y="-278"/>
      <point x="691" y="-369"/>
      <point x="592" y="-369" type="qcurve" smooth="yes"/>
      <point x="471" y="-369"/>
      <point x="358" y="-311" type="qcurve"/>
      <point x="399" y="-231" type="line"/>
      <point x="494" y="-276"/>
      <point x="569" y="-276" type="qcurve" smooth="yes"/>
      <point x="711" y="-276"/>
      <point x="711" y="-172" type="qcurve" smooth="yes"/>
      <point x="711" y="-89"/>
      <point x="600" y="-20" type="qcurve"/>
      <point x="452" y="-16"/>
      <point x="212" y="138"/>
      <point x="80" y="389"/>
      <point x="80" y="537" type="qcurve" smooth="yes"/>
      <point x="80" y="688"/>
      <point x="214" y="938"/>
      <point x="460" y="1085"/>
      <point x="614" y="1085" type="qcurve" smooth="yes"/>
      <point x="763" y="1085"/>
      <point x="991" y="949"/>
      <point x="1049" y="831" type="qcurve"/>
      <point x="913" y="788" type="line"/>
      <point x="869" y="870"/>
      <point x="706" y="963"/>
      <point x="608" y="963" type="qcurve" smooth="yes"/>
      <point x="444" y="963"/>
      <point x="221" y="719"/>
      <point x="221" y="537" type="qcurve" smooth="yes"/>
      <point x="221" y="357"/>
      <point x="451" y="102"/>
      <point x="610" y="102" type="qcurve" smooth="yes"/>
      <point x="712" y="102"/>
      <point x="897" y="211"/>
      <point x="922" y="285" type="qcurve"/>
    </contour>
  </outline>
</glyph>
<glyph name="igrave" format="2">
  <advance width="446"/>
  <unicode hex="00EC"/>
  <anchor x="0" y="0" name="Anchor-11"/>
  <anchor x="0" y="0" name="Anchor-10"/>
  <anchor x="168" y="1497" name="Anchor-9"/>
  <anchor x="0" y="0" name="Anchor-8"/>
  <anchor x="0" y="0" name="Anchor-7"/>
  <outline>
    <contour>
      <point x="33" y="1497" type="line"/>
      <point x="178" y="1497" type="line"/>
      <point x="301" y="1307" type="line"/>
      <point x="211" y="1272" type="line"/>
    </contour>
    <contour>
      <point x="154" y="0" type="line"/>
      <point x="154" y="1067" type="line"/>
      <point x="293" y="1067" type="line"/>
      <point x="293" y="0" type="line"/>
    </contour>
  </outline>
</glyph>
<glyph name="icircumflex" format="2">
  <advance width="446"/>
  <unicode hex="00EE"/>
  <anchor x="0" y="0" name="Anchor-11"/>
  <anchor x="0" y="0" name="Anchor-10"/>
  <anchor x="223" y="1495" name="Anchor-9"/>
  <anchor x="0" y="0" name="Anchor-8"/>
  <anchor x="0" y="0" name="Anchor-7"/>
  <outline>
    <contour>
      <point x="-29" y="1321" type="line"/>
      <point x="172" y="1495" type="line"/>
      <point x="274" y="1495" type="line"/>
      <point x="477" y="1321" type="line"/>
      <point x="397" y="1278" type="line"/>
      <point x="223" y="1407" type="line"/>
      <point x="49" y="1278" type="line"/>
    </contour>
    <contour>
      <point x="154" y="0" type="line"/>
      <point x="154" y="1067" type="line"/>
      <point x="293" y="1067" type="line"/>
      <point x="293" y="0" type="line"/>
    </contour>
  </outline>
</glyph>
<glyph name="idieresis" format="2">
  <advance width="446"/>
  <unicode hex="00EF"/>
  <anchor x="0" y="0" name="Anchor-11"/>
  <anchor x="0" y="0" name="Anchor-10"/>
  <anchor x="223" y="1477" name="Anchor-9"/>
  <anchor x="0" y="0" name="Anchor-8"/>
  <anchor x="0" y="0" name="Anchor-7"/>
  <outline>
    <contour>
      <point x="10" y="1298" type="line"/>
      <point x="10" y="1491" type="line"/>
      <point x="129" y="1491" type="line"/>
      <point x="129" y="1298" type="line"/>
    </contour>
    <contour>
      <point x="315" y="1298" type="line"/>
      <point x="315" y="1491" type="line"/>
      <point x="434" y="1491" type="line"/>
      <point x="434" y="1298" type="line"/>
    </contour>
    <contour>
      <point x="154" y="0" type="line"/>
      <point x="154" y="1067" type="line"/>
      <point x="293" y="1067" type="line"/>
      <point x="293" y="0" type="line"/>
    </contour>
  </outline>
</glyph>
<glyph name="eth" format="2">
  <advance width="1232"/>
  <unicode hex="00F0"/>
  <outline>
    <contour>
      <point x="848" y="1296" type="line"/>
      <point x="1145" y="996"/>
      <point x="1145" y="567" type="qcurve" smooth="yes"/>
      <point x="1145" y="438"/>
      <point x="1059" y="216"/>
      <point x="912" y="65"/>
      <point x="715" y="-20"/>
      <point x="606" y="-20" type="qcurve" smooth="yes"/>
      <point x="501" y="-20"/>
      <point x="309" y="58"/>
      <point x="169" y="191"/>
      <point x="86" y="375"/>
      <point x="86" y="477" type="qcurve" smooth="yes"/>
      <point x="86" y="609"/>
      <point x="221" y="837"/>
      <point x="453" y="971"/>
      <point x="588" y="971" type="qcurve" smooth="yes"/>
      <point x="722" y="971"/>
      <point x="948" y="838"/>
      <point x="1004" y="731" type="qcurve"/>
      <point x="958" y="1027"/>
      <point x="741" y="1241" type="qcurve"/>
      <point x="510" y="1098" type="line"/>
      <point x="465" y="1161" type="line"/>
      <point x="684" y="1294" type="line"/>
      <point x="568" y="1393"/>
      <point x="389" y="1495" type="qcurve"/>
      <point x="586" y="1495" type="line"/>
      <point x="698" y="1430"/>
      <point x="791" y="1350" type="qcurve"/>
      <point x="969" y="1460" type="line"/>
      <point x="1014" y="1399" type="line"/>
    </contour>
    <contour>
      <point x="610" y="102" type="qcurve" smooth="yes"/>
      <point x="773" y="102"/>
      <point x="1004" y="335"/>
      <point x="1004" y="494" type="qcurve" smooth="yes"/>
      <point x="1004" y="645"/>
      <point x="777" y="854"/>
      <point x="455" y="854"/>
      <point x="227" y="632"/>
      <point x="227" y="475" type="qcurve" smooth="yes"/>
      <point x="227" y="320"/>
      <point x="451" y="102"/>
    </contour>
  </outline>
</glyph>
<glyph name="ntilde" format="2">
  <advance width="1193"/>
  <unicode hex="00F1"/>
  <anchor x="0" y="0" name="Anchor-11"/>
  <anchor x="0" y="0" name="Anchor-10"/>
  <anchor x="606" y="1495" name="Anchor-9"/>
  <anchor x="0" y="0" name="Anchor-8"/>
  <anchor x="594" y="0" name="Anchor-7"/>
  <outline>
    <contour>
      <point x="469" y="1389" type="qcurve" smooth="yes"/>
      <point x="438" y="1389"/>
      <point x="393" y="1362"/>
      <point x="374" y="1323"/>
      <point x="367" y="1297"/>
      <point x="367" y="1290" type="qcurve"/>
      <point x="281" y="1290" type="line"/>
      <point x="281" y="1306"/>
      <point x="297" y="1360"/>
      <point x="334" y="1431"/>
      <point x="414" y="1481"/>
      <point x="467" y="1481" type="qcurve" smooth="yes"/>
      <point x="515" y="1481"/>
      <point x="604" y="1438"/>
      <point x="687" y="1395"/>
      <point x="729" y="1395" type="qcurve" smooth="yes"/>
      <point x="759" y="1395"/>
      <point x="805" y="1415"/>
      <point x="828" y="1441"/>
      <point x="842" y="1472"/>
      <point x="846" y="1490"/>
      <point x="846" y="1495" type="qcurve"/>
      <point x="932" y="1495" type="line"/>
      <point x="932" y="1484"/>
      <point x="923" y="1446"/>
      <point x="895" y="1389"/>
      <point x="853" y="1341"/>
      <point x="778" y="1307"/>
      <point x="731" y="1307" type="qcurve" smooth="yes"/>
      <point x="679" y="1307"/>
      <point x="584" y="1348"/>
      <point x="504" y="1389"/>
    </contour>
    <contour>
      <point x="1051" y="0" type="line"/>
      <point x="911" y="0" type="line"/>
      <point x="911" y="596" type="line" smooth="yes"/>
      <point x="911" y="784"/>
      <point x="800" y="958"/>
      <point x="682" y="958" type="qcurve" smooth="yes"/>
      <point x="557" y="958"/>
      <point x="331" y="783"/>
      <point x="293" y="653" type="qcurve"/>
      <point x="293" y="0" type="line"/>
      <point x="154" y="0" type="line"/>
      <point x="154" y="1067" type="line"/>
      <point x="281" y="1067" type="line"/>
      <point x="281" y="825" type="line"/>
      <point x="346" y="943"/>
      <point x="591" y="1085"/>
      <point x="733" y="1085" type="qcurve" smooth="yes"/>
      <point x="820" y="1085"/>
      <point x="945" y="1022"/>
      <point x="1018" y="898"/>
      <point x="1051" y="734"/>
      <point x="1051" y="625" type="qcurve" smooth="yes"/>
    </contour>
  </outline>
</glyph>
<glyph name="divide" format="2">
  <advance width="1099"/>
  <unicode hex="00F7"/>
  <outline>
    <contour>
      <point x="489" y="817" type="line"/>
      <point x="489" y="1004" type="line"/>
      <point x="610" y="1004" type="line"/>
      <point x="610" y="817" type="line"/>
    </contour>
    <contour>
      <point x="137" y="520" type="line"/>
      <point x="137" y="637" type="line"/>
      <point x="963" y="637" type="line"/>
      <point x="963" y="520" type="line"/>
    </contour>
    <contour>
      <point x="489" y="152" type="line"/>
      <point x="489" y="336" type="line"/>
      <point x="610" y="336" type="line"/>
      <point x="610" y="152" type="line"/>
    </contour>
  </outline>
</glyph>
<glyph name="uacute" format="2">
  <advance width="1216"/>
  <unicode hex="00FA"/>
  <anchor x="1112" y="950" name="Anchor-11"/>
  <anchor x="0" y="0" name="Anchor-10"/>
  <anchor x="684" y="1495" name="Anchor-9"/>
  <anchor x="1104" y="0" name="Anchor-8"/>
  <anchor x="610" y="10" name="Anchor-7"/>
  <outline>
    <contour>
      <point x="641" y="1270" type="line"/>
      <point x="549" y="1305" type="line"/>
      <point x="670" y="1495" type="line"/>
      <point x="817" y="1495" type="line"/>
    </contour>
    <contour>
      <point x="143" y="440" type="qcurve" smooth="yes"/>
      <point x="143" y="1067" type="line"/>
      <point x="283" y="1067" type="line"/>
      <point x="283" y="465" type="line" smooth="yes"/>
      <point x="283" y="102"/>
      <point x="530" y="102" type="qcurve" smooth="yes"/>
      <point x="654" y="102"/>
      <point x="868" y="263"/>
      <point x="915" y="395" type="qcurve"/>
      <point x="915" y="1067" type="line"/>
      <point x="1055" y="1067" type="line"/>
      <point x="1055" y="168" type="line" smooth="yes"/>
      <point x="1055" y="139"/>
      <point x="1078" y="113"/>
      <point x="1104" y="111" type="qcurve"/>
      <point x="1104" y="0" type="line"/>
      <point x="1071" y="-4"/>
      <point x="1038" y="-4" type="qcurve" smooth="yes"/>
      <point x="995" y="-1"/>
      <point x="938" y="57"/>
      <point x="936" y="98" type="qcurve" smooth="yes"/>
      <point x="932" y="242" type="line"/>
      <point x="864" y="119"/>
      <point x="624" y="-20"/>
      <point x="483" y="-20" type="qcurve" smooth="yes"/>
      <point x="316" y="-20"/>
      <point x="143" y="213"/>
    </contour>
  </outline>
</glyph>
<glyph name="yacute" format="2">
  <advance width="1110"/>
  <unicode hex="00FD"/>
  <anchor x="0" y="0" name="Anchor-11"/>
  <anchor x="0" y="0" name="Anchor-10"/>
  <anchor x="659" y="1495" name="Anchor-9"/>
  <anchor x="0" y="0" name="Anchor-8"/>
  <anchor x="766" y="0" name="Anchor-7"/>
  <outline>
    <contour>
      <point x="616" y="1270" type="line"/>
      <point x="524" y="1305" type="line"/>
      <point x="645" y="1495" type="line"/>
      <point x="793" y="1495" type="line"/>
    </contour>
    <contour>
      <point x="215" y="-328" type="line"/>
      <point x="292" y="-332"/>
      <point x="309" y="-328" type="qcurve" smooth="yes"/>
      <point x="346" y="-324"/>
      <point x="411" y="-209"/>
      <point x="496" y="0" type="qcurve"/>
      <point x="31" y="1067" type="line"/>
      <point x="178" y="1067" type="line"/>
      <point x="569" y="143" type="line"/>
      <point x="930" y="1067" type="line"/>
      <point x="1069" y="1067" type="line"/>
      <point x="516" y="-309" type="line" smooth="yes"/>
      <point x="460" y="-454"/>
      <point x="299" y="-457" type="qcurve" smooth="yes"/>
      <point x="258" y="-460"/>
      <point x="215" y="-453" type="qcurve"/>
    </contour>
  </outline>
</glyph>
<glyph name="thorn" format="2">
  <advance width="1234"/>
  <unicode hex="00FE"/>
  <outline>
    <contour>
      <point x="633" y="-33" type="qcurve" smooth="yes"/>
      <point x="526" y="-33"/>
      <point x="344" y="74"/>
      <point x="295" y="152" type="qcurve"/>
      <point x="295" y="-436" type="line"/>
      <point x="154" y="-436" type="line"/>
      <point x="154" y="1454" type="line"/>
      <point x="295" y="1454" type="line"/>
      <point x="295" y="889" type="line"/>
      <point x="436" y="1090"/>
      <point x="651" y="1090" type="qcurve" smooth="yes"/>
      <point x="765" y="1090"/>
      <point x="960" y="989"/>
      <point x="1086" y="827"/>
      <point x="1157" y="628"/>
      <point x="1157" y="526" type="qcurve" smooth="yes"/>
      <point x="1154" y="379"/>
      <point x="1016" y="123"/>
      <point x="776" y="-33"/>
    </contour>
    <contour>
      <point x="645" y="963" type="qcurve" smooth="yes"/>
      <point x="530" y="963"/>
      <point x="352" y="822"/>
      <point x="295" y="713" type="qcurve"/>
      <point x="295" y="352" type="line" smooth="yes"/>
      <point x="295" y="289"/>
      <point x="404" y="167"/>
      <point x="560" y="96"/>
      <point x="631" y="96" type="qcurve" smooth="yes"/>
      <point x="739" y="96"/>
      <point x="917" y="220"/>
      <point x="1014" y="417"/>
      <point x="1014" y="528" type="qcurve" smooth="yes"/>
      <point x="1014" y="641"/>
      <point x="923" y="839"/>
      <point x="752" y="963"/>
    </contour>
  </outline>
</glyph>
<glyph name="Aogonek" format="2">
  <advance width="1384"/>
  <unicode hex="0104"/>
  <anchor x="0" y="0" name="Anchor-11"/>
  <anchor x="0" y="0" name="Anchor-10"/>
  <anchor x="692" y="1450" name="Anchor-9"/>
  <anchor x="1358" y="0" name="Anchor-8"/>
  <anchor x="713" y="0" name="Anchor-7"/>
  <outline>
    <contour>
      <point x="1198" y="-197" type="qcurve" smooth="yes"/>
      <point x="1198" y="-235"/>
      <point x="1273" y="-271"/>
      <point x="1354" y="-281" type="qcurve"/>
      <point x="1319" y="-373" type="line"/>
      <point x="1100" y="-351"/>
      <point x="1100" y="-215" type="qcurve" smooth="yes"/>
      <point x="1100" y="-106"/>
      <point x="1239" y="0" type="qcurve"/>
      <point x="1206" y="0" type="line"/>
      <point x="1018" y="455" type="line"/>
      <point x="365" y="455" type="line"/>
      <point x="178" y="0" type="line"/>
      <point x="25" y="0" type="line"/>
      <point x="633" y="1454" type="line"/>
      <point x="754" y="1454" type="line"/>
      <point x="1358" y="0" type="line"/>
      <point x="1273" y="-64"/>
      <point x="1198" y="-157"/>
    </contour>
    <contour>
      <point x="395" y="567" type="line"/>
      <point x="985" y="567" type="line"/>
      <point x="692" y="1286" type="line"/>
    </contour>
  </outline>
</glyph>
<glyph name="aogonek" format="2">
  <advance width="1116"/>
  <unicode hex="0105"/>
  <anchor x="0" y="0" name="Anchor-11"/>
  <anchor x="0" y="0" name="Anchor-10"/>
  <anchor x="539" y="1067" name="Anchor-9"/>
  <anchor x="1020" y="0" name="Anchor-8"/>
  <anchor x="594" y="0" name="Anchor-7"/>
  <outline>
    <contour>
      <point x="1020" y="0" type="line"/>
      <point x="935" y="-64"/>
      <point x="860" y="-157"/>
      <point x="860" y="-197" type="qcurve" smooth="yes"/>
      <point x="860" y="-235"/>
      <point x="935" y="-271"/>
      <point x="1016" y="-281" type="qcurve"/>
      <point x="981" y="-373" type="line"/>
      <point x="762" y="-351"/>
      <point x="762" y="-215" type="qcurve" smooth="yes"/>
      <point x="762" y="-103"/>
      <point x="909" y="6" type="qcurve"/>
      <point x="854" y="31"/>
      <point x="850" y="94" type="qcurve" smooth="yes"/>
      <point x="848" y="172" type="line"/>
      <point x="777" y="82"/>
      <point x="549" y="-20"/>
      <point x="428" y="-20" type="qcurve" smooth="yes"/>
      <point x="273" y="-20"/>
      <point x="68" y="169"/>
      <point x="68" y="307" type="qcurve" smooth="yes"/>
      <point x="68" y="454"/>
      <point x="317" y="633"/>
      <point x="518" y="633" type="qcurve" smooth="yes"/>
      <point x="690" y="633"/>
      <point x="829" y="584" type="qcurve"/>
      <point x="829" y="674" type="line" smooth="yes"/>
      <point x="829" y="810"/>
      <point x="668" y="969"/>
      <point x="528" y="969" type="qcurve" smooth="yes"/>
      <point x="367" y="969"/>
      <point x="186" y="844" type="qcurve"/>
      <point x="133" y="942" type="line"/>
      <point x="341" y="1085"/>
      <point x="543" y="1085" type="qcurve" smooth="yes"/>
      <point x="740" y="1085"/>
      <point x="969" y="859"/>
      <point x="969" y="662" type="qcurve" smooth="yes"/>
      <point x="969" y="168" type="line" smooth="yes"/>
      <point x="969" y="139"/>
      <point x="993" y="113"/>
      <point x="1020" y="111" type="qcurve"/>
    </contour>
    <contour>
      <point x="829" y="328" type="qcurve" smooth="yes"/>
      <point x="829" y="483" type="line"/>
      <point x="690" y="539"/>
      <point x="535" y="539" type="qcurve" smooth="yes"/>
      <point x="384" y="539"/>
      <point x="201" y="418"/>
      <point x="201" y="317" type="qcurve" smooth="yes"/>
      <point x="201" y="223"/>
      <point x="343" y="86"/>
      <point x="461" y="86" type="qcurve" smooth="yes"/>
      <point x="560" y="86"/>
      <point x="734" y="163"/>
      <point x="782" y="225" type="qcurve"/>
      <point x="829" y="278"/>
    </contour>
  </outline>
</glyph>
<glyph name="cacute" format="2">
  <advance width="1124"/>
  <unicode hex="0107"/>
  <anchor x="0" y="0" name="Anchor-11"/>
  <anchor x="0" y="0" name="Anchor-10"/>
  <anchor x="700" y="1495" name="Anchor-9"/>
  <anchor x="0" y="0" name="Anchor-8"/>
  <anchor x="616" y="0" name="Anchor-7"/>
  <outline>
    <contour>
      <point x="657" y="1270" type="line"/>
      <point x="565" y="1305" type="line"/>
      <point x="686" y="1495" type="line"/>
      <point x="834" y="1495" type="line"/>
    </contour>
    <contour>
      <point x="616" y="-20" type="qcurve" smooth="yes"/>
      <point x="464" y="-20"/>
      <point x="217" y="132"/>
      <point x="80" y="386"/>
      <point x="80" y="688"/>
      <point x="214" y="938"/>
      <point x="460" y="1085"/>
      <point x="614" y="1085" type="qcurve" smooth="yes"/>
      <point x="763" y="1085"/>
      <point x="991" y="949"/>
      <point x="1049" y="831" type="qcurve"/>
      <point x="913" y="788" type="line"/>
      <point x="869" y="870"/>
      <point x="706" y="963"/>
      <point x="608" y="963" type="qcurve" smooth="yes"/>
      <point x="444" y="963"/>
      <point x="221" y="719"/>
      <point x="221" y="537" type="qcurve" smooth="yes"/>
      <point x="221" y="357"/>
      <point x="451" y="102"/>
      <point x="610" y="102" type="qcurve" smooth="yes"/>
      <point x="712" y="102"/>
      <point x="897" y="211"/>
      <point x="922" y="285" type="qcurve"/>
      <point x="1059" y="244" type="line"/>
      <point x="1014" y="128"/>
      <point x="769" y="-20"/>
    </contour>
  </outline>
</glyph>
<glyph name="Ccircumflex" format="2">
  <advance width="1404"/>
  <unicode hex="0108"/>
  <anchor x="0" y="0" name="Anchor-11"/>
  <anchor x="0" y="0" name="Anchor-10"/>
  <anchor x="772" y="1878" name="Anchor-9"/>
  <anchor x="0" y="0" name="Anchor-8"/>
  <anchor x="768" y="0" name="Anchor-7"/>
  <outline>
    <contour>
      <point x="520" y="1704" type="line"/>
      <point x="721" y="1878" type="line"/>
      <point x="823" y="1878" type="line"/>
      <point x="1026" y="1704" type="line"/>
      <point x="946" y="1661" type="line"/>
      <point x="772" y="1790" type="line"/>
      <point x="598" y="1661" type="line"/>
    </contour>
    <contour>
      <point x="776" y="1462" type="qcurve" smooth="yes"/>
      <point x="964" y="1462"/>
      <point x="1245" y="1289"/>
      <point x="1313" y="1145" type="qcurve"/>
      <point x="1200" y="1075" type="line"/>
      <point x="1155" y="1167"/>
      <point x="1007" y="1287"/>
      <point x="853" y="1333"/>
      <point x="768" y="1333" type="qcurve" smooth="yes"/>
      <point x="667" y="1333"/>
      <point x="491" y="1264"/>
      <point x="364" y="1146"/>
      <point x="273" y="991"/>
      <point x="229" y="818"/>
      <point x="229" y="729" type="qcurve" smooth="yes"/>
      <point x="229" y="569"/>
      <point x="371" y="288"/>
      <point x="624" y="117"/>
      <point x="774" y="117" type="qcurve" smooth="yes"/>
      <point x="860" y="117"/>
      <point x="1026" y="172"/>
      <point x="1179" y="297"/>
      <point x="1223" y="387" type="qcurve"/>
      <point x="1341" y="326" type="line"/>
      <point x="1296" y="222"/>
      <point x="1105" y="65"/>
      <point x="880" y="-12"/>
      <point x="766" y="-12" type="qcurve" smooth="yes"/>
      <point x="650" y="-12"/>
      <point x="436" y="72"/>
      <point x="272" y="219"/>
      <point x="150" y="408"/>
      <point x="86" y="627"/>
      <point x="86" y="737" type="qcurve" smooth="yes"/>
      <point x="86" y="870"/>
      <point x="180" y="1126"/>
      <point x="351" y="1334"/>
      <point x="618" y="1462"/>
    </contour>
  </outline>
</glyph>
<glyph name="Dcaron" format="2">
  <advance width="1464"/>
  <unicode hex="010E"/>
  <anchor x="0" y="0" name="Anchor-11"/>
  <anchor x="731" y="727" name="Anchor-10"/>
  <anchor x="705" y="1878" name="Anchor-9"/>
  <anchor x="0" y="0" name="Anchor-8"/>
  <anchor x="733" y="0" name="Anchor-7"/>
  <outline>
    <contour>
      <point x="530" y="1878" type="line"/>
      <point x="705" y="1749" type="line"/>
      <point x="879" y="1878" type="line"/>
      <point x="958" y="1837" type="line"/>
      <point x="756" y="1661" type="line"/>
      <point x="653" y="1661" type="line"/>
      <point x="453" y="1837" type="line"/>
    </contour>
    <contour>
      <point x="182" y="0" type="line"/>
      <point x="182" y="1454" type="line"/>
      <point x="676" y="1454" type="line" smooth="yes"/>
      <point x="812" y="1454"/>
      <point x="1040" y="1380"/>
      <point x="1203" y="1248"/>
      <point x="1317" y="1067"/>
      <point x="1372" y="850"/>
      <point x="1372" y="729" type="qcurve" smooth="yes"/>
      <point x="1372" y="398"/>
      <point x="993" y="0"/>
      <point x="676" y="0" type="qcurve" smooth="yes"/>
    </contour>
    <contour>
      <point x="676" y="1327" type="qcurve" smooth="yes"/>
      <point x="326" y="1327" type="line"/>
      <point x="326" y="127" type="line"/>
      <point x="676" y="127" type="line" smooth="yes"/>
      <point x="851" y="127"/>
      <point x="1105" y="287"/>
      <point x="1229" y="556"/>
      <point x="1229" y="729" type="qcurve" smooth="yes"/>
      <point x="1229" y="996"/>
      <point x="936" y="1327"/>
    </contour>
  </outline>
</glyph>
<glyph name="Dcroat" format="2">
  <advance width="1476"/>
  <unicode hex="0110"/>
  <anchor x="0" y="0" name="Anchor-11"/>
  <anchor x="743" y="727" name="Anchor-10"/>
  <anchor x="717" y="1450" name="Anchor-9"/>
  <anchor x="0" y="0" name="Anchor-8"/>
  <anchor x="745" y="0" name="Anchor-7"/>
  <outline>
    <contour>
      <point x="688" y="1454" type="line" smooth="yes"/>
      <point x="824" y="1454"/>
      <point x="1052" y="1380"/>
      <point x="1215" y="1248"/>
      <point x="1329" y="1067"/>
      <point x="1384" y="850"/>
      <point x="1384" y="729" type="qcurve" smooth="yes"/>
      <point x="1384" y="398"/>
      <point x="1005" y="0"/>
      <point x="688" y="0" type="qcurve" smooth="yes"/>
      <point x="195" y="0" type="line"/>
      <point x="195" y="676" type="line"/>
      <point x="70" y="676" type="line"/>
      <point x="70" y="786" type="line"/>
      <point x="195" y="786" type="line"/>
      <point x="195" y="1454" type="line"/>
    </contour>
    <contour>
      <point x="688" y="127" type="line" smooth="yes"/>
      <point x="863" y="127"/>
      <point x="1117" y="287"/>
      <point x="1241" y="556"/>
      <point x="1241" y="729" type="qcurve" smooth="yes"/>
      <point x="1241" y="996"/>
      <point x="948" y="1327"/>
      <point x="688" y="1327" type="qcurve" smooth="yes"/>
      <point x="338" y="1327" type="line"/>
      <point x="338" y="786" type="line"/>
      <point x="686" y="786" type="line"/>
      <point x="686" y="676" type="line"/>
      <point x="338" y="676" type="line"/>
      <point x="338" y="127" type="line"/>
    </contour>
  </outline>
</glyph>
<glyph name="Emacron" format="2">
  <advance width="1247"/>
  <unicode hex="0112"/>
  <anchor x="0" y="0" name="Anchor-11"/>
  <anchor x="0" y="0" name="Anchor-10"/>
  <anchor x="690" y="1837" name="Anchor-9"/>
  <anchor x="1159" y="0" name="Anchor-8"/>
  <anchor x="690" y="0" name="Anchor-7"/>
  <outline>
    <contour>
      <point x="395" y="1741" type="line"/>
      <point x="395" y="1837" type="line"/>
      <point x="987" y="1837" type="line"/>
      <point x="987" y="1741" type="line"/>
    </contour>
    <contour>
      <point x="1159" y="127" type="line"/>
      <point x="1159" y="0" type="line"/>
      <point x="182" y="0" type="line"/>
      <point x="182" y="1454" type="line"/>
      <point x="1141" y="1454" type="line"/>
      <point x="1141" y="1327" type="line"/>
      <point x="326" y="1327" type="line"/>
      <point x="326" y="803" type="line"/>
      <point x="1036" y="803" type="line"/>
      <point x="1036" y="682" type="line"/>
      <point x="326" y="682" type="line"/>
      <point x="326" y="127" type="line"/>
    </contour>
  </outline>
</glyph>
<glyph name="Ebreve" format="2">
  <advance width="1247"/>
  <unicode hex="0114"/>
  <anchor x="0" y="0" name="Anchor-11"/>
  <anchor x="0" y="0" name="Anchor-10"/>
  <anchor x="690" y="1831" name="Anchor-9"/>
  <anchor x="1159" y="0" name="Anchor-8"/>
  <anchor x="690" y="0" name="Anchor-7"/>
  <outline>
    <contour>
      <point x="807" y="1878" type="qcurve"/>
      <point x="891" y="1878" type="line"/>
      <point x="891" y="1791"/>
      <point x="774" y="1671"/>
      <point x="690" y="1671" type="qcurve" smooth="yes"/>
      <point x="605" y="1671"/>
      <point x="489" y="1790"/>
      <point x="489" y="1878" type="qcurve"/>
      <point x="575" y="1878" type="line"/>
      <point x="575" y="1826"/>
      <point x="646" y="1743"/>
      <point x="690" y="1743" type="qcurve" smooth="yes"/>
      <point x="733" y="1743"/>
      <point x="801" y="1821"/>
    </contour>
    <contour>
      <point x="1159" y="127" type="line"/>
      <point x="1159" y="0" type="line"/>
      <point x="182" y="0" type="line"/>
      <point x="182" y="1454" type="line"/>
      <point x="1141" y="1454" type="line"/>
      <point x="1141" y="1327" type="line"/>
      <point x="326" y="1327" type="line"/>
      <point x="326" y="803" type="line"/>
      <point x="1036" y="803" type="line"/>
      <point x="1036" y="682" type="line"/>
      <point x="326" y="682" type="line"/>
      <point x="326" y="127" type="line"/>
    </contour>
  </outline>
</glyph>
<glyph name="ebreve" format="2">
  <advance width="1202"/>
  <unicode hex="0115"/>
  <anchor x="0" y="0" name="Anchor-11"/>
  <anchor x="0" y="0" name="Anchor-10"/>
  <anchor x="608" y="1448" name="Anchor-9"/>
  <anchor x="760" y="0" name="Anchor-8"/>
  <anchor x="614" y="0" name="Anchor-7"/>
  <outline>
    <contour>
      <point x="725" y="1495" type="qcurve"/>
      <point x="809" y="1495" type="line"/>
      <point x="809" y="1408"/>
      <point x="692" y="1288"/>
      <point x="608" y="1288" type="qcurve" smooth="yes"/>
      <point x="523" y="1288"/>
      <point x="408" y="1407"/>
      <point x="408" y="1495" type="qcurve"/>
      <point x="494" y="1495" type="line"/>
      <point x="494" y="1443"/>
      <point x="564" y="1360"/>
      <point x="608" y="1360" type="qcurve" smooth="yes"/>
      <point x="651" y="1360"/>
      <point x="719" y="1438"/>
    </contour>
    <contour>
      <point x="614" y="-20" type="qcurve" smooth="yes"/>
      <point x="463" y="-20"/>
      <point x="216" y="132"/>
      <point x="80" y="387"/>
      <point x="80" y="537" type="qcurve" smooth="yes"/>
      <point x="80" y="685"/>
      <point x="216" y="936"/>
      <point x="462" y="1085"/>
      <point x="612" y="1085" type="qcurve" smooth="yes"/>
      <point x="764" y="1085"/>
      <point x="1009" y="934"/>
      <point x="1141" y="685"/>
      <point x="1141" y="539" type="qcurve" smooth="yes"/>
      <point x="1141" y="493"/>
      <point x="1139" y="483" type="qcurve"/>
      <point x="225" y="483" type="line"/>
      <point x="238" y="312"/>
      <point x="466" y="86"/>
      <point x="621" y="86" type="qcurve" smooth="yes"/>
      <point x="726" y="86"/>
      <point x="910" y="193"/>
      <point x="948" y="279" type="qcurve"/>
      <point x="1069" y="246" type="line"/>
      <point x="1019" y="128"/>
      <point x="768" y="-20"/>
    </contour>
    <contour>
      <point x="221" y="584" type="qcurve"/>
      <point x="1010" y="584" type="line"/>
      <point x="997" y="756"/>
      <point x="772" y="977"/>
      <point x="456" y="977"/>
      <point x="231" y="755"/>
    </contour>
  </outline>
</glyph>
<glyph name="Eogonek" format="2">
  <advance width="1247"/>
  <unicode hex="0118"/>
  <anchor x="0" y="0" name="Anchor-11"/>
  <anchor x="0" y="0" name="Anchor-10"/>
  <anchor x="690" y="1450" name="Anchor-9"/>
  <anchor x="1159" y="0" name="Anchor-8"/>
  <anchor x="690" y="0" name="Anchor-7"/>
  <outline>
    <contour>
      <point x="1159" y="0" type="line"/>
      <point x="1074" y="-64"/>
      <point x="999" y="-157"/>
      <point x="999" y="-197" type="qcurve" smooth="yes"/>
      <point x="999" y="-235"/>
      <point x="1074" y="-271"/>
      <point x="1155" y="-281" type="qcurve"/>
      <point x="1120" y="-373" type="line"/>
      <point x="901" y="-351"/>
      <point x="901" y="-215" type="qcurve" smooth="yes"/>
      <point x="901" y="-106"/>
      <point x="1040" y="0" type="qcurve"/>
      <point x="182" y="0" type="line"/>
      <point x="182" y="1454" type="line"/>
      <point x="1141" y="1454" type="line"/>
      <point x="1141" y="1327" type="line"/>
      <point x="326" y="1327" type="line"/>
      <point x="326" y="803" type="line"/>
      <point x="1036" y="803" type="line"/>
      <point x="1036" y="682" type="line"/>
      <point x="326" y="682" type="line"/>
      <point x="326" y="127" type="line"/>
      <point x="1159" y="127" type="line"/>
    </contour>
  </outline>
</glyph>
<glyph name="eogonek" format="2">
  <advance width="1202"/>
  <unicode hex="0119"/>
  <anchor x="0" y="0" name="Anchor-11"/>
  <anchor x="0" y="0" name="Anchor-10"/>
  <anchor x="608" y="1067" name="Anchor-9"/>
  <anchor x="760" y="0" name="Anchor-8"/>
  <anchor x="614" y="0" name="Anchor-7"/>
  <outline>
    <contour>
      <point x="1141" y="539" type="qcurve" smooth="yes"/>
      <point x="1141" y="493"/>
      <point x="1139" y="483" type="qcurve"/>
      <point x="225" y="483" type="line"/>
      <point x="238" y="312"/>
      <point x="466" y="86"/>
      <point x="621" y="86" type="qcurve" smooth="yes"/>
      <point x="726" y="86"/>
      <point x="910" y="193"/>
      <point x="948" y="279" type="qcurve"/>
      <point x="1069" y="246" type="line"/>
      <point x="1033" y="157"/>
      <point x="866" y="26"/>
      <point x="756" y="-2" type="qcurve"/>
      <point x="673" y="-67"/>
      <point x="600" y="-158"/>
      <point x="600" y="-197" type="qcurve" smooth="yes"/>
      <point x="600" y="-235"/>
      <point x="675" y="-271"/>
      <point x="756" y="-281" type="qcurve"/>
      <point x="721" y="-373" type="line"/>
      <point x="502" y="-351"/>
      <point x="502" y="-215" type="qcurve" smooth="yes"/>
      <point x="502" y="-113"/>
      <point x="614" y="-20" type="qcurve"/>
      <point x="463" y="-20"/>
      <point x="216" y="132"/>
      <point x="80" y="387"/>
      <point x="80" y="537" type="qcurve" smooth="yes"/>
      <point x="80" y="685"/>
      <point x="216" y="936"/>
      <point x="462" y="1085"/>
      <point x="612" y="1085" type="qcurve" smooth="yes"/>
      <point x="764" y="1085"/>
      <point x="1009" y="934"/>
      <point x="1141" y="685"/>
    </contour>
    <contour>
      <point x="221" y="584" type="qcurve"/>
      <point x="1010" y="584" type="line"/>
      <point x="997" y="756"/>
      <point x="772" y="977"/>
      <point x="456" y="977"/>
      <point x="231" y="755"/>
    </contour>
  </outline>
</glyph>
<glyph name="gbreve" format="2">
  <advance width="1265"/>
  <unicode hex="011F"/>
  <anchor x="0" y="0" name="Anchor-11"/>
  <anchor x="0" y="0" name="Anchor-10"/>
  <anchor x="616" y="1448" name="Anchor-9"/>
  <anchor x="0" y="0" name="Anchor-8"/>
  <anchor x="0" y="0" name="Anchor-7"/>
  <outline>
    <contour>
      <point x="733" y="1495" type="qcurve"/>
      <point x="817" y="1495" type="line"/>
      <point x="817" y="1408"/>
      <point x="700" y="1288"/>
      <point x="616" y="1288" type="qcurve" smooth="yes"/>
      <point x="531" y="1288"/>
      <point x="416" y="1407"/>
      <point x="416" y="1495" type="qcurve"/>
      <point x="502" y="1495" type="line"/>
      <point x="502" y="1443"/>
      <point x="572" y="1360"/>
      <point x="616" y="1360" type="qcurve" smooth="yes"/>
      <point x="659" y="1360"/>
      <point x="727" y="1438"/>
    </contour>
    <contour>
      <point x="82" y="530" type="qcurve" smooth="yes"/>
      <point x="82" y="678"/>
      <point x="206" y="931"/>
      <point x="435" y="1085"/>
      <point x="578" y="1085" type="qcurve" smooth="yes"/>
      <point x="822" y="1085"/>
      <point x="987" y="844" type="qcurve"/>
      <point x="987" y="1067" type="line"/>
      <point x="1112" y="1067" type="line"/>
      <point x="1112" y="-4" type="line" smooth="yes"/>
      <point x="1112" y="-148"/>
      <point x="968" y="-357"/>
      <point x="735" y="-457"/>
      <point x="590" y="-457" type="qcurve" smooth="yes"/>
      <point x="414" y="-457"/>
      <point x="186" y="-333"/>
      <point x="111" y="-215" type="qcurve"/>
      <point x="197" y="-147" type="line"/>
      <point x="258" y="-245"/>
      <point x="466" y="-346"/>
      <point x="590" y="-346" type="qcurve" smooth="yes"/>
      <point x="669" y="-346"/>
      <point x="806" y="-303"/>
      <point x="912" y="-220"/>
      <point x="973" y="-87"/>
      <point x="973" y="-4" type="qcurve" smooth="yes"/>
      <point x="973" y="207" type="line"/>
      <point x="912" y="106"/>
      <point x="698" y="-14"/>
      <point x="582" y="-14" type="qcurve" smooth="yes"/>
      <point x="440" y="-14"/>
      <point x="208" y="141"/>
      <point x="82" y="389"/>
    </contour>
    <contour>
      <point x="973" y="367" type="qcurve"/>
      <point x="973" y="696" type="line"/>
      <point x="929" y="812"/>
      <point x="719" y="963"/>
      <point x="604" y="963" type="qcurve" smooth="yes"/>
      <point x="490" y="963"/>
      <point x="312" y="832"/>
      <point x="223" y="636"/>
      <point x="223" y="528" type="qcurve" smooth="yes"/>
      <point x="223" y="415"/>
      <point x="329" y="219"/>
      <point x="513" y="102"/>
      <point x="621" y="102" type="qcurve" smooth="yes"/>
      <point x="743" y="102"/>
      <point x="954" y="266"/>
    </contour>
  </outline>
</glyph>
<glyph name="Gcedilla" format="2">
  <advance width="1466"/>
  <unicode hex="0122"/>
  <anchor x="0" y="0" name="Anchor-11"/>
  <anchor x="0" y="0" name="Anchor-10"/>
  <anchor x="756" y="1450" name="Anchor-9"/>
  <anchor x="0" y="0" name="Anchor-8"/>
  <anchor x="772" y="0" name="Anchor-7"/>
  <outline>
    <contour>
      <point x="909" y="715" type="line"/>
      <point x="1354" y="715" type="line"/>
      <point x="1354" y="0" type="line"/>
      <point x="1233" y="0" type="line"/>
      <point x="1233" y="213" type="line"/>
      <point x="1032" y="-10"/>
      <point x="766" y="-10" type="qcurve" smooth="yes"/>
      <point x="652" y="-10"/>
      <point x="439" y="72"/>
      <point x="275" y="216"/>
      <point x="151" y="402"/>
      <point x="86" y="619"/>
      <point x="86" y="729" type="qcurve" smooth="yes"/>
      <point x="86" y="873"/>
      <point x="188" y="1142"/>
      <point x="364" y="1343"/>
      <point x="616" y="1464"/>
      <point x="758" y="1464" type="qcurve" smooth="yes"/>
      <point x="964" y="1464"/>
      <point x="1240" y="1295"/>
      <point x="1313" y="1147" type="qcurve"/>
      <point x="1202" y="1073" type="line"/>
      <point x="1065" y="1335"/>
      <point x="756" y="1335" type="qcurve" smooth="yes"/>
      <point x="639" y="1335"/>
      <point x="438" y="1232"/>
      <point x="304" y="1062"/>
      <point x="229" y="843"/>
      <point x="229" y="727" type="qcurve" smooth="yes"/>
      <point x="229" y="606"/>
      <point x="314" y="382"/>
      <point x="459" y="217"/>
      <point x="663" y="119"/>
      <point x="776" y="119" type="qcurve" smooth="yes"/>
      <point x="1030" y="119"/>
      <point x="1233" y="362" type="qcurve"/>
      <point x="1233" y="604" type="line"/>
      <point x="909" y="604" type="line"/>
    </contour>
    <contour>
      <point x="702" y="-256" type="line"/>
      <point x="702" y="-100" type="line"/>
      <point x="831" y="-100" type="line"/>
      <point x="831" y="-256" type="line"/>
      <point x="780" y="-408" type="line"/>
      <point x="709" y="-408" type="line"/>
      <point x="743" y="-256" type="line"/>
    </contour>
  </outline>
</glyph>
<glyph name="Hcircumflex" format="2">
  <advance width="1511"/>
  <unicode hex="0124"/>
  <anchor x="0" y="0" name="Anchor-11"/>
  <anchor x="758" y="727" name="Anchor-10"/>
  <anchor x="760" y="1878" name="Anchor-9"/>
  <anchor x="0" y="0" name="Anchor-8"/>
  <anchor x="758" y="0" name="Anchor-7"/>
  <outline>
    <contour>
      <point x="508" y="1704" type="line"/>
      <point x="709" y="1878" type="line"/>
      <point x="811" y="1878" type="line"/>
      <point x="1014" y="1704" type="line"/>
      <point x="934" y="1661" type="line"/>
      <point x="760" y="1790" type="line"/>
      <point x="586" y="1661" type="line"/>
    </contour>
    <contour>
      <point x="1329" y="1454" type="line"/>
      <point x="1329" y="0" type="line"/>
      <point x="1188" y="0" type="line"/>
      <point x="1188" y="680" type="line"/>
      <point x="326" y="680" type="line"/>
      <point x="326" y="0" type="line"/>
      <point x="182" y="0" type="line"/>
      <point x="182" y="1454" type="line"/>
      <point x="326" y="1454" type="line"/>
      <point x="326" y="807" type="line"/>
      <point x="1188" y="807" type="line"/>
      <point x="1188" y="1454" type="line"/>
    </contour>
  </outline>
</glyph>
<glyph name="hcircumflex" format="2">
  <advance width="1193"/>
  <unicode hex="0125"/>
  <anchor x="0" y="0" name="Anchor-11"/>
  <anchor x="596" y="535" name="Anchor-10"/>
  <anchor x="641" y="1882" name="Anchor-9"/>
  <anchor x="0" y="0" name="Anchor-8"/>
  <anchor x="596" y="0" name="Anchor-7"/>
  <outline>
    <contour>
      <point x="389" y="1708" type="line"/>
      <point x="590" y="1882" type="line"/>
      <point x="692" y="1882" type="line"/>
      <point x="895" y="1708" type="line"/>
      <point x="815" y="1665" type="line"/>
      <point x="641" y="1794" type="line"/>
      <point x="467" y="1665" type="line"/>
    </contour>
    <contour>
      <point x="1051" y="0" type="line"/>
      <point x="911" y="0" type="line"/>
      <point x="911" y="596" type="line" smooth="yes"/>
      <point x="911" y="958"/>
      <point x="666" y="958" type="qcurve" smooth="yes"/>
      <point x="546" y="958"/>
      <point x="329" y="782"/>
      <point x="293" y="653" type="qcurve"/>
      <point x="293" y="0" type="line"/>
      <point x="154" y="0" type="line"/>
      <point x="154" y="1495" type="line"/>
      <point x="293" y="1495" type="line"/>
      <point x="293" y="825" type="line"/>
      <point x="356" y="945"/>
      <point x="582" y="1085"/>
      <point x="713" y="1085" type="qcurve" smooth="yes"/>
      <point x="888" y="1085"/>
      <point x="1051" y="842"/>
      <point x="1051" y="625" type="qcurve" smooth="yes"/>
    </contour>
  </outline>
</glyph>
<glyph name="Hbar" format="2">
  <advance width="1531"/>
  <unicode hex="0126"/>
  <anchor x="0" y="0" name="Anchor-11"/>
  <anchor x="768" y="727" name="Anchor-10"/>
  <anchor x="770" y="1450" name="Anchor-9"/>
  <anchor x="0" y="0" name="Anchor-8"/>
  <anchor x="768" y="0" name="Anchor-7"/>
  <outline>
    <contour>
      <point x="1442" y="1206" type="line"/>
      <point x="1442" y="1098" type="line"/>
      <point x="1339" y="1098" type="line"/>
      <point x="1339" y="0" type="line"/>
      <point x="1198" y="0" type="line"/>
      <point x="1198" y="680" type="line"/>
      <point x="336" y="680" type="line"/>
      <point x="336" y="0" type="line"/>
      <point x="193" y="0" type="line"/>
      <point x="193" y="1098" type="line"/>
      <point x="90" y="1098" type="line"/>
      <point x="90" y="1206" type="line"/>
      <point x="193" y="1206" type="line"/>
      <point x="193" y="1454" type="line"/>
      <point x="336" y="1454" type="line"/>
      <point x="336" y="1206" type="line"/>
      <point x="1198" y="1206" type="line"/>
      <point x="1198" y="1454" type="line"/>
      <point x="1339" y="1454" type="line"/>
      <point x="1339" y="1206" type="line"/>
    </contour>
    <contour>
      <point x="1198" y="807" type="line"/>
      <point x="1198" y="1098" type="line"/>
      <point x="336" y="1098" type="line"/>
      <point x="336" y="807" type="line"/>
    </contour>
  </outline>
</glyph>
<glyph name="Itilde" format="2">
  <advance width="507"/>
  <unicode hex="0128"/>
  <anchor x="0" y="0" name="Anchor-11"/>
  <anchor x="0" y="0" name="Anchor-10"/>
  <anchor x="254" y="1878" name="Anchor-9"/>
  <anchor x="326" y="0" name="Anchor-8"/>
  <anchor x="254" y="0" name="Anchor-7"/>
  <outline>
    <contour>
      <point x="117" y="1772" type="qcurve" smooth="yes"/>
      <point x="86" y="1772"/>
      <point x="41" y="1745"/>
      <point x="22" y="1707"/>
      <point x="14" y="1680"/>
      <point x="14" y="1673" type="qcurve"/>
      <point x="-72" y="1673" type="line"/>
      <point x="-72" y="1684"/>
      <point x="-63" y="1724"/>
      <point x="-37" y="1781"/>
      <point x="2" y="1829"/>
      <point x="72" y="1864"/>
      <point x="115" y="1864" type="qcurve" smooth="yes"/>
      <point x="163" y="1864"/>
      <point x="252" y="1821"/>
      <point x="335" y="1778"/>
      <point x="377" y="1778" type="qcurve" smooth="yes"/>
      <point x="407" y="1778"/>
      <point x="453" y="1798"/>
      <point x="476" y="1824"/>
      <point x="490" y="1855"/>
      <point x="494" y="1873"/>
      <point x="494" y="1878" type="qcurve"/>
      <point x="580" y="1878" type="line"/>
      <point x="580" y="1867"/>
      <point x="571" y="1829"/>
      <point x="543" y="1772"/>
      <point x="501" y="1724"/>
      <point x="426" y="1690"/>
      <point x="379" y="1690" type="qcurve" smooth="yes"/>
      <point x="327" y="1690"/>
      <point x="232" y="1731"/>
      <point x="152" y="1772"/>
    </contour>
    <contour>
      <point x="182" y="0" type="line"/>
      <point x="182" y="1454" type="line"/>
      <point x="326" y="1454" type="line"/>
      <point x="326" y="0" type="line"/>
    </contour>
  </outline>
</glyph>
<glyph name="itilde" format="2">
  <advance width="446"/>
  <unicode hex="0129"/>
  <anchor x="0" y="0" name="Anchor-11"/>
  <anchor x="0" y="0" name="Anchor-10"/>
  <anchor x="223" y="1495" name="Anchor-9"/>
  <anchor x="0" y="0" name="Anchor-8"/>
  <anchor x="0" y="0" name="Anchor-7"/>
  <outline>
    <contour>
      <point x="86" y="1389" type="qcurve" smooth="yes"/>
      <point x="55" y="1389"/>
      <point x="10" y="1362"/>
      <point x="-9" y="1323"/>
      <point x="-16" y="1297"/>
      <point x="-16" y="1290" type="qcurve"/>
      <point x="-102" y="1290" type="line"/>
      <point x="-102" y="1306"/>
      <point x="-86" y="1360"/>
      <point x="-49" y="1431"/>
      <point x="31" y="1481"/>
      <point x="84" y="1481" type="qcurve" smooth="yes"/>
      <point x="132" y="1481"/>
      <point x="221" y="1438"/>
      <point x="304" y="1395"/>
      <point x="346" y="1395" type="qcurve" smooth="yes"/>
      <point x="376" y="1395"/>
      <point x="422" y="1415"/>
      <point x="445" y="1441"/>
      <point x="459" y="1472"/>
      <point x="463" y="1490"/>
      <point x="463" y="1495" type="qcurve"/>
      <point x="549" y="1495" type="line"/>
      <point x="549" y="1484"/>
      <point x="540" y="1446"/>
      <point x="512" y="1389"/>
      <point x="470" y="1341"/>
      <point x="395" y="1307"/>
      <point x="348" y="1307" type="qcurve" smooth="yes"/>
      <point x="296" y="1307"/>
      <point x="201" y="1348"/>
      <point x="121" y="1389"/>
    </contour>
    <contour>
      <point x="154" y="0" type="line"/>
      <point x="154" y="1067" type="line"/>
      <point x="293" y="1067" type="line"/>
      <point x="293" y="0" type="line"/>
    </contour>
  </outline>
</glyph>
<glyph name="Imacron" format="2">
  <advance width="507"/>
  <unicode hex="012A"/>
  <anchor x="0" y="0" name="Anchor-11"/>
  <anchor x="0" y="0" name="Anchor-10"/>
  <anchor x="254" y="1837" name="Anchor-9"/>
  <anchor x="326" y="0" name="Anchor-8"/>
  <anchor x="254" y="0" name="Anchor-7"/>
  <outline>
    <contour>
      <point x="-41" y="1741" type="line"/>
      <point x="-41" y="1837" type="line"/>
      <point x="551" y="1837" type="line"/>
      <point x="551" y="1741" type="line"/>
    </contour>
    <contour>
      <point x="182" y="0" type="line"/>
      <point x="182" y="1454" type="line"/>
      <point x="326" y="1454" type="line"/>
      <point x="326" y="0" type="line"/>
    </contour>
  </outline>
</glyph>
<glyph name="imacron" format="2">
  <advance width="446"/>
  <unicode hex="012B"/>
  <anchor x="0" y="0" name="Anchor-11"/>
  <anchor x="0" y="0" name="Anchor-10"/>
  <anchor x="223" y="1454" name="Anchor-9"/>
  <anchor x="0" y="0" name="Anchor-8"/>
  <anchor x="0" y="0" name="Anchor-7"/>
  <outline>
    <contour>
      <point x="-72" y="1358" type="line"/>
      <point x="-72" y="1454" type="line"/>
      <point x="520" y="1454" type="line"/>
      <point x="520" y="1358" type="line"/>
    </contour>
    <contour>
      <point x="154" y="0" type="line"/>
      <point x="154" y="1067" type="line"/>
      <point x="293" y="1067" type="line"/>
      <point x="293" y="0" type="line"/>
    </contour>
  </outline>
</glyph>
<glyph name="Ibreve" format="2">
  <advance width="507"/>
  <unicode hex="012C"/>
  <anchor x="0" y="0" name="Anchor-11"/>
  <anchor x="0" y="0" name="Anchor-10"/>
  <anchor x="254" y="1831" name="Anchor-9"/>
  <anchor x="326" y="0" name="Anchor-8"/>
  <anchor x="254" y="0" name="Anchor-7"/>
  <outline>
    <contour>
      <point x="371" y="1878" type="qcurve"/>
      <point x="455" y="1878" type="line"/>
      <point x="455" y="1791"/>
      <point x="338" y="1671"/>
      <point x="254" y="1671" type="qcurve" smooth="yes"/>
      <point x="169" y="1671"/>
      <point x="53" y="1790"/>
      <point x="53" y="1878" type="qcurve"/>
      <point x="139" y="1878" type="line"/>
      <point x="139" y="1826"/>
      <point x="210" y="1743"/>
      <point x="254" y="1743" type="qcurve" smooth="yes"/>
      <point x="297" y="1743"/>
      <point x="365" y="1821"/>
    </contour>
    <contour>
      <point x="182" y="0" type="line"/>
      <point x="182" y="1454" type="line"/>
      <point x="326" y="1454" type="line"/>
      <point x="326" y="0" type="line"/>
    </contour>
  </outline>
</glyph>
<glyph name="ibreve" format="2">
  <advance width="446"/>
  <unicode hex="012D"/>
  <anchor x="0" y="0" name="Anchor-11"/>
  <anchor x="0" y="0" name="Anchor-10"/>
  <anchor x="223" y="1448" name="Anchor-9"/>
  <anchor x="0" y="0" name="Anchor-8"/>
  <anchor x="0" y="0" name="Anchor-7"/>
  <outline>
    <contour>
      <point x="340" y="1495" type="qcurve"/>
      <point x="424" y="1495" type="line"/>
      <point x="424" y="1408"/>
      <point x="307" y="1288"/>
      <point x="223" y="1288" type="qcurve" smooth="yes"/>
      <point x="138" y="1288"/>
      <point x="23" y="1407"/>
      <point x="23" y="1495" type="qcurve"/>
      <point x="109" y="1495" type="line"/>
      <point x="109" y="1443"/>
      <point x="179" y="1360"/>
      <point x="223" y="1360" type="qcurve" smooth="yes"/>
      <point x="266" y="1360"/>
      <point x="334" y="1438"/>
    </contour>
    <contour>
      <point x="154" y="0" type="line"/>
      <point x="154" y="1067" type="line"/>
      <point x="293" y="1067" type="line"/>
      <point x="293" y="0" type="line"/>
    </contour>
  </outline>
</glyph>
<glyph name="Iogonek" format="2">
  <advance width="507"/>
  <unicode hex="012E"/>
  <anchor x="0" y="0" name="Anchor-11"/>
  <anchor x="0" y="0" name="Anchor-10"/>
  <anchor x="254" y="1450" name="Anchor-9"/>
  <anchor x="326" y="0" name="Anchor-8"/>
  <anchor x="254" y="0" name="Anchor-7"/>
  <outline>
    <contour>
      <point x="326" y="0" type="line"/>
      <point x="241" y="-64"/>
      <point x="166" y="-157"/>
      <point x="166" y="-197" type="qcurve" smooth="yes"/>
      <point x="166" y="-235"/>
      <point x="241" y="-271"/>
      <point x="322" y="-281" type="qcurve"/>
      <point x="287" y="-373" type="line"/>
      <point x="68" y="-351"/>
      <point x="68" y="-215" type="qcurve" smooth="yes"/>
      <point x="68" y="-106"/>
      <point x="207" y="0" type="qcurve"/>
      <point x="182" y="0" type="line"/>
      <point x="182" y="1454" type="line"/>
      <point x="326" y="1454" type="line"/>
    </contour>
  </outline>
</glyph>
<glyph name="Idotaccent" format="2">
  <advance width="507"/>
  <unicode hex="0130"/>
  <anchor x="0" y="0" name="Anchor-11"/>
  <anchor x="0" y="0" name="Anchor-10"/>
  <anchor x="254" y="1878" name="Anchor-9"/>
  <anchor x="326" y="0" name="Anchor-8"/>
  <anchor x="254" y="0" name="Anchor-7"/>
  <outline>
    <contour>
      <point x="190" y="1679" type="line"/>
      <point x="190" y="1878" type="line"/>
      <point x="317" y="1878" type="line"/>
      <point x="317" y="1679" type="line"/>
    </contour>
    <contour>
      <point x="182" y="0" type="line"/>
      <point x="182" y="1454" type="line"/>
      <point x="326" y="1454" type="line"/>
      <point x="326" y="0" type="line"/>
    </contour>
  </outline>
</glyph>
<glyph name="Jcircumflex" format="2">
  <advance width="985"/>
  <unicode hex="0134"/>
  <anchor x="0" y="0" name="Anchor-11"/>
  <anchor x="0" y="0" name="Anchor-10"/>
  <anchor x="752" y="1878" name="Anchor-9"/>
  <anchor x="0" y="0" name="Anchor-8"/>
  <anchor x="0" y="0" name="Anchor-7"/>
  <outline>
    <contour>
      <point x="500" y="1704" type="line"/>
      <point x="700" y="1878" type="line"/>
      <point x="803" y="1878" type="line"/>
      <point x="1006" y="1704" type="line"/>
      <point x="926" y="1661" type="line"/>
      <point x="752" y="1790" type="line"/>
      <point x="578" y="1661" type="line"/>
    </contour>
    <contour>
      <point x="70" y="182" type="line"/>
      <point x="181" y="106"/>
      <point x="346" y="106" type="qcurve" smooth="yes"/>
      <point x="417" y="106"/>
      <point x="522" y="137"/>
      <point x="595" y="205"/>
      <point x="642" y="295"/>
      <point x="668" y="434"/>
      <point x="678" y="582"/>
      <point x="678" y="686" type="qcurve" smooth="yes"/>
      <point x="678" y="1454" type="line"/>
      <point x="821" y="1454" type="line"/>
      <point x="821" y="715" type="line" smooth="yes"/>
      <point x="821" y="613"/>
      <point x="813" y="459"/>
      <point x="788" y="298"/>
      <point x="746" y="183"/>
      <point x="675" y="78"/>
      <point x="577" y="14"/>
      <point x="438" y="-23"/>
      <point x="350" y="-23" type="qcurve" smooth="yes"/>
      <point x="162" y="-23"/>
      <point x="29" y="68" type="qcurve"/>
    </contour>
  </outline>
</glyph>
<glyph name="jcircumflex" format="2">
  <advance width="446"/>
  <unicode hex="0135"/>
  <anchor x="0" y="0" name="Anchor-11"/>
  <anchor x="0" y="0" name="Anchor-10"/>
  <anchor x="223" y="1495" name="Anchor-9"/>
  <anchor x="0" y="0" name="Anchor-8"/>
  <anchor x="0" y="0" name="Anchor-7"/>
  <outline>
    <contour>
      <point x="-29" y="1321" type="line"/>
      <point x="172" y="1495" type="line"/>
      <point x="274" y="1495" type="line"/>
      <point x="477" y="1321" type="line"/>
      <point x="397" y="1278" type="line"/>
      <point x="223" y="1407" type="line"/>
      <point x="49" y="1278" type="line"/>
    </contour>
    <contour>
      <point x="-256" y="-291" type="qcurve"/>
      <point x="-186" y="-197" type="line"/>
      <point x="-134" y="-246"/>
      <point x="-37" y="-246" type="qcurve" smooth="yes"/>
      <point x="37" y="-246"/>
      <point x="154" y="-135"/>
      <point x="154" y="-55" type="qcurve" smooth="yes"/>
      <point x="154" y="1067" type="line"/>
      <point x="293" y="1067" type="line"/>
      <point x="293" y="-47" type="line" smooth="yes"/>
      <point x="293" y="-184"/>
      <point x="102" y="-371"/>
      <point x="-23" y="-371" type="qcurve" smooth="yes"/>
      <point x="-170" y="-371"/>
    </contour>
  </outline>
</glyph>
<glyph name="kcedilla" format="2">
  <advance width="1085"/>
  <unicode hex="0137"/>
  <anchor x="0" y="0" name="Anchor-11"/>
  <anchor x="0" y="0" name="Anchor-10"/>
  <anchor x="0" y="0" name="Anchor-9"/>
  <anchor x="0" y="0" name="Anchor-8"/>
  <anchor x="565" y="0" name="Anchor-7"/>
  <outline>
    <contour>
      <point x="915" y="0" type="line"/>
      <point x="520" y="547" type="line"/>
      <point x="293" y="334" type="line"/>
      <point x="293" y="0" type="line"/>
      <point x="154" y="0" type="line"/>
      <point x="154" y="1495" type="line"/>
      <point x="293" y="1495" type="line"/>
      <point x="293" y="483" type="line"/>
      <point x="897" y="1065" type="line"/>
      <point x="1051" y="1065" type="line"/>
      <point x="614" y="629" type="line"/>
      <point x="1067" y="0" type="line"/>
    </contour>
    <contour>
      <point x="502" y="-408" type="line"/>
      <point x="537" y="-256" type="line"/>
      <point x="496" y="-256" type="line"/>
      <point x="496" y="-100" type="line"/>
      <point x="625" y="-100" type="line"/>
      <point x="625" y="-256" type="line"/>
      <point x="573" y="-408" type="line"/>
    </contour>
  </outline>
</glyph>
<glyph name="kgreenlandic" format="2">
  <advance width="1085"/>
  <unicode hex="0138"/>
  <outline>
    <contour>
      <point x="915" y="0" type="line"/>
      <point x="522" y="547" type="line"/>
      <point x="293" y="334" type="line"/>
      <point x="293" y="0" type="line"/>
      <point x="154" y="0" type="line"/>
      <point x="154" y="1067" type="line"/>
      <point x="293" y="1067" type="line"/>
      <point x="293" y="479" type="line"/>
      <point x="893" y="1065" type="line"/>
      <point x="1051" y="1065" type="line"/>
      <point x="614" y="629" type="line"/>
      <point x="1067" y="0" type="line"/>
    </contour>
  </outline>
</glyph>
<glyph name="Lacute" format="2">
  <advance width="1193"/>
  <unicode hex="0139"/>
  <anchor x="788" y="1077" name="Anchor-11"/>
  <anchor x="596" y="727" name="Anchor-10"/>
  <anchor x="340" y="1880" name="Anchor-9"/>
  <anchor x="0" y="0" name="Anchor-8"/>
  <anchor x="684" y="0" name="Anchor-7"/>
  <outline>
    <contour>
      <point x="297" y="1655" type="line"/>
      <point x="205" y="1690" type="line"/>
      <point x="326" y="1880" type="line"/>
      <point x="473" y="1880" type="line"/>
    </contour>
    <contour>
      <point x="182" y="0" type="line"/>
      <point x="182" y="1454" type="line"/>
      <point x="326" y="1454" type="line"/>
      <point x="326" y="127" type="line"/>
      <point x="1165" y="127" type="line"/>
      <point x="1165" y="0" type="line"/>
    </contour>
  </outline>
</glyph>
<glyph name="lacute" format="2">
  <advance width="557"/>
  <unicode hex="013A"/>
  <anchor x="410" y="1067" name="Anchor-11"/>
  <anchor x="279" y="535" name="Anchor-10"/>
  <anchor x="319" y="1882" name="Anchor-9"/>
  <anchor x="0" y="0" name="Anchor-8"/>
  <anchor x="356" y="0" name="Anchor-7"/>
  <outline>
    <contour>
      <point x="276" y="1657" type="line"/>
      <point x="184" y="1692" type="line"/>
      <point x="305" y="1882" type="line"/>
      <point x="453" y="1882" type="line"/>
    </contour>
    <contour>
      <point x="160" y="1495" type="line"/>
      <point x="299" y="1495" type="line"/>
      <point x="299" y="242" type="line" smooth="yes"/>
      <point x="299" y="168"/>
      <point x="349" y="113"/>
      <point x="397" y="113" type="qcurve" smooth="yes"/>
      <point x="465" y="113"/>
      <point x="535" y="137" type="qcurve"/>
      <point x="559" y="25" type="line"/>
      <point x="520" y="10"/>
      <point x="408" y="-12"/>
      <point x="367" y="-12" type="qcurve" smooth="yes"/>
      <point x="271" y="-12"/>
      <point x="160" y="99"/>
      <point x="160" y="195" type="qcurve" smooth="yes"/>
    </contour>
  </outline>
</glyph>
<glyph name="Lcedilla" format="2">
  <advance width="1193"/>
  <unicode hex="013B"/>
  <anchor x="788" y="1077" name="Anchor-11"/>
  <anchor x="596" y="727" name="Anchor-10"/>
  <anchor x="250" y="1452" name="Anchor-9"/>
  <anchor x="0" y="0" name="Anchor-8"/>
  <anchor x="684" y="0" name="Anchor-7"/>
  <outline>
    <contour>
      <point x="182" y="0" type="line"/>
      <point x="182" y="1454" type="line"/>
      <point x="326" y="1454" type="line"/>
      <point x="326" y="127" type="line"/>
      <point x="1165" y="127" type="line"/>
      <point x="1165" y="0" type="line"/>
    </contour>
    <contour>
      <point x="621" y="-408" type="line"/>
      <point x="655" y="-256" type="line"/>
      <point x="614" y="-256" type="line"/>
      <point x="614" y="-100" type="line"/>
      <point x="743" y="-100" type="line"/>
      <point x="743" y="-256" type="line"/>
      <point x="692" y="-408" type="line"/>
    </contour>
  </outline>
</glyph>
<glyph name="lcedilla" format="2">
  <advance width="557"/>
  <unicode hex="013C"/>
  <anchor x="410" y="1067" name="Anchor-11"/>
  <anchor x="279" y="535" name="Anchor-10"/>
  <anchor x="229" y="1454" name="Anchor-9"/>
  <anchor x="0" y="0" name="Anchor-8"/>
  <anchor x="356" y="0" name="Anchor-7"/>
  <outline>
    <contour>
      <point x="160" y="1495" type="line"/>
      <point x="299" y="1495" type="line"/>
      <point x="299" y="242" type="line" smooth="yes"/>
      <point x="299" y="168"/>
      <point x="349" y="113"/>
      <point x="397" y="113" type="qcurve" smooth="yes"/>
      <point x="465" y="113"/>
      <point x="535" y="137" type="qcurve"/>
      <point x="559" y="25" type="line"/>
      <point x="520" y="10"/>
      <point x="408" y="-12"/>
      <point x="367" y="-12" type="qcurve" smooth="yes"/>
      <point x="271" y="-12"/>
      <point x="160" y="99"/>
      <point x="160" y="195" type="qcurve" smooth="yes"/>
    </contour>
    <contour>
      <point x="293" y="-408" type="line"/>
      <point x="328" y="-256" type="line"/>
      <point x="287" y="-256" type="line"/>
      <point x="287" y="-100" type="line"/>
      <point x="416" y="-100" type="line"/>
      <point x="416" y="-256" type="line"/>
      <point x="365" y="-408" type="line"/>
    </contour>
  </outline>
</glyph>
<glyph name="Lcaron" format="2">
  <advance width="1193"/>
  <unicode hex="013D"/>
  <anchor x="788" y="1077" name="Anchor-11"/>
  <anchor x="596" y="727" name="Anchor-10"/>
  <anchor x="250" y="1452" name="Anchor-9"/>
  <anchor x="0" y="0" name="Anchor-8"/>
  <anchor x="684" y="0" name="Anchor-7"/>
  <outline>
    <contour>
      <point x="864" y="1280" type="line"/>
      <point x="772" y="1315" type="line"/>
      <point x="893" y="1505" type="line"/>
      <point x="1040" y="1505" type="line"/>
    </contour>
    <contour>
      <point x="182" y="0" type="line"/>
      <point x="182" y="1454" type="line"/>
      <point x="326" y="1454" type="line"/>
      <point x="326" y="127" type="line"/>
      <point x="1165" y="127" type="line"/>
      <point x="1165" y="0" type="line"/>
    </contour>
  </outline>
</glyph>
<glyph name="Lslash" format="2">
  <advance width="1208"/>
  <unicode hex="0141"/>
  <anchor x="803" y="1077" name="Anchor-11"/>
  <anchor x="610" y="727" name="Anchor-10"/>
  <anchor x="264" y="1452" name="Anchor-9"/>
  <anchor x="0" y="0" name="Anchor-8"/>
  <anchor x="698" y="0" name="Anchor-7"/>
  <outline>
    <contour>
      <point x="340" y="127" type="line"/>
      <point x="1180" y="127" type="line"/>
      <point x="1180" y="0" type="line"/>
      <point x="197" y="0" type="line"/>
      <point x="197" y="567" type="line"/>
      <point x="78" y="469" type="line"/>
      <point x="33" y="551" type="line"/>
      <point x="197" y="686" type="line"/>
      <point x="197" y="1454" type="line"/>
      <point x="340" y="1454" type="line"/>
      <point x="340" y="805" type="line"/>
      <point x="657" y="1069" type="line"/>
      <point x="702" y="989" type="line"/>
      <point x="340" y="688" type="line"/>
    </contour>
  </outline>
</glyph>
<glyph name="lslash" format="2">
  <advance width="598"/>
  <unicode hex="0142"/>
  <anchor x="449" y="1067" name="Anchor-11"/>
  <anchor x="317" y="535" name="Anchor-10"/>
  <anchor x="268" y="1454" name="Anchor-9"/>
  <anchor x="0" y="0" name="Anchor-8"/>
  <anchor x="395" y="0" name="Anchor-7"/>
  <outline>
    <contour>
      <point x="573" y="137" type="qcurve"/>
      <point x="598" y="25" type="line"/>
      <point x="559" y="10"/>
      <point x="447" y="-12"/>
      <point x="406" y="-12" type="qcurve" smooth="yes"/>
      <point x="310" y="-12"/>
      <point x="199" y="99"/>
      <point x="199" y="195" type="qcurve" smooth="yes"/>
      <point x="199" y="694" type="line"/>
      <point x="68" y="592" type="line"/>
      <point x="20" y="672" type="line"/>
      <point x="199" y="813" type="line"/>
      <point x="199" y="1495" type="line"/>
      <point x="338" y="1495" type="line"/>
      <point x="338" y="924" type="line"/>
      <point x="520" y="1067" type="line"/>
      <point x="569" y="987" type="line"/>
      <point x="338" y="805" type="line"/>
      <point x="338" y="242" type="line" smooth="yes"/>
      <point x="338" y="168"/>
      <point x="388" y="113"/>
      <point x="436" y="113" type="qcurve" smooth="yes"/>
      <point x="503" y="113"/>
    </contour>
  </outline>
</glyph>
<glyph name="Nacute" format="2">
  <advance width="1581"/>
  <unicode hex="0143"/>
  <anchor x="0" y="0" name="Anchor-11"/>
  <anchor x="0" y="0" name="Anchor-10"/>
  <anchor x="887" y="1878" name="Anchor-9"/>
  <anchor x="0" y="0" name="Anchor-8"/>
  <anchor x="797" y="0" name="Anchor-7"/>
  <outline>
    <contour>
      <point x="844" y="1653" type="line"/>
      <point x="752" y="1688" type="line"/>
      <point x="872" y="1878" type="line"/>
      <point x="1020" y="1878" type="line"/>
    </contour>
    <contour>
      <point x="326" y="1190" type="line"/>
      <point x="326" y="0" type="line"/>
      <point x="182" y="0" type="line"/>
      <point x="182" y="1454" type="line"/>
      <point x="301" y="1454" type="line"/>
      <point x="1255" y="242" type="line"/>
      <point x="1255" y="1452" type="line"/>
      <point x="1399" y="1452" type="line"/>
      <point x="1399" y="0" type="line"/>
      <point x="1266" y="0" type="line"/>
    </contour>
  </outline>
</glyph>
<glyph name="ncedilla" format="2">
  <advance width="1193"/>
  <unicode hex="0146"/>
  <anchor x="0" y="0" name="Anchor-11"/>
  <anchor x="0" y="0" name="Anchor-10"/>
  <anchor x="606" y="1067" name="Anchor-9"/>
  <anchor x="0" y="0" name="Anchor-8"/>
  <anchor x="594" y="0" name="Anchor-7"/>
  <outline>
    <contour>
      <point x="1051" y="0" type="line"/>
      <point x="911" y="0" type="line"/>
      <point x="911" y="596" type="line" smooth="yes"/>
      <point x="911" y="784"/>
      <point x="800" y="958"/>
      <point x="682" y="958" type="qcurve" smooth="yes"/>
      <point x="557" y="958"/>
      <point x="331" y="783"/>
      <point x="293" y="653" type="qcurve"/>
      <point x="293" y="0" type="line"/>
      <point x="154" y="0" type="line"/>
      <point x="154" y="1067" type="line"/>
      <point x="281" y="1067" type="line"/>
      <point x="281" y="825" type="line"/>
      <point x="346" y="943"/>
      <point x="591" y="1085"/>
      <point x="733" y="1085" type="qcurve" smooth="yes"/>
      <point x="820" y="1085"/>
      <point x="945" y="1022"/>
      <point x="1018" y="898"/>
      <point x="1051" y="734"/>
      <point x="1051" y="625" type="qcurve" smooth="yes"/>
    </contour>
    <contour>
      <point x="530" y="-408" type="line"/>
      <point x="565" y="-256" type="line"/>
      <point x="524" y="-256" type="line"/>
      <point x="524" y="-100" type="line"/>
      <point x="653" y="-100" type="line"/>
      <point x="653" y="-256" type="line"/>
      <point x="602" y="-408" type="line"/>
    </contour>
  </outline>
</glyph>
<glyph name="Ncaron" format="2">
  <advance width="1581"/>
  <unicode hex="0147"/>
  <anchor x="0" y="0" name="Anchor-11"/>
  <anchor x="0" y="0" name="Anchor-10"/>
  <anchor x="797" y="1878" name="Anchor-9"/>
  <anchor x="0" y="0" name="Anchor-8"/>
  <anchor x="797" y="0" name="Anchor-7"/>
  <outline>
    <contour>
      <point x="623" y="1878" type="line"/>
      <point x="797" y="1749" type="line"/>
      <point x="971" y="1878" type="line"/>
      <point x="1051" y="1837" type="line"/>
      <point x="848" y="1661" type="line"/>
      <point x="745" y="1661" type="line"/>
      <point x="545" y="1837" type="line"/>
    </contour>
    <contour>
      <point x="326" y="1190" type="line"/>
      <point x="326" y="0" type="line"/>
      <point x="182" y="0" type="line"/>
      <point x="182" y="1454" type="line"/>
      <point x="301" y="1454" type="line"/>
      <point x="1255" y="242" type="line"/>
      <point x="1255" y="1452" type="line"/>
      <point x="1399" y="1452" type="line"/>
      <point x="1399" y="0" type="line"/>
      <point x="1266" y="0" type="line"/>
    </contour>
  </outline>
</glyph>
<glyph name="Eng" format="2">
  <advance width="1568"/>
  <unicode hex="014A"/>
  <outline>
    <contour>
      <point x="326" y="1186" type="line"/>
      <point x="326" y="0" type="line"/>
      <point x="182" y="0" type="line"/>
      <point x="182" y="1454" type="line"/>
      <point x="291" y="1454" type="line"/>
      <point x="1245" y="250" type="line"/>
      <point x="1245" y="1452" type="line"/>
      <point x="1386" y="1452" type="line"/>
      <point x="1386" y="-51" type="line" smooth="yes"/>
      <point x="1386" y="-187"/>
      <point x="1194" y="-371"/>
      <point x="1071" y="-371" type="qcurve" smooth="yes"/>
      <point x="926" y="-371"/>
      <point x="838" y="-291" type="qcurve"/>
      <point x="907" y="-197" type="line"/>
      <point x="959" y="-246"/>
      <point x="1055" y="-246" type="qcurve" smooth="yes"/>
      <point x="1129" y="-246"/>
      <point x="1247" y="-134"/>
      <point x="1247" y="-55" type="qcurve" smooth="yes"/>
      <point x="1247" y="18" type="line"/>
    </contour>
  </outline>
</glyph>
<glyph name="eng" format="2">
  <advance width="1193"/>
  <unicode hex="014B"/>
  <outline>
    <contour>
      <point x="504" y="-291" type="qcurve"/>
      <point x="571" y="-197" type="line"/>
      <point x="625" y="-246"/>
      <point x="721" y="-246" type="qcurve" smooth="yes"/>
      <point x="795" y="-246"/>
      <point x="911" y="-135"/>
      <point x="911" y="-55" type="qcurve" smooth="yes"/>
      <point x="911" y="596" type="line" smooth="yes"/>
      <point x="911" y="784"/>
      <point x="800" y="958"/>
      <point x="682" y="958" type="qcurve" smooth="yes"/>
      <point x="557" y="958"/>
      <point x="331" y="783"/>
      <point x="293" y="653" type="qcurve"/>
      <point x="293" y="0" type="line"/>
      <point x="154" y="0" type="line"/>
      <point x="154" y="1067" type="line"/>
      <point x="281" y="1067" type="line"/>
      <point x="281" y="825" type="line"/>
      <point x="346" y="943"/>
      <point x="591" y="1085"/>
      <point x="733" y="1085" type="qcurve" smooth="yes"/>
      <point x="820" y="1085"/>
      <point x="945" y="1022"/>
      <point x="1018" y="898"/>
      <point x="1051" y="734"/>
      <point x="1051" y="625" type="qcurve" smooth="yes"/>
      <point x="1051" y="-47" type="line" smooth="yes"/>
      <point x="1051" y="-184"/>
      <point x="861" y="-371"/>
      <point x="737" y="-371" type="qcurve" smooth="yes"/>
      <point x="590" y="-371"/>
    </contour>
  </outline>
</glyph>
<glyph name="obreve" format="2">
  <advance width="1218"/>
  <unicode hex="014F"/>
  <anchor x="889" y="952" name="Anchor-11"/>
  <anchor x="610" y="535" name="Anchor-10"/>
  <anchor x="608" y="1448" name="Anchor-9"/>
  <anchor x="748" y="0" name="Anchor-8"/>
  <anchor x="608" y="0" name="Anchor-7"/>
  <outline>
    <contour>
      <point x="725" y="1495" type="qcurve"/>
      <point x="809" y="1495" type="line"/>
      <point x="809" y="1408"/>
      <point x="692" y="1288"/>
      <point x="608" y="1288" type="qcurve" smooth="yes"/>
      <point x="523" y="1288"/>
      <point x="408" y="1407"/>
      <point x="408" y="1495" type="qcurve"/>
      <point x="494" y="1495" type="line"/>
      <point x="494" y="1443"/>
      <point x="564" y="1360"/>
      <point x="608" y="1360" type="qcurve" smooth="yes"/>
      <point x="651" y="1360"/>
      <point x="719" y="1438"/>
    </contour>
    <contour>
      <point x="80" y="530" type="qcurve" smooth="yes"/>
      <point x="80" y="641"/>
      <point x="160" y="844"/>
      <point x="298" y="995"/>
      <point x="496" y="1085"/>
      <point x="608" y="1085" type="qcurve" smooth="yes"/>
      <point x="758" y="1085"/>
      <point x="1003" y="933"/>
      <point x="1139" y="679"/>
      <point x="1139" y="530" type="qcurve" smooth="yes"/>
      <point x="1139" y="382"/>
      <point x="1004" y="131"/>
      <point x="759" y="-20"/>
      <point x="457" y="-20"/>
      <point x="213" y="131"/>
      <point x="80" y="382"/>
    </contour>
    <contour>
      <point x="768" y="102"/>
      <point x="997" y="354"/>
      <point x="997" y="710"/>
      <point x="768" y="963"/>
      <point x="608" y="963" type="qcurve" smooth="yes"/>
      <point x="504" y="963"/>
      <point x="326" y="847"/>
      <point x="221" y="646"/>
      <point x="221" y="528" type="qcurve" smooth="yes"/>
      <point x="221" y="350"/>
      <point x="448" y="102"/>
    </contour>
  </outline>
</glyph>
